<svg version="1.1" id="Camada_1" xmlns="http://www.w3.org/2000/svg" x="0" y="0" viewBox="0 0 240.6 95.8" xml:space="preserve"><style>.st1{opacity:.5;fill:#fff}</style><linearGradient id="SVGID_1_" gradientUnits="userSpaceOnUse" x1="120.396" y1="95.829" x2="120.396" y2=".069"><stop offset="0" stop-color="#cee5f0"/><stop offset="1" stop-color="#9ccee5"/></linearGradient><path fill="url(#SVGID_1_)" d="M.2.1h240.4v95.8H.2z"/><path class="st1" d="M.2.1v95.8H199C182.4 50.5 145.5 15 99.4.1H.2c-.7.2.7-.3 0 0z"/><path class="st1" d="M.2 95.8h64C60.4 58.5 43.7 25.1 18.6.1H.2v95.7z"/><path d="M240.6 53.6c-3.9-1.3-6.8-4.1-9.6-7.2-3.9-4.4-8-8.9-16.6-9.5-13.6-1-20.5 2.7-27.9 6.5-8 4.2-16.4 8.5-33.9 8.2-11.3-.2-23.6-7.2-37.9-15.2-18.2-10.3-38.8-21.9-63.8-23.3C18.1 11.3.4 20.3.2 20.4v-.9c.2-.1 17.6-9.2 50.8-7.4 25.2 1.4 45.9 13.1 64.2 23.4 14.1 8 26.3 14.9 37.4 15.1 17.3.3 25.5-3.9 33.5-8.1 7.5-3.9 14.5-7.6 28.4-6.6 9 .6 13.4 5.5 17.3 9.8 2.7 2.9 5.2 5.7 8.9 6.9v1zm-211-10.8C15.8 37.8 2.1 44.1.2 45v1c.1-.1 14.6-7.5 29.1-2.3 14.3 5.1 15.3 13.8 15.3 13.9v.2c0 .1 2.6 5.7-5.8 19.5-6.3 10.5-5.8 16.1-5 18.5h1.1c-.7-1.9-1.7-7.2 4.8-18 8.2-13.6 6.2-19.6 5.9-20.4-.1-1-1.6-9.4-16-14.6z" fill="#fff"/></svg>