<svg version="1.1" id="Camada_1" xmlns="http://www.w3.org/2000/svg" x="0" y="0" viewBox="0 0 240 49.7" xml:space="preserve"><style/><linearGradient id="SVGID_1_" gradientUnits="userSpaceOnUse" x1="84" y1="398.937" x2="324" y2="398.937" gradientTransform="rotate(180 162 213.76)"><stop offset="0" stop-color="#32a7db"/><stop offset="1" stop-color="#029f9a"/></linearGradient><path d="M240 27.1L0 12v28.8s11.7 2.5 16.9 2.8c24.7 1.8 37.8-5.7 65.3-5.5 27.5.2 35.2 7 60.5 7s32.7-8.5 57.3-9.7c13.2-.6 32.4 1.8 40 4.3V27.1z" fill="url(#SVGID_1_)"/><path d="M104 43.7s23.9 6 41.3 6 33.7-7.2 52.2-7.5C216 41.8 240 49 240 49v-7.7s-14.8-5.4-38.7-4.6c-23.8.8-39.9 11.2-58.7 10.1-13.4.9-38.6-3.1-38.6-3.1z" fill="#233787"/><linearGradient id="SVGID_00000098921088973479562450000016936392697095809706_" gradientUnits="userSpaceOnUse" x1="0" y1="14.757" x2="240" y2="14.757"><stop offset="0" stop-color="#32a7db"/><stop offset="1" stop-color="#029f9a"/></linearGradient><path d="M0 4.5s41.6 5.3 54.8 4.7C79.5 8 84.8 0 110.2 0s41.2 7.2 68.7 7.3c27.5.2 20.3-5.3 44.7-4.8 5.2.1 16.5 1.3 16.5 1.3v25.7L0 14.4V4.5" fill="url(#SVGID_00000098921088973479562450000016936392697095809706_)"/></svg>