<?xml version="1.0" encoding="utf-8"?>
<!-- Generator: Adobe Illustrator 27.0.1, SVG Export Plug-In . SVG Version: 6.00 Build 0)  -->
<svg version="1.1" id="Layer_1" xmlns="http://www.w3.org/2000/svg" xmlns:xlink="http://www.w3.org/1999/xlink" x="0px" y="0px"
	 viewBox="0 0 425.2 425.2" style="enable-background:new 0 0 425.2 425.2;" xml:space="preserve">
<style type="text/css">
	.st0{fill:#00B4BF;}
	.st1{clip-path:url(#SVGID_00000011731213342020821690000006013383439593914547_);fill:#00B4BF;}
	.st2{clip-path:url(#SVGID_00000121238506095131969490000009925836340769329556_);fill:#00B4BF;}
</style>
<path class="st0" d="M199.68,211.54c-13.79-4.47-25.66-12.46-34.35-23.12c-8.94-10.97-13.68-23.81-13.69-37.13l0.08-34.61
	c0-8.68,5.61-16.55,14.65-20.54l4.43-2.04l-0.08,58.42c0,1.06,0.08,2.16,0.24,3.27c0.85,11.48,5.06,22.79,12.17,32.65
	c5.93,8.21,13.84,15.34,22.97,20.73C204.01,210.05,201.86,210.85,199.68,211.54z"/>
<path class="st0" d="M226.02,211.54c-2.13-0.69-4.25-1.48-6.31-2.35c9.19-5.39,17.14-12.53,23.11-20.76
	c7.15-9.87,11.39-21.22,12.25-32.81c0.15-1.03,0.23-2.13,0.23-3.19V88.52c0-8.68,5.6-16.54,14.63-20.52l4.46-2.2v85.34
	c0,13.39-4.77,26.29-13.79,37.31C251.96,198.97,239.7,207.16,226.02,211.54z"/>
<g>
	<path class="st0" d="M158.68,175.65c4.36,0.09,9.15-1.36,14.27-4.84c7.27-4.95,13.83-9.6,21.44-4.54
		c11.41,7.6,10.95,14.3,23.5,13.7c12.55-0.6,11.52-11.2,9.7-17.9c-1.83-6.7,10.84-7.5,8.9,0.3c-1.94,7.8-4.22,15.7,5.82,16
		c4.5,0.13,12.45,0,28.25-8.09c0,0-10.96,38.04-58.06,44.72c0,0-38.56-3.88-55.28-39.19L158.68,175.65z"/>
	<path class="st0" d="M231.81,129.43c-5.63,0-10.2,4.6-10.2,10.28c0,5.68,4.56,10.28,10.2,10.28c5.63,0,10.2-4.6,10.2-10.28
		C242.01,134.03,237.45,129.43,231.81,129.43z"/>
</g>
<g>
	<g>
		<path class="st0" d="M37.06,237.23v19.12c0,3.99,1.23,7.39,3.7,10.2c2.47,2.81,5.45,4.22,8.95,4.22c3.5,0,6.48-1.41,8.95-4.22
			c2.47-2.81,3.7-6.21,3.7-10.2l0.04-19.12h4.22v19.28c-0.06,5.28-1.73,9.78-5.02,13.5c-3.29,3.71-7.25,5.57-11.88,5.57
			c-4.64,0-8.6-1.87-11.89-5.6c-3.29-3.73-4.95-8.27-4.98-13.63v-19.12H37.06z"/>
		<path class="st0" d="M100.57,275.58v-19.12c-0.03-4.02-1.27-7.43-3.72-10.23c-2.45-2.8-5.44-4.19-8.97-4.19
			c-3.47,0-6.43,1.39-8.88,4.17c-2.45,2.78-3.71,6.14-3.77,10.1v19.27h-4.22v-19.12c0-5.28,1.64-9.81,4.93-13.58
			c3.29-3.76,7.27-5.65,11.93-5.65c4.64,0,8.6,1.86,11.89,5.57c3.29,3.72,4.96,8.21,5.02,13.5v19.27H100.57z"/>
		<rect x="109.27" y="237.23" class="st0" width="4.22" height="38.35"/>
		<path class="st0" d="M143.26,237.23v38.35h-8.39c-4.64,0-8.6-1.86-11.89-5.57c-3.29-3.72-4.96-8.21-5.02-13.5v-19.28h4.22v19.07
			c0,3.99,1.24,7.4,3.72,10.23c2.48,2.83,5.47,4.24,8.97,4.24h4.17v-33.54H143.26z"/>
		<path class="st0" d="M181.25,241.89h-16.64c-3.5,0-6.48,1.41-8.95,4.24c-2.47,2.83-3.7,6.24-3.7,10.23c0,3.95,1.23,7.35,3.7,10.17
			c2.47,2.83,5.45,4.24,8.95,4.24h16.64v4.81h-16.77c-4.63-0.07-8.58-1.98-11.84-5.73c-3.26-3.75-4.89-8.25-4.89-13.5
			c0-5.28,1.63-9.8,4.89-13.55c3.26-3.75,7.21-5.66,11.84-5.73h16.77V241.89z M148.15,256.35c0-0.68,0.2-1.25,0.61-1.71
			c0.4-0.46,0.9-0.69,1.5-0.69h25.02v4.81h-25.02c-0.57,0-1.06-0.24-1.48-0.72C148.36,257.57,148.15,257,148.15,256.35"/>
		<path class="st0" d="M195.24,262.8c1.05,2.39,2.59,4.31,4.62,5.78c2.03,1.47,4.26,2.2,6.68,2.2v4.81c-3.62,0-6.87-1.18-9.76-3.55
			c-2.89-2.37-4.93-5.45-6.12-9.23h-0.72v12.78h-4.22v-38.35h9.64c3.08,0,5.71,1.25,7.89,3.76c2.18,2.5,3.27,5.51,3.27,9.02
			c0,3.54-1.1,6.56-3.3,9.05C201.05,261.55,198.38,262.8,195.24,262.8 M189.95,257.99h5.43v-0.05c1.91,0,3.56-0.78,4.93-2.33
			c1.37-1.55,2.06-3.42,2.06-5.6c0-2.18-0.68-4.05-2.04-5.6c-1.36-1.55-3.01-2.33-4.96-2.33v-0.05h-5.43V257.99z"/>
		<path class="st0" d="M244.67,241.99h-16.73c-3.11,0-5.85,1.13-8.21,3.4c-2.36,2.27-3.8,5.1-4.31,8.51h29.24v2.4
			c0,5.32-1.64,9.85-4.91,13.6c-3.27,3.75-7.23,5.64-11.86,5.67h-16.86v-4.8h16.73c3.11,0,5.84-1.15,8.21-3.45
			c2.36-2.3,3.8-5.17,4.3-8.61h-29.24v-2.3c0-5.28,1.64-9.8,4.93-13.55c3.29-3.75,7.25-5.64,11.89-5.68h16.82V241.99z"/>
		<path class="st0" d="M266.06,237.08c4.63,0,8.6,1.89,11.91,5.65c3.3,3.77,4.96,8.29,4.96,13.57v19.27h-4.22v-9.73h-25.34v9.73
			h-4.22V256.3c0-5.28,1.65-9.81,4.96-13.57C257.41,238.96,261.4,237.08,266.06,237.08 M278.71,261.04v-4.73
			c0-3.95-1.24-7.34-3.72-10.17c-2.48-2.83-5.46-4.24-8.92-4.24c-3.5,0-6.49,1.41-8.97,4.24c-2.48,2.83-3.72,6.22-3.72,10.17v4.73
			H278.71z"/>
		<path class="st0" d="M308.04,270.77v4.81h-9.42c-3.08,0-5.72-1.24-7.92-3.71c-2.2-2.47-3.3-5.48-3.3-9.02v-25.61h4.31v25.61
			c0,2.22,0.67,4.09,2.02,5.62c1.35,1.53,2.98,2.3,4.89,2.3H308.04z"/>
		<rect x="312.53" y="237.23" class="st0" width="4.22" height="38.35"/>
		<path class="st0" d="M354.91,237.23v1.74c0,5.32-1.65,9.86-4.93,13.63c-3.29,3.77-7.27,5.65-11.93,5.65c-3.2,0-5.98,1.2-8.34,3.61
			c-2.36,2.4-3.75,5.38-4.17,8.92h29.38v4.81h-33.68v-2.91c0-5.32,1.64-9.86,4.93-13.63c3.29-3.76,7.27-5.65,11.93-5.65
			c2.99,0,5.64-1.07,7.94-3.22c2.3-2.15,3.77-4.86,4.4-8.13h-29.2v-4.81H354.91z"/>
		<path class="st0" d="M376.3,237.08c4.63,0,8.6,1.89,11.91,5.65c3.3,3.77,4.96,8.29,4.96,13.57v19.27h-4.22v-9.73h-25.34v9.73
			h-4.22V256.3c0-5.28,1.65-9.81,4.96-13.57C367.65,238.96,371.64,237.08,376.3,237.08 M388.95,261.04v-4.73
			c0-3.95-1.24-7.34-3.72-10.17c-2.48-2.83-5.46-4.24-8.92-4.24c-3.5,0-6.49,1.41-8.97,4.24c-2.48,2.83-3.72,6.22-3.72,10.17v4.73
			H388.95z"/>
	</g>
	<g>
		<g>
			<defs>
				<path id="SVGID_1_" d="M189.57,283.88c-0.48,0.11-0.86,0.3-1.11,0.59l-1.36,1.68c-0.26,0.33-0.31,0.65-0.14,0.96
					c0.16,0.31,0.5,0.55,1.02,0.72c0.26,0.08,0.55,0.12,0.87,0.12c0.71,0,1.29-0.23,1.74-0.68l1.26-1.68
					c0.26-0.29,0.3-0.6,0.15-0.93c-0.16-0.33-0.5-0.58-1.02-0.74c-0.25-0.07-0.5-0.1-0.76-0.1
					C190.01,283.81,189.79,283.84,189.57,283.88"/>
			</defs>
			<use xlink:href="#SVGID_1_"  style="overflow:visible;fill:#00B4BF;"/>
			<clipPath id="SVGID_00000040539417860106254500000016346285718104485025_">
				<use xlink:href="#SVGID_1_"  style="overflow:visible;"/>
			</clipPath>
			
				<rect x="186.8" y="283.81" style="clip-path:url(#SVGID_00000040539417860106254500000016346285718104485025_);fill:#00B4BF;" width="5.36" height="4.14"/>
		</g>
		<g>
			<defs>
				<path id="SVGID_00000085218137674448129370000011216350116050646190_" d="M289.63,321.13c-0.26-0.5,0.29-1.6,1.65-3.29
					c1.36-1.7,4.17-3.87,8.43-6.53c-0.13,1.86-0.58,3.48-1.36,4.85c-1.42,1.99-3.01,3.35-4.75,4.07c-1.49,0.62-2.67,0.93-3.55,0.93
					C289.9,321.16,289.76,321.15,289.63,321.13 M245.05,309.11c-0.06-0.52,0.16-1.36,0.68-2.52c1.23-2.49,3.17-4.86,5.81-7.11
					c2.65-2.26,5.43-3.64,8.34-4.13c2.26-0.29,4.33,0.27,6.2,1.68c0.13,0.08,0.26,0.17,0.39,0.25c-3.29,2.73-6.82,5.32-10.56,7.77
					c-1.62,1.04-3.01,1.87-4.17,2.52c-1.16,0.64-2.15,1.13-2.95,1.46c-0.81,0.33-1.47,0.57-1.99,0.71c-0.52,0.14-1,0.22-1.46,0.22
					C245.21,309.91,245.12,309.63,245.05,309.11 M100.44,289.03c-1.83,0.77-1.39,2.68-1.39,2.68c0.32,2.44,0.79,4.37,1.41,5.78
					c0.61,1.41,1.34,2.57,2.18,3.48c0.64,0.7,1.34,1.18,2.08,1.43c0.74,0.25,1.44,0.39,2.08,0.43c2.2,0.21,5.09-0.55,8.67-2.27
					c1.97-0.94,4.32-2.27,7.04-3.95c-1.14,1.75-2.38,3.64-3.73,5.7c-2.26,3.48-4,6.24-5.23,8.26c-0.71,1.24-1.23,2.2-1.55,2.86
					c-0.32,0.5-0.5,0.97-0.53,1.43c-0.03,0.46,0.27,0.85,0.92,1.18c0.32,0.12,0.68,0.18,1.07,0.18c0.58,0,1.16-0.18,1.74-0.56
					c1.49-1.2,4.07-3.69,7.75-7.46c2.07-2.15,4.17-4.28,6.3-6.37c2.13-2.09,4.01-3.82,5.62-5.19c1.81-1.45,3.13-2.3,3.97-2.55
					c-1.94,3.02-3.46,5.54-4.55,7.55c-1.1,2.01-1.88,3.62-2.33,4.85c-0.45,1.22-0.7,2.15-0.73,2.8c-0.03,0.64,0.06,1.1,0.29,1.37
					c0.23,0.27,0.44,0.44,0.63,0.53c0.26,0.17,0.66,0.3,1.21,0.4c0.55,0.1,1.24,0.03,2.08-0.22c2.2-0.83,5.23-3.31,9.11-7.46
					c1.03-0.99,2.12-2.04,3.25-3.14c1.13-1.1,2.12-1.96,2.96-2.58c0.32,2.44,0.79,4.37,1.4,5.78c0.61,1.41,1.34,2.57,2.18,3.48
					c0.65,0.7,1.34,1.18,2.08,1.43c0.74,0.25,1.44,0.39,2.08,0.43c2.2,0.21,5.09-0.55,8.67-2.27c2.12-1.02,4.7-2.48,7.69-4.36
					c-0.41,0.7-0.77,1.36-1.05,1.97c-0.26,0.46-0.5,1.09-0.73,1.89c-0.23,0.81-0.26,1.64-0.1,2.49c0.16,0.85,0.76,1.56,1.79,2.14
					c0.84,0.37,1.84,0.56,3,0.56c2.71-0.08,5.91-0.91,9.59-2.49c3.68-1.57,7.28-3.38,10.81-5.4c0.78-0.45,1.52-0.89,2.25-1.31
					l-8.21,12.06c-0.19,0.33-0.21,0.64-0.05,0.93c0.16,0.29,0.47,0.52,0.92,0.68c0.32,0.08,0.61,0.12,0.87,0.12
					c0.65,0,1.2-0.21,1.65-0.62c0.13-0.08,0.82-0.8,2.08-2.14c1.26-1.35,2.86-2.97,4.8-4.88c1.94-1.9,3.94-3.76,6.01-5.56
					c2.07-1.8,3.91-3.2,5.52-4.19c2.2-1.28,3.86-2.13,4.99-2.55c1.13-0.41,1.83-0.62,2.08-0.62c0.06,0.04,0.1,0.12,0.1,0.25
					c0,0.25-0.04,0.56-0.1,0.93v0.06c-0.13,1.58-0.03,3.4,0.29,5.47c0.32,2.07,1.48,3.69,3.49,4.85c0.58,0.33,1.4,0.59,2.47,0.78
					c1.07,0.19,2.37,0.18,3.93-0.03c3.36-0.62,6.62-1.66,9.79-3.11c0.68-0.31,1.33-0.62,1.96-0.93c-1.08,1.71-1.72,3.3-1.86,4.78
					c0,1.12,0.29,1.93,0.87,2.45c0.58,0.52,1.13,0.84,1.65,0.96c0.52,0.12,1.1,0.19,1.74,0.19c2.97,0.04,7.4-1.82,13.27-5.59
					c3.62-2.4,7.04-4.93,10.27-7.58c-1.1,3.07-1.29,5.37-0.58,6.9c0.71,1.53,1.81,2.53,3.29,2.98c1.1,0.45,2.39,0.68,3.88,0.68
					c6.58-0.23,14.2-3.46,22.87-9.68c0.15,0.63,0.31,1.33,0.49,2.13c0.39,1.76,0.64,3.66,0.77,5.68c-0.58,0.33-1.13,0.66-1.65,0.99
					c-4.97,2.94-8.37,5.5-10.18,7.67c-1.81,2.18-2.52,3.84-2.13,5c0.32,0.91,1.07,1.51,2.23,1.8c0.58,0.12,1.23,0.19,1.94,0.19
					c1.88,0,3.96-0.52,6.25-1.55c2.29-1.04,4.22-2.69,5.77-4.97c1.29-2.28,1.87-4.95,1.74-8.02c5.62-3.02,10.67-5.52,15.17-7.49
					c4.49-1.97,6.9-2.99,7.22-3.08c0.45-0.21,0.74-0.47,0.87-0.78c0.13-0.31,0.06-0.63-0.19-0.96c-0.33-0.29-0.74-0.47-1.26-0.53
					c-0.52-0.06-1-0.01-1.46,0.15c-0.26,0.08-2.42,1.01-6.49,2.77c-4.07,1.76-8.79,4.03-14.15,6.8c-0.45-3.44-1-6.15-1.65-8.14
					c-0.2-0.79-0.07-1.48,0.39-2.08c0.45-0.6,1.05-1.11,1.79-1.52c0.74-0.42,1.42-0.73,2.04-0.93c0.61-0.21,0.98-0.33,1.11-0.37
					c0.51-0.12,0.87-0.34,1.07-0.65c0.19-0.31,0.19-0.63,0-0.96c-0.19-0.29-0.53-0.51-1.02-0.65c-0.49-0.14-0.99-0.15-1.5-0.03
					c-1.81,0.42-3.65,1.27-5.52,2.58c-1.41,0.98-2.16,2.19-2.25,3.61c-5.22,4.01-10.04,6.89-14.47,8.63
					c-4.49,1.76-7.7,2.29-9.64,1.58c-1.36-0.46-1.96-1.82-1.79-4.1c0.16-2.28,1.7-5.68,4.6-10.19c0.19-0.29,0.22-0.58,0.1-0.87
					c-0.13-0.29-0.42-0.52-0.87-0.68c-0.45-0.17-0.92-0.22-1.4-0.16c-0.48,0.06-0.86,0.24-1.11,0.53c-0.06,0-0.48,0.35-1.26,1.05
					c-0.77,0.7-1.81,1.6-3.1,2.67c-2.07-1.41-4.07-2.21-6.01-2.39c-1.94-0.19-3.65-0.09-5.14,0.28c-2.82,0.74-5.38,1.94-7.7,3.57
					c-0.11,0.05-0.23,0.09-0.34,0.15c-0.07,0.04-0.68,0.45-1.84,1.21c-1.16,0.77-2.7,1.67-4.6,2.7c-1.91,1.04-3.99,2.01-6.25,2.92
					c-2.26,0.91-4.46,1.55-6.59,1.93c-0.71,0.12-1.28,0.17-1.7,0.12c-0.42-0.04-0.74-0.1-0.97-0.19c-0.23-0.08-0.37-0.14-0.44-0.19
					c-1.29-0.79-2.03-2.07-2.23-3.85c-0.19-1.78-0.23-3.27-0.1-4.47c0.06-0.41,0.1-0.76,0.1-1.05c0-0.87-0.26-1.49-0.77-1.86
					c-0.52-0.37-1-0.62-1.45-0.74c-0.52-0.16-1.23-0.22-2.13-0.16c-0.9,0.06-2.1,0.37-3.58,0.93c-1.49,0.56-3.39,1.54-5.72,2.95
					c-1.94,1.16-4.07,2.78-6.4,4.85l6.98-10.31c0.26-0.33,0.29-0.65,0.1-0.96c-0.19-0.31-0.55-0.53-1.07-0.65
					c-0.52-0.12-1.02-0.12-1.5,0c-0.48,0.12-0.82,0.33-1.02,0.62l-4.07,5.98c-0.13,0.05-0.27,0.1-0.39,0.17
					c-6.72,4.35-12.73,7.68-18.02,10c-1.03,0.46-1.95,0.83-2.76,1.12c-0.81,0.29-1.52,0.53-2.13,0.71c-0.62,0.19-1.15,0.32-1.6,0.4
					c-0.45,0.08-0.84,0.14-1.16,0.16c-0.32,0.02-0.57,0.03-0.73,0.03c-0.16,0-0.34-0.02-0.53-0.06c-0.06-0.12-0.13-0.24-0.19-0.34
					c-0.06-0.1-0.11-0.25-0.14-0.43c-0.03-0.19-0.03-0.43,0-0.75c0.03-0.31,0.13-0.68,0.29-1.12c0.16-0.43,0.39-0.95,0.68-1.55
					c0.29-0.6,0.66-1.27,1.11-2.02c0.45-0.74,1.02-1.59,1.7-2.55c0.68-0.95,1.48-2.02,2.42-3.2c0.94-1.18,2.02-2.45,3.25-3.82
					c0.26-0.33,0.31-0.65,0.15-0.96c-0.16-0.31-0.47-0.57-0.92-0.78c-0.45-0.17-0.94-0.2-1.45-0.09c-0.52,0.1-0.9,0.3-1.16,0.59
					c-1.27,1.45-2.4,2.81-3.43,4.1c-0.19,0.07-0.38,0.14-0.55,0.25c-1.42,0.95-3.41,2.26-5.96,3.91c-2.55,1.66-5.14,3.15-7.75,4.47
					c-2.62,1.33-4.67,1.99-6.15,1.99c-0.19-0.04-0.39-0.1-0.58-0.19c-0.19-0.08-0.42-0.25-0.68-0.5c-0.71-0.78-1.34-1.8-1.89-3.04
					c-0.55-1.24-0.96-2.98-1.21-5.22c0-0.21-0.05-0.5-0.14-0.87c-0.1-0.37-0.32-0.73-0.68-1.09c-0.35-0.35-0.92-0.61-1.7-0.78
					c-1.36-0.21-2.86,0.3-4.51,1.52c-1.65,1.22-3.73,3.16-6.25,5.81c-0.97,0.99-2.01,2.01-3.1,3.04c-1.1,1.04-2.1,1.91-3,2.61
					c0.71-2.4,3.1-6.81,7.17-13.23c0.9-1.57,0.55-2.71-1.07-3.42c-0.84-0.37-2.04-0.36-3.59,0.03c-1.55,0.39-3.52,1.57-5.91,3.51
					c-3.23,2.82-6.92,6.34-11.05,10.56c2.81-4.43,5.91-9.12,9.29-14.07c0.28-0.22,0.42-0.48,0.39-0.76
					c-0.03-0.33-0.24-0.62-0.63-0.87c-0.39-0.25-0.84-0.36-1.36-0.34c-0.25,0.01-0.47,0.05-0.69,0.11
					c-0.06,0.01-0.12,0.01-0.17,0.02c-0.38,0.1-0.65,0.28-0.85,0.51c-1.39,0.93-3.24,2.15-5.6,3.68c-2.55,1.66-5.14,3.15-7.75,4.47
					c-2.62,1.32-4.67,1.99-6.15,1.99c-0.19-0.04-0.39-0.1-0.58-0.19c-0.19-0.08-0.42-0.25-0.68-0.5c-0.71-0.79-1.34-1.8-1.89-3.04
					c-0.55-1.24-0.95-2.98-1.21-5.22c0-0.21-0.05-0.5-0.15-0.87c-0.1-0.37-0.32-0.73-0.68-1.09c-0.27-0.27-0.66-0.56-1.17-0.56
					C100.78,288.93,100.62,288.96,100.44,289.03"/>
			</defs>
			<use xlink:href="#SVGID_00000085218137674448129370000011216350116050646190_"  style="overflow:visible;fill:#00B4BF;"/>
			<clipPath id="SVGID_00000078020677897255006050000001359926731369111964_">
				<use xlink:href="#SVGID_00000085218137674448129370000011216350116050646190_"  style="overflow:visible;"/>
			</clipPath>
			
				<rect x="98.62" y="288.93" style="clip-path:url(#SVGID_00000078020677897255006050000001359926731369111964_);fill:#00B4BF;" width="228.45" height="34.68"/>
		</g>
	</g>
</g>
</svg>
