<?xml version="1.0" encoding="utf-8"?>
<!-- Generator: Adobe Illustrator 27.0.1, SVG Export Plug-In . SVG Version: 6.00 Build 0)  -->
<svg version="1.1" id="Layer_1" xmlns="http://www.w3.org/2000/svg" xmlns:xlink="http://www.w3.org/1999/xlink" x="0px" y="0px"
	 viewBox="0 0 505.4 149.3" style="enable-background:new 0 0 505.4 149.3;" xml:space="preserve">
<style type="text/css">
	.st0{fill:#21409A;}
	.st1{fill:#2A3B91;}
	.st2{fill:#2A3C91;}
	.st3{fill:#2A3C92;}
	.st4{fill:#2A3D92;}
	.st5{fill:#2A3E93;}
	.st6{fill:#2A3F93;}
	.st7{fill:#2A4093;}
	.st8{fill:#294094;}
	.st9{fill:#294194;}
	.st10{fill:#294295;}
	.st11{fill:#294395;}
	.st12{fill:#294496;}
	.st13{fill:#294596;}
	.st14{fill:#294597;}
	.st15{fill:#294697;}
	.st16{fill:#294798;}
	.st17{fill:#294898;}
	.st18{fill:#294999;}
	.st19{fill:#294A99;}
	.st20{fill:#294A9A;}
	.st21{fill:#294B9A;}
	.st22{fill:#294C9B;}
	.st23{fill:#294D9B;}
	.st24{fill:#294E9C;}
	.st25{fill:#294F9C;}
	.st26{fill:#294F9D;}
	.st27{fill:#29509D;}
	.st28{fill:#29519E;}
	.st29{fill:#29529E;}
	.st30{fill:#29539F;}
	.st31{fill:#29549F;}
	.st32{fill:#2954A0;}
	.st33{fill:#2955A0;}
	.st34{fill:#2956A1;}
	.st35{fill:#2957A2;}
	.st36{fill:#2958A2;}
	.st37{fill:#2959A3;}
	.st38{fill:#295AA3;}
	.st39{fill:#295AA4;}
	.st40{fill:#295BA4;}
	.st41{fill:#295CA5;}
	.st42{fill:#295DA6;}
	.st43{fill:#295EA6;}
	.st44{fill:#295EA7;}
	.st45{fill:#295FA7;}
	.st46{fill:#2960A8;}
	.st47{fill:#2961A8;}
	.st48{fill:#2961A9;}
	.st49{fill:#2962A9;}
	.st50{fill:#2963AA;}
	.st51{fill:#2964AA;}
	.st52{fill:#2964AB;}
	.st53{fill:#2965AB;}
	.st54{fill:#2965AC;}
	.st55{fill:#2966AC;}
	.st56{fill:#2967AD;}
	.st57{fill:#2A67AD;}
	.st58{fill:#2A68AD;}
	.st59{fill:#2A68AE;}
	.st60{fill:#2A69AE;}
	.st61{fill:#2A69AF;}
	.st62{fill:#2A6AAF;}
	.st63{fill:#2A6BB0;}
	.st64{fill:#2A6CB0;}
	.st65{fill:#2A6CB1;}
	.st66{fill:#2A6DB1;}
	.st67{fill:#2A6DB2;}
	.st68{fill:#2A6EB2;}
	.st69{fill:#2A6FB3;}
	.st70{fill:#2A70B3;}
	.st71{fill:#2A70B4;}
	.st72{fill:#2A71B4;}
	.st73{fill:#2A72B5;}
	.st74{fill:#2A73B5;}
	.st75{fill:#2A73B6;}
	.st76{fill:#2A74B6;}
	.st77{fill:#2A74B7;}
	.st78{fill:#2A75B7;}
	.st79{fill:#2A76B8;}
	.st80{fill:#2A77B8;}
	.st81{fill:#2A77B9;}
	.st82{fill:#2A78B9;}
	.st83{fill:#2A78BA;}
	.st84{fill:#2B79BA;}
	.st85{fill:#2B79BB;}
	.st86{fill:#2B7ABB;}
	.st87{fill:#2B7BBB;}
	.st88{fill:#2B7BBC;}
	.st89{fill:#2B7CBC;}
	.st90{fill:#2B7CBD;}
	.st91{fill:#2B7DBD;}
	.st92{fill:#2B7EBE;}
	.st93{fill:#2B7FBF;}
	.st94{fill:#2B80BF;}
	.st95{fill:#2B80C0;}
	.st96{fill:#2B81C0;}
	.st97{fill:#2B81C1;}
	.st98{fill:#2A82C1;}
	.st99{fill:#2A83C2;}
	.st100{fill:#2A84C3;}
	.st101{fill:#2A85C3;}
	.st102{fill:#2A85C4;}
	.st103{fill:#2A86C4;}
	.st104{fill:#2A87C5;}
	.st105{fill:#2A88C6;}
	.st106{fill:#2A89C6;}
	.st107{fill:#2A89C7;}
	.st108{fill:#2A8AC7;}
	.st109{fill:#2A8AC8;}
	.st110{fill:#2A8BC8;}
	.st111{fill:#2A8CC9;}
	.st112{fill:#2A8DCA;}
	.st113{fill:#2A8ECA;}
	.st114{fill:#2A8ECB;}
	.st115{fill:#2A8FCB;}
	.st116{fill:#2990CC;}
	.st117{fill:#2991CD;}
	.st118{fill:#2992CE;}
	.st119{fill:#2993CE;}
	.st120{fill:#2993CF;}
	.st121{fill:#2994CF;}
	.st122{fill:#2994D0;}
	.st123{fill:#2995D0;}
	.st124{fill:#2996D1;}
	.st125{fill:#2997D2;}
	.st126{fill:#2998D3;}
	.st127{fill:#2899D3;}
	.st128{fill:#2899D4;}
	.st129{fill:#289AD4;}
	.st130{fill:#289BD5;}
	.st131{fill:#289CD6;}
	.st132{fill:#289DD7;}
	.st133{fill:#289ED7;}
	.st134{fill:#289ED8;}
	.st135{fill:#289FD8;}
	.st136{fill:#289FD9;}
	.st137{fill:#28A0D9;}
	.st138{fill:#28A1DA;}
	.st139{fill:#28A2DB;}
	.st140{fill:#28A3DC;}
	.st141{fill:#28A4DC;}
	.st142{fill:#28A4DD;}
	.st143{fill:#28A5DD;}
	.st144{fill:#28A6DE;}
	.st145{fill:#28A7DF;}
	.st146{fill:url(#SVGID_1_);}
	.st147{fill:url(#SVGID_00000058547475030017715570000005066283469543356091_);}
	.st148{fill:url(#SVGID_00000107579604801957441950000009111001639605627555_);}
	.st149{clip-path:url(#SVGID_00000128476488624715546500000009893892256264623787_);fill:#21409A;}
	.st150{clip-path:url(#SVGID_00000129179482207254795130000017324200491357426586_);fill:#21409A;}
</style>
<g>
	<g>
		<g>
			<path class="st0" d="M48,145.7c-13.8-4.5-25.7-12.5-34.3-23.1C4.8,111.7,0,98.8,0,85.5l0.1-34.6c0-8.7,5.6-16.6,14.6-20.5l4.4-2
				l-0.1,58.4c0,1.1,0.1,2.2,0.2,3.3c0.8,11.5,5.1,22.8,12.2,32.7c5.9,8.2,13.8,15.3,23,20.7C52.4,144.2,50.2,145,48,145.7z"/>
			<path class="st0" d="M74.4,145.7c-2.1-0.7-4.2-1.5-6.3-2.4c9.2-5.4,17.1-12.5,23.1-20.8c7.2-9.9,11.4-21.2,12.2-32.8
				c0.2-1,0.2-2.1,0.2-3.2V22.7c0-8.7,5.6-16.5,14.6-20.5l4.5-2.2v85.3c0,13.4-4.8,26.3-13.8,37.3
				C100.3,133.2,88.1,141.4,74.4,145.7z"/>
			<path class="st1" d="M2.5,89.2C2.5,89.2,2.5,89.3,2.5,89.2c0,0.1,0.1,0,0.1,0H2.5z"/>
			<path class="st2" d="M3.2,88.9H2.5c0,0.1,0,0.2,0,0.3h0.1C2.8,89.1,3,89,3.2,88.9z"/>
			<path class="st3" d="M3.8,88.6H2.5c0,0.1,0,0.2,0,0.3h0.7C3.4,88.8,3.6,88.7,3.8,88.6z"/>
			<path class="st4" d="M4.4,88.3H2.4c0,0.1,0,0.2,0,0.3h1.3C4,88.5,4.2,88.4,4.4,88.3z"/>
			<path class="st4" d="M4.9,88H2.4c0,0.1,0,0.2,0,0.3h1.9C4.5,88.2,4.7,88.1,4.9,88z"/>
			<path class="st5" d="M5.5,87.7H2.4c0,0.1,0,0.2,0,0.3h2.5C5.1,87.9,5.3,87.8,5.5,87.7z"/>
			<path class="st5" d="M6.1,87.4H2.4c0,0.1,0,0.2,0,0.3h3.1C5.7,87.6,5.9,87.5,6.1,87.4z"/>
			<path class="st6" d="M6.7,87.1H2.4c0,0.1,0,0.2,0,0.3h3.7C6.3,87.3,6.5,87.2,6.7,87.1z"/>
			<path class="st7" d="M7.3,86.8h-5c0,0.1,0,0.2,0,0.3h4.3C6.9,87,7.1,86.9,7.3,86.8z"/>
			<path class="st8" d="M8,86.5H2.4c0,0.1,0,0.2,0,0.3h5C7.5,86.7,7.8,86.6,8,86.5z"/>
			<path class="st9" d="M8.6,86.2H2.4c0,0.1,0,0.2,0,0.3H8C8.2,86.4,8.4,86.3,8.6,86.2z"/>
			<path class="st9" d="M9.2,85.9H2.4c0,0.1,0,0.2,0,0.3h6.2C8.8,86.1,9,86,9.2,85.9z"/>
			<path class="st10" d="M9.9,85.6H2.3c0,0.1,0,0.2,0,0.3h6.9C9.4,85.8,9.6,85.7,9.9,85.6z"/>
			<path class="st10" d="M10.5,85.4H2.4v0.1c0,0.1,0,0.1,0,0.1h7.5C10.1,85.5,10.3,85.4,10.5,85.4z"/>
			<path class="st11" d="M11.2,85.1H2.4v0.3h8.2C10.8,85.3,11,85.2,11.2,85.1z"/>
			<path class="st12" d="M11.9,84.8H2.4v0.3h8.9C11.4,85,11.7,84.9,11.9,84.8z"/>
			<path class="st12" d="M12.6,84.5H2.4v0.3h9.5C12.1,84.7,12.3,84.6,12.6,84.5z"/>
			<path class="st13" d="M13.3,84.2H2.4v0.3h10.2C12.8,84.4,13,84.3,13.3,84.2z"/>
			<path class="st14" d="M14,83.9H2.4v0.3h10.9C13.5,84.1,13.7,84,14,83.9z"/>
			<path class="st15" d="M14.7,83.6H2.4v0.3H14C14.2,83.8,14.5,83.7,14.7,83.6z"/>
			<path class="st15" d="M15.4,83.3H2.4v0.3h12.3C14.9,83.5,15.2,83.4,15.4,83.3z"/>
			<path class="st16" d="M16.2,83H2.4v0.3h13.1C15.7,83.2,15.9,83.1,16.2,83z"/>
			<path class="st17" d="M16.7,82.7L16.7,82.7L2.4,82.7V83h13.8C16.3,82.9,16.5,82.8,16.7,82.7z"/>
			<polygon class="st17" points="16.7,82.4 2.4,82.4 2.4,82.7 16.7,82.7 			"/>
			<polygon class="st18" points="16.7,82.1 2.4,82.1 2.4,82.4 16.7,82.4 			"/>
			<polygon class="st18" points="16.7,81.8 2.4,81.8 2.4,82.1 16.7,82.1 			"/>
			<polygon class="st19" points="16.7,81.5 2.4,81.5 2.4,81.8 16.7,81.8 			"/>
			<polygon class="st20" points="16.7,81.2 2.4,81.2 2.4,81.5 16.7,81.5 			"/>
			<polygon class="st21" points="16.7,80.9 2.4,80.9 2.4,81.2 16.7,81.2 			"/>
			<polygon class="st21" points="16.7,80.6 2.4,80.6 2.4,80.9 16.7,80.9 			"/>
			<polygon class="st22" points="16.7,80.3 2.4,80.3 2.4,80.6 16.7,80.6 			"/>
			<polygon class="st23" points="16.7,80 2.4,80 2.4,80.3 16.7,80.3 			"/>
			<polygon class="st23" points="16.7,79.7 2.4,79.7 2.4,80 16.7,80 			"/>
			<polygon class="st24" points="16.7,79.4 2.4,79.4 2.4,79.7 16.7,79.7 			"/>
			<polygon class="st24" points="16.7,79.1 2.4,79.1 2.4,79.4 16.7,79.4 			"/>
			<polygon class="st25" points="16.7,78.8 2.4,78.8 2.4,79.1 16.7,79.1 			"/>
			<polygon class="st26" points="16.7,78.5 2.4,78.5 2.4,78.8 16.7,78.8 			"/>
			<polygon class="st27" points="16.7,78.2 2.4,78.2 2.4,78.5 16.7,78.5 			"/>
			<polygon class="st27" points="16.7,77.9 2.4,77.9 2.4,78.2 16.7,78.2 			"/>
			<polygon class="st28" points="16.7,77.6 2.4,77.6 2.4,77.9 16.7,77.9 			"/>
			<polygon class="st28" points="16.7,77.3 2.4,77.3 2.4,77.6 16.7,77.6 			"/>
			<rect x="2.4" y="77" class="st29" width="14.4" height="0.3"/>
			<polygon class="st30" points="16.7,76.7 2.4,76.7 2.4,77 16.7,77 			"/>
			<polygon class="st30" points="16.7,76.4 2.4,76.4 2.4,76.7 16.7,76.7 			"/>
			<polygon class="st31" points="16.7,76.2 2.4,76.2 2.4,76.4 16.7,76.4 			"/>
			<polygon class="st32" points="16.7,75.9 2.4,75.9 2.4,76.2 16.7,76.2 			"/>
			<polygon class="st33" points="16.7,75.6 2.4,75.6 2.4,75.9 16.7,75.9 			"/>
			<polygon class="st33" points="16.7,75.3 2.4,75.3 2.4,75.6 16.7,75.6 			"/>
			<polygon class="st34" points="16.7,75 2.4,75 2.4,75.3 16.7,75.3 			"/>
			<polygon class="st34" points="16.7,74.7 2.4,74.7 2.4,75 16.7,75 			"/>
			<polygon class="st35" points="16.7,74.4 2.4,74.4 2.4,74.7 16.7,74.7 			"/>
			<polygon class="st35" points="16.7,74.1 2.4,74.1 2.4,74.4 16.7,74.4 			"/>
			<polygon class="st36" points="16.7,73.8 2.4,73.8 2.4,74.1 16.7,74.1 			"/>
			<rect x="2.4" y="73.5" class="st37" width="14.4" height="0.3"/>
			<polygon class="st37" points="16.7,73.2 2.4,73.2 2.4,73.5 16.7,73.5 			"/>
			<polygon class="st38" points="16.7,72.9 2.4,72.9 2.4,73.2 16.7,73.2 			"/>
			<polygon class="st39" points="16.7,72.6 2.4,72.6 2.4,72.9 16.7,72.9 			"/>
			<polygon class="st40" points="16.7,72.3 2.4,72.3 2.4,72.6 16.7,72.6 			"/>
			<polygon class="st40" points="16.7,72 2.4,72 2.4,72.3 16.7,72.3 			"/>
			<polygon class="st41" points="16.7,71.7 2.4,71.7 2.4,72 16.7,72 			"/>
			<polygon class="st41" points="16.7,71.4 2.4,71.4 2.4,71.7 16.7,71.7 			"/>
			<polygon class="st42" points="16.7,71.1 2.4,71.1 2.4,71.4 16.7,71.4 			"/>
			<polygon class="st42" points="16.7,70.8 2.4,70.8 2.4,71.1 16.7,71.1 			"/>
			<polygon class="st43" points="16.7,70.5 2.4,70.5 2.4,70.8 16.7,70.8 			"/>
			<polygon class="st44" points="16.7,70.2 2.4,70.2 2.4,70.5 16.7,70.5 			"/>
			<polygon class="st45" points="16.7,69.9 2.4,69.9 2.4,70.2 16.7,70.2 			"/>
			<polygon class="st45" points="16.7,69.6 2.4,69.6 2.4,69.9 16.7,69.9 			"/>
			<polygon class="st46" points="16.7,69.3 2.4,69.3 2.4,69.6 16.7,69.6 			"/>
			<polygon class="st46" points="16.7,69 2.4,69 2.4,69.3 16.7,69.3 			"/>
			<polygon class="st47" points="16.7,68.7 2.4,68.7 2.4,69 16.7,69 			"/>
			<polygon class="st48" points="16.7,68.4 2.4,68.4 2.4,68.7 16.7,68.7 			"/>
			<polygon class="st49" points="16.7,68.1 2.4,68.1 2.4,68.4 16.7,68.4 			"/>
			<polygon class="st49" points="16.7,67.8 2.4,67.8 2.4,68.1 16.7,68.1 			"/>
			<polygon class="st50" points="16.7,67.5 2.4,67.5 2.4,67.8 16.7,67.8 			"/>
			<polygon class="st50" points="16.7,67.2 2.4,67.2 2.4,67.5 16.7,67.5 			"/>
			<rect x="2.4" y="67" class="st51" width="14.3" height="0.3"/>
			<polygon class="st52" points="16.7,66.7 2.4,66.7 2.4,67 16.7,67 			"/>
			<polygon class="st53" points="16.7,66.4 2.4,66.4 2.4,66.7 16.7,66.7 			"/>
			<polygon class="st54" points="16.7,66.1 2.4,66.1 2.4,66.4 16.7,66.4 			"/>
			<polygon class="st55" points="16.7,65.8 2.4,65.8 2.4,66.1 16.7,66.1 			"/>
			<polygon class="st55" points="16.7,65.5 2.4,65.5 2.4,65.8 16.7,65.8 			"/>
			<polygon class="st56" points="16.7,65.2 2.4,65.2 2.4,65.5 16.7,65.5 			"/>
			<polygon class="st57" points="16.7,64.9 2.4,64.9 2.4,65.2 16.7,65.2 			"/>
			<polygon class="st58" points="16.7,64.6 2.4,64.6 2.4,64.9 16.7,64.9 			"/>
			<polygon class="st59" points="16.7,64.3 2.4,64.3 2.4,64.6 16.7,64.6 			"/>
			<polygon class="st60" points="16.7,64 2.4,64 2.4,64.3 16.7,64.3 			"/>
			<polygon class="st61" points="16.7,63.7 2.4,63.7 2.4,64 16.7,64 			"/>
			<rect x="2.4" y="63.4" class="st62" width="14.3" height="0.3"/>
			<polygon class="st62" points="16.7,63.1 2.4,63.1 2.4,63.4 16.7,63.4 			"/>
			<polygon class="st63" points="16.7,62.8 2.4,62.8 2.4,63.1 16.7,63.1 			"/>
			<polygon class="st63" points="16.7,62.5 2.4,62.5 2.4,62.8 16.7,62.8 			"/>
			<polygon class="st64" points="16.7,62.2 2.4,62.2 2.4,62.5 16.7,62.5 			"/>
			<polygon class="st65" points="16.7,61.9 2.4,61.9 2.4,62.2 16.7,62.2 			"/>
			<polygon class="st66" points="16.7,61.6 2.4,61.6 2.4,61.9 16.7,61.9 			"/>
			<polygon class="st67" points="16.7,61.3 2.4,61.3 2.4,61.6 16.7,61.6 			"/>
			<polygon class="st68" points="16.7,61 2.4,61 2.4,61.3 16.7,61.3 			"/>
			<polygon class="st68" points="16.7,60.7 2.4,60.7 2.4,61 16.7,61 			"/>
			<polygon class="st69" points="16.7,60.4 2.4,60.4 2.4,60.7 16.7,60.7 			"/>
			<polygon class="st69" points="16.7,60.1 2.4,60.1 2.4,60.4 16.7,60.4 			"/>
			<polygon class="st70" points="16.7,59.8 2.4,59.8 2.4,60.1 16.7,60.1 			"/>
			<polygon class="st71" points="16.7,59.5 2.4,59.5 2.4,59.8 16.7,59.8 			"/>
			<polygon class="st72" points="16.7,59.2 2.4,59.2 2.4,59.5 16.7,59.5 			"/>
			<polygon class="st73" points="16.7,58.9 2.4,58.9 2.4,59.2 16.7,59.2 			"/>
			<polygon class="st73" points="16.7,58.6 2.4,58.6 2.4,58.9 16.7,58.9 			"/>
			<polygon class="st74" points="16.7,58.3 2.4,58.3 2.4,58.6 16.7,58.6 			"/>
			<polygon class="st75" points="16.7,58 2.4,58 2.4,58.3 16.7,58.3 			"/>
			<polygon class="st76" points="16.7,57.8 2.4,57.8 2.4,58 16.7,58 			"/>
			<polygon class="st77" points="16.8,57.5 2.4,57.5 2.4,57.8 16.7,57.8 			"/>
			<polygon class="st78" points="16.8,57.2 2.4,57.2 2.4,57.5 16.8,57.5 			"/>
			<rect x="2.4" y="56.9" class="st78" width="14.3" height="0.3"/>
			<polygon class="st79" points="16.8,56.6 2.4,56.6 2.4,56.9 16.8,56.9 			"/>
			<polygon class="st79" points="16.8,56.3 2.4,56.3 2.4,56.6 16.8,56.6 			"/>
			<polygon class="st80" points="16.8,56 2.4,56 2.4,56.3 16.8,56.3 			"/>
			<polygon class="st81" points="16.8,55.7 2.4,55.7 2.4,56 16.8,56 			"/>
			<polygon class="st82" points="16.8,55.4 2.4,55.4 2.4,55.7 16.8,55.7 			"/>
			<polygon class="st83" points="16.8,55.1 2.4,55.1 2.4,55.4 16.8,55.4 			"/>
			<polygon class="st84" points="16.8,54.8 2.4,54.8 2.4,55.1 16.8,55.1 			"/>
			<polygon class="st85" points="16.8,54.5 2.4,54.5 2.4,54.8 16.8,54.8 			"/>
			<polygon class="st86" points="16.8,54.2 2.4,54.2 2.4,54.5 16.8,54.5 			"/>
			<polygon class="st87" points="16.8,53.9 2.4,53.9 2.4,54.2 16.8,54.2 			"/>
			<polygon class="st88" points="16.8,53.6 2.4,53.6 2.4,53.9 16.8,53.9 			"/>
			<polygon class="st89" points="16.8,53.3 2.4,53.3 2.4,53.6 16.8,53.6 			"/>
			<rect x="2.4" y="53" class="st90" width="14.3" height="0.3"/>
			<polygon class="st91" points="16.8,52.7 2.4,52.7 2.4,53 16.8,53 			"/>
			<polygon class="st91" points="16.8,52.4 2.4,52.4 2.4,52.7 16.8,52.7 			"/>
			<polygon class="st92" points="16.8,52.1 2.4,52.1 2.4,52.4 16.8,52.4 			"/>
			<polygon class="st92" points="16.8,51.8 2.4,51.8 2.4,52.1 16.8,52.1 			"/>
			<polygon class="st93" points="16.8,51.5 2.4,51.5 2.4,51.8 16.8,51.8 			"/>
			<polygon class="st94" points="16.8,51.2 2.4,51.2 2.4,51.5 16.8,51.5 			"/>
			<polygon class="st95" points="16.8,50.9 2.4,50.9 2.4,51.2 16.8,51.2 			"/>
			<path class="st96" d="M16.8,50.6H2.4c0,0.1,0,0.2,0,0.2v0.1h14.3L16.8,50.6z"/>
			<path class="st97" d="M16.8,50.3H2.5c0,0.1,0,0.2,0,0.3h14.3L16.8,50.3z"/>
			<path class="st98" d="M16.8,50H2.5c0,0.1,0,0.2,0,0.3h14.3V50z"/>
			<path class="st98" d="M16.8,49.7H2.5c0,0.1,0,0.2,0,0.3h14.3V49.7z"/>
			<path class="st99" d="M16.8,49.4H2.5c0,0.1,0,0.2,0,0.3h14.3L16.8,49.4z"/>
			<path class="st99" d="M16.8,49.1H2.5c0,0.1,0,0.2,0,0.3h14.3L16.8,49.1z"/>
			<path class="st100" d="M16.8,48.8H2.6c0,0.1,0,0.2,0,0.3h14.2L16.8,48.8z"/>
			<path class="st101" d="M16.8,48.6H2.6c0,0.1,0,0.2,0,0.3h14.2L16.8,48.6z"/>
			<path class="st102" d="M16.8,48.3H2.6c0,0.1,0,0.2,0,0.3h14.2L16.8,48.3z"/>
			<path class="st103" d="M16.8,48H2.7c0,0.1,0,0.2,0,0.3h14.1V48z"/>
			<path class="st103" d="M16.8,47.7h-14c0,0.1,0,0.2-0.1,0.3h14.1V47.7z"/>
			<path class="st104" d="M16.8,47.4h-14c0,0.1,0,0.2-0.1,0.3h14L16.8,47.4z"/>
			<path class="st104" d="M16.8,47.1H2.9c0,0.1,0,0.2-0.1,0.3h14V47.1z"/>
			<path class="st105" d="M16.8,46.8H2.9c0,0.1,0,0.2-0.1,0.3h13.9V46.8z"/>
			<path class="st106" d="M16.8,46.5H3c0,0.1,0,0.2-0.1,0.3h13.8V46.5z"/>
			<path class="st107" d="M16.8,46.2H3.1c0,0.1-0.1,0.2-0.1,0.3h13.8V46.2z"/>
			<path class="st108" d="M16.8,45.9H3.2c0,0.1-0.1,0.2-0.1,0.3h13.7L16.8,45.9z"/>
			<path class="st109" d="M16.8,45.6H3.3c0,0.1-0.1,0.2-0.1,0.3h13.6V45.6z"/>
			<path class="st110" d="M16.8,45.3H3.3c0,0.1-0.1,0.2-0.1,0.3h13.5V45.3z"/>
			<path class="st111" d="M16.8,45H3.5c0,0.1-0.1,0.2-0.1,0.3h13.4V45z"/>
			<path class="st111" d="M16.8,44.7H3.6c0,0.1-0.1,0.2-0.1,0.3h13.3V44.7z"/>
			<path class="st112" d="M16.8,44.4H3.7c0,0.1-0.1,0.2-0.1,0.3h13.2V44.4z"/>
			<path class="st112" d="M16.8,44.1h-13c0,0.1-0.1,0.2-0.1,0.3h13.1V44.1z"/>
			<path class="st113" d="M16.8,43.8H3.9c0,0.1-0.1,0.2-0.1,0.3h13L16.8,43.8z"/>
			<path class="st114" d="M16.8,43.5H4.1c0,0.1-0.1,0.2-0.1,0.3h12.9L16.8,43.5z"/>
			<path class="st115" d="M16.8,43.2H4.2c0,0.1-0.1,0.2-0.1,0.3h12.7L16.8,43.2z"/>
			<path class="st116" d="M16.8,42.9H4.3c0,0.1-0.1,0.2-0.1,0.3h12.6L16.8,42.9z"/>
			<path class="st116" d="M16.8,42.6H4.5c0,0.1-0.1,0.2-0.1,0.3h12.4L16.8,42.6z"/>
			<path class="st117" d="M16.8,42.3H4.6c0,0.1-0.1,0.2-0.2,0.3h12.3L16.8,42.3z"/>
			<path class="st117" d="M16.8,42h-12c-0.1,0.1-0.1,0.2-0.2,0.3h12.1V42z"/>
			<path class="st118" d="M16.8,41.7H5c-0.1,0.1-0.1,0.2-0.2,0.3h12V41.7z"/>
			<path class="st119" d="M16.8,41.4H5.1C5.1,41.5,5,41.6,5,41.7h11.8V41.4z"/>
			<path class="st120" d="M16.8,41.1H5.3c-0.1,0.1-0.1,0.2-0.2,0.3h11.6V41.1z"/>
			<path class="st121" d="M16.8,40.8H5.5c-0.1,0.1-0.1,0.2-0.2,0.3h11.4V40.8z"/>
			<path class="st122" d="M16.8,40.5h-11c-0.1,0.1-0.1,0.2-0.2,0.3h11.2V40.5z"/>
			<path class="st123" d="M16.8,40.2H5.9c-0.1,0.1-0.1,0.2-0.2,0.3h11V40.2z"/>
			<path class="st124" d="M16.8,39.9H6.1C6.1,40,6,40.1,5.9,40.2h10.8V39.9z"/>
			<path class="st124" d="M16.8,39.6H6.4c-0.1,0.1-0.2,0.2-0.2,0.3h10.6V39.6z"/>
			<path class="st125" d="M16.8,39.4H6.6c-0.1,0.1-0.1,0.2-0.2,0.3h10.4V39.4z"/>
			<path class="st125" d="M16.8,39.1H6.8c-0.1,0.1-0.1,0.2-0.2,0.3h10.2V39.1z"/>
			<path class="st126" d="M16.8,38.8H7.1C7,38.9,6.9,39,6.8,39.1h9.9L16.8,38.8z"/>
			<path class="st127" d="M16.8,38.5H7.4c-0.1,0.1-0.2,0.2-0.3,0.3h9.7V38.5z"/>
			<path class="st128" d="M16.8,38.2H7.6c-0.1,0.1-0.2,0.2-0.3,0.3h9.4V38.2z"/>
			<path class="st129" d="M16.8,37.9H7.9c-0.1,0.1-0.2,0.2-0.3,0.3h9.1L16.8,37.9z"/>
			<path class="st130" d="M16.8,37.6H8.2c-0.1,0.1-0.2,0.2-0.3,0.3h8.9L16.8,37.6z"/>
			<path class="st130" d="M16.8,37.3H8.5c-0.1,0.1-0.2,0.2-0.3,0.3h8.6L16.8,37.3z"/>
			<path class="st131" d="M16.8,37h-8c-0.1,0.1-0.2,0.2-0.3,0.3h8.3V37z"/>
			<path class="st131" d="M16.8,36.7H9.1C9,36.8,8.9,36.9,8.8,37h8V36.7z"/>
			<path class="st132" d="M16.8,36.4H9.5c-0.1,0.1-0.2,0.2-0.4,0.3h7.6V36.4z"/>
			<path class="st133" d="M16.8,36.1H9.8c-0.1,0.1-0.2,0.2-0.4,0.3h7.3V36.1z"/>
			<path class="st134" d="M16.8,35.8h-6.6c-0.1,0.1-0.2,0.2-0.4,0.3h6.9V35.8z"/>
			<path class="st135" d="M16.8,35.5h-6.2c-0.1,0.1-0.3,0.2-0.4,0.3h6.6V35.5z"/>
			<path class="st136" d="M16.8,35.2H11c-0.1,0.1-0.3,0.2-0.4,0.3h6.2V35.2z"/>
			<path class="st137" d="M16.8,34.9h-5.4c-0.1,0.1-0.3,0.2-0.4,0.3h5.8V34.9z"/>
			<path class="st138" d="M16.8,34.6h-4.9c-0.2,0.1-0.3,0.2-0.5,0.3h5.4L16.8,34.6z"/>
			<path class="st138" d="M16.8,34.3h-4.5c-0.2,0.1-0.3,0.2-0.5,0.3h4.9V34.3z"/>
			<path class="st139" d="M16.8,34h-4c-0.2,0.1-0.3,0.2-0.5,0.3h4.5V34z"/>
			<path class="st139" d="M16.8,33.7h-3.5c-0.2,0.1-0.4,0.2-0.5,0.3h4V33.7z"/>
			<path class="st140" d="M16.8,33.4h-3c-0.2,0.1-0.4,0.2-0.5,0.3h3.5V33.4z"/>
			<path class="st141" d="M16.8,33.1h-2.4c-0.2,0.1-0.4,0.2-0.6,0.3h3V33.1z"/>
			<path class="st142" d="M16.8,32.8H15c-0.2,0.1-0.4,0.2-0.6,0.3h2.4V32.8z"/>
			<path class="st143" d="M16.8,32.5h-1.2c-0.2,0.1-0.4,0.2-0.6,0.3h1.8V32.5z"/>
			<path class="st144" d="M16.8,32.2h-0.5l-0.5,0.2c0,0-0.1,0-0.1,0h1.2V32.2z"/>
			<polygon class="st144" points="16.8,32 16.3,32.2 16.8,32.2 			"/>
			<path class="st17" d="M106,67.1c2.1,0,4.2-0.1,6.2-0.1L106,67.1C106,67,106,67.1,106,67.1z"/>
			<path class="st17" d="M120.4,67.1V67h-7.8C115,67,117.7,67.1,120.4,67.1z"/>
			<path class="st18" d="M106,67h6.2c0.1,0,0.1,0,0.1,0c0,0,0.1,0,0.1,0h7.8v-0.4H106C106,66.7,106,67,106,67z"/>
			<rect x="106" y="66.3" class="st18" width="14.4" height="0.4"/>
			<rect x="106" y="65.9" class="st19" width="14.4" height="0.4"/>
			<rect x="106" y="65.6" class="st20" width="14.4" height="0.4"/>
			<rect x="106" y="65.2" class="st21" width="14.4" height="0.4"/>
			<rect x="106" y="64.8" class="st21" width="14.4" height="0.4"/>
			<rect x="106" y="64.4" class="st22" width="14.4" height="0.4"/>
			<rect x="106" y="64.1" class="st23" width="14.4" height="0.4"/>
			<rect x="106" y="63.7" class="st23" width="14.4" height="0.4"/>
			<rect x="106" y="63.3" class="st24" width="14.4" height="0.4"/>
			<rect x="106" y="63" class="st24" width="14.4" height="0.4"/>
			<rect x="106" y="62.6" class="st25" width="14.4" height="0.4"/>
			<rect x="106" y="62.2" class="st26" width="14.4" height="0.4"/>
			<rect x="106" y="61.9" class="st27" width="14.4" height="0.4"/>
			<rect x="106" y="61.5" class="st27" width="14.4" height="0.4"/>
			<rect x="106" y="61.1" class="st28" width="14.4" height="0.4"/>
			<rect x="106" y="60.7" class="st28" width="14.4" height="0.4"/>
			<rect x="106" y="60.4" class="st29" width="14.4" height="0.4"/>
			<rect x="106" y="60" class="st30" width="14.4" height="0.4"/>
			<rect x="106" y="59.6" class="st30" width="14.4" height="0.4"/>
			<rect x="106" y="59.3" class="st31" width="14.4" height="0.4"/>
			<rect x="106" y="58.9" class="st32" width="14.4" height="0.4"/>
			<rect x="106" y="58.5" class="st33" width="14.4" height="0.4"/>
			<rect x="106" y="58.1" class="st33" width="14.4" height="0.4"/>
			<rect x="106" y="57.8" class="st34" width="14.4" height="0.4"/>
			<rect x="106" y="57.4" class="st34" width="14.4" height="0.4"/>
			<rect x="106" y="57" class="st35" width="14.4" height="0.4"/>
			<rect x="106" y="56.7" class="st35" width="14.4" height="0.4"/>
			<rect x="106" y="56.3" class="st36" width="14.4" height="0.4"/>
			<rect x="106" y="55.9" class="st37" width="14.4" height="0.4"/>
			<rect x="106" y="55.6" class="st37" width="14.4" height="0.4"/>
			<rect x="106" y="55.2" class="st38" width="14.4" height="0.4"/>
			<rect x="106" y="54.8" class="st39" width="14.4" height="0.4"/>
			<rect x="106" y="54.4" class="st40" width="14.4" height="0.4"/>
			<rect x="106" y="54.1" class="st40" width="14.4" height="0.4"/>
			<rect x="106" y="53.7" class="st41" width="14.4" height="0.4"/>
			<rect x="106" y="53.3" class="st41" width="14.4" height="0.4"/>
			<rect x="106" y="53" class="st42" width="14.4" height="0.4"/>
			<rect x="106" y="52.6" class="st42" width="14.4" height="0.4"/>
			<rect x="106" y="52.2" class="st43" width="14.4" height="0.4"/>
			<rect x="106" y="51.9" class="st44" width="14.4" height="0.4"/>
			<rect x="106" y="51.5" class="st45" width="14.4" height="0.4"/>
			<rect x="106" y="51.1" class="st45" width="14.4" height="0.4"/>
			<rect x="106" y="50.7" class="st46" width="14.4" height="0.4"/>
			<rect x="106" y="50.4" class="st46" width="14.4" height="0.4"/>
			<rect x="106" y="50" class="st47" width="14.4" height="0.4"/>
			<rect x="106" y="49.6" class="st48" width="14.4" height="0.4"/>
			<rect x="106" y="49.3" class="st49" width="14.4" height="0.4"/>
			<rect x="106" y="48.9" class="st49" width="14.4" height="0.4"/>
			<rect x="106" y="48.5" class="st50" width="14.4" height="0.4"/>
			<rect x="106" y="48.2" class="st50" width="14.4" height="0.4"/>
			<rect x="106" y="47.8" class="st51" width="14.4" height="0.4"/>
			<rect x="106" y="47.4" class="st52" width="14.4" height="0.4"/>
			<rect x="106" y="47" class="st53" width="14.4" height="0.4"/>
			<rect x="106" y="46.7" class="st54" width="14.4" height="0.4"/>
			<rect x="106" y="46.3" class="st55" width="14.4" height="0.4"/>
			<rect x="106" y="45.9" class="st55" width="14.4" height="0.4"/>
			<rect x="106" y="45.6" class="st56" width="14.4" height="0.4"/>
			<rect x="106" y="45.2" class="st57" width="14.4" height="0.4"/>
			<rect x="106" y="44.8" class="st58" width="14.4" height="0.4"/>
			<rect x="106" y="44.5" class="st59" width="14.4" height="0.4"/>
			<rect x="106" y="44.1" class="st60" width="14.4" height="0.4"/>
			<rect x="106" y="43.7" class="st61" width="14.4" height="0.4"/>
			<rect x="106" y="43.3" class="st62" width="14.4" height="0.4"/>
			<rect x="106" y="43" class="st62" width="14.4" height="0.4"/>
			<rect x="106" y="42.6" class="st63" width="14.4" height="0.4"/>
			<rect x="106" y="42.2" class="st63" width="14.4" height="0.4"/>
			<rect x="106" y="41.9" class="st64" width="14.4" height="0.4"/>
			<rect x="106" y="41.5" class="st65" width="14.4" height="0.4"/>
			<rect x="106" y="41.1" class="st66" width="14.4" height="0.4"/>
			<rect x="106" y="40.8" class="st67" width="14.4" height="0.4"/>
			<rect x="106" y="40.4" class="st68" width="14.4" height="0.4"/>
			<rect x="106" y="40" class="st68" width="14.4" height="0.4"/>
			<rect x="106" y="39.6" class="st69" width="14.4" height="0.4"/>
			<rect x="106" y="39.3" class="st69" width="14.4" height="0.4"/>
			<rect x="106" y="38.9" class="st70" width="14.4" height="0.4"/>
			<rect x="106" y="38.5" class="st71" width="14.4" height="0.4"/>
			<rect x="106" y="38.2" class="st72" width="14.4" height="0.4"/>
			<rect x="106" y="37.8" class="st73" width="14.4" height="0.4"/>
			<rect x="106" y="37.4" class="st73" width="14.4" height="0.4"/>
			<rect x="106" y="37.1" class="st74" width="14.4" height="0.4"/>
			<rect x="106" y="36.7" class="st75" width="14.4" height="0.4"/>
			<rect x="106" y="36.3" class="st76" width="14.4" height="0.4"/>
			<rect x="106" y="35.9" class="st77" width="14.4" height="0.4"/>
			<rect x="106" y="35.6" class="st78" width="14.4" height="0.4"/>
			<rect x="106" y="35.2" class="st78" width="14.4" height="0.4"/>
			<rect x="106" y="34.8" class="st79" width="14.4" height="0.4"/>
			<rect x="106" y="34.5" class="st79" width="14.4" height="0.4"/>
			<rect x="106" y="34.1" class="st80" width="14.4" height="0.4"/>
			<rect x="106" y="33.7" class="st81" width="14.4" height="0.4"/>
			<rect x="106" y="33.4" class="st82" width="14.4" height="0.4"/>
			<rect x="106" y="33" class="st83" width="14.4" height="0.4"/>
			<rect x="106" y="32.6" class="st84" width="14.4" height="0.4"/>
			<rect x="106" y="32.2" class="st85" width="14.4" height="0.4"/>
			<rect x="106" y="31.9" class="st86" width="14.4" height="0.4"/>
			<rect x="106" y="31.5" class="st87" width="14.4" height="0.4"/>
			<rect x="106" y="31.1" class="st88" width="14.4" height="0.4"/>
			<rect x="106" y="30.8" class="st89" width="14.4" height="0.4"/>
			<rect x="106" y="30.4" class="st90" width="14.4" height="0.4"/>
			<rect x="106" y="30" class="st91" width="14.4" height="0.4"/>
			<rect x="106" y="29.7" class="st91" width="14.4" height="0.4"/>
			<rect x="106" y="29.3" class="st92" width="14.4" height="0.4"/>
			<rect x="106" y="28.9" class="st92" width="14.4" height="0.4"/>
			<rect x="106" y="28.5" class="st93" width="14.4" height="0.4"/>
			<rect x="106" y="28.2" class="st94" width="14.4" height="0.4"/>
			<rect x="106" y="27.8" class="st95" width="14.4" height="0.4"/>
			<rect x="106" y="27.4" class="st96" width="14.4" height="0.4"/>
			<rect x="106" y="27.1" class="st97" width="14.4" height="0.4"/>
			<rect x="106" y="26.7" class="st98" width="14.4" height="0.4"/>
			<rect x="106" y="26.3" class="st98" width="14.4" height="0.4"/>
			<rect x="106" y="26" class="st99" width="14.4" height="0.4"/>
			<rect x="106" y="25.6" class="st99" width="14.4" height="0.4"/>
			<rect x="106" y="25.2" class="st100" width="14.4" height="0.4"/>
			<rect x="106" y="24.8" class="st101" width="14.4" height="0.4"/>
			<rect x="106" y="24.5" class="st102" width="14.4" height="0.4"/>
			<rect x="106" y="24.1" class="st103" width="14.4" height="0.4"/>
			<rect x="106" y="23.7" class="st103" width="14.4" height="0.4"/>
			<rect x="106" y="23.4" class="st104" width="14.4" height="0.4"/>
			<rect x="106" y="23" class="st104" width="14.4" height="0.4"/>
			<path class="st105" d="M106,22.7V23h14.4v-0.4L106,22.7C106,22.7,106,22.7,106,22.7z"/>
			<path class="st106" d="M106,22.6h14.4v-0.4H106C106,22.4,106,22.5,106,22.6z"/>
			<path class="st107" d="M106,22.2h14.3v-0.4H106C106,22,106,22.1,106,22.2z"/>
			<path class="st108" d="M106,21.9h14.3v-0.4h-14.3C106,21.6,106,21.8,106,21.9z"/>
			<path class="st109" d="M106.1,21.5h14.3v-0.4h-14.3C106.1,21.3,106.1,21.4,106.1,21.5z"/>
			<path class="st110" d="M106.1,21.1h14.3v-0.4h-14.2C106.1,20.9,106.1,21,106.1,21.1z"/>
			<path class="st111" d="M106.1,20.8h14.2v-0.4h-14.2C106.1,20.5,106.1,20.6,106.1,20.8z"/>
			<path class="st111" d="M106.2,20.4h14.2V20h-14.1C106.2,20.2,106.2,20.3,106.2,20.4z"/>
			<path class="st112" d="M106.2,20h14.1v-0.4h-14.1C106.3,19.8,106.2,19.9,106.2,20z"/>
			<path class="st112" d="M106.3,19.7h14.1v-0.4h-14C106.3,19.4,106.3,19.5,106.3,19.7z"/>
			<path class="st113" d="M106.4,19.3h14v-0.4h-13.9C106.4,19,106.4,19.2,106.4,19.3z"/>
			<path class="st114" d="M106.4,18.9h13.9v-0.4h-13.9C106.5,18.7,106.5,18.8,106.4,18.9z"/>
			<path class="st115" d="M106.5,18.5h13.9v-0.4h-13.8C106.6,18.3,106.5,18.4,106.5,18.5z"/>
			<path class="st116" d="M106.6,18.2h13.8v-0.4h-13.6C106.7,17.9,106.6,18.1,106.6,18.2z"/>
			<path class="st116" d="M106.7,17.8h13.6v-0.4h-13.5C106.8,17.6,106.8,17.7,106.7,17.8z"/>
			<path class="st117" d="M106.8,17.4h13.5v-0.4h-13.4C106.9,17.2,106.9,17.3,106.8,17.4z"/>
			<path class="st117" d="M106.9,17.1h13.4v-0.4h-13.3C107,16.8,107,16.9,106.9,17.1z"/>
			<path class="st118" d="M107.1,16.7h13.3v-0.4h-13.1C107.2,16.5,107.1,16.6,107.1,16.7z"/>
			<path class="st119" d="M107.2,16.3h13.1V16h-13C107.3,16.1,107.3,16.2,107.2,16.3z"/>
			<path class="st120" d="M107.4,16h13v-0.4h-12.9C107.5,15.7,107.4,15.8,107.4,16z"/>
			<path class="st121" d="M107.5,15.6h12.9v-0.4h-12.7C107.6,15.3,107.6,15.5,107.5,15.6z"/>
			<path class="st122" d="M107.7,15.2h12.7v-0.4h-12.5C107.8,15,107.7,15.1,107.7,15.2z"/>
			<path class="st123" d="M107.9,14.8h12.5v-0.4H108C108,14.6,107.9,14.7,107.9,14.8z"/>
			<path class="st124" d="M108,14.5h12.3v-0.4h-12.1C108.2,14.2,108.1,14.4,108,14.5z"/>
			<path class="st124" d="M108.2,14.1h12.1v-0.4h-11.9C108.4,13.9,108.3,14,108.2,14.1z"/>
			<path class="st125" d="M108.4,13.7h11.9v-0.4h-11.7C108.6,13.5,108.5,13.6,108.4,13.7z"/>
			<path class="st125" d="M108.7,13.4h11.7V13h-11.5C108.8,13.1,108.7,13.2,108.7,13.4z"/>
			<path class="st126" d="M108.9,13h11.5v-0.4h-11.2C109,12.7,109,12.9,108.9,13z"/>
			<path class="st127" d="M109.1,12.6h11.2v-0.4h-11C109.3,12.4,109.2,12.5,109.1,12.6z"/>
			<path class="st128" d="M109.4,12.3h11v-0.4h-10.7C109.5,12,109.5,12.1,109.4,12.3z"/>
			<path class="st129" d="M109.6,11.9h10.7v-0.4h-10.4C109.8,11.6,109.7,11.8,109.6,11.9z"/>
			<path class="st130" d="M109.9,11.5h10.4v-0.4h-10.1C110.1,11.3,110,11.4,109.9,11.5z"/>
			<path class="st130" d="M110.2,11.1h10.1v-0.4h-9.9C110.4,10.9,110.3,11,110.2,11.1z"/>
			<path class="st131" d="M110.5,10.8h9.9v-0.4h-9.5C110.7,10.5,110.6,10.6,110.5,10.8z"/>
			<path class="st131" d="M110.8,10.4h9.5V10h-9.2C111.1,10.2,110.9,10.3,110.8,10.4z"/>
			<path class="st132" d="M111.2,10h9.2V9.7h-8.9C111.4,9.8,111.3,9.9,111.2,10z"/>
			<path class="st133" d="M111.5,9.7h8.9V9.3h-8.5C111.8,9.4,111.6,9.5,111.5,9.7z"/>
			<path class="st134" d="M111.9,9.3h8.5V8.9h-8.1C112.1,9,112,9.2,111.9,9.3z"/>
			<path class="st135" d="M112.3,8.9h8.1V8.6h-7.7C112.5,8.7,112.4,8.8,112.3,8.9z"/>
			<path class="st136" d="M112.7,8.6h7.7V8.2h-7.3C113,8.3,112.8,8.4,112.7,8.6z"/>
			<path class="st137" d="M113.1,8.2h7.3V7.8h-6.8C113.4,7.9,113.2,8.1,113.1,8.2z"/>
			<path class="st138" d="M113.5,7.8h6.8V7.4H114C113.8,7.6,113.7,7.7,113.5,7.8z"/>
			<path class="st138" d="M114,7.4h6.4V7.1h-5.9C114.3,7.2,114.2,7.3,114,7.4z"/>
			<path class="st139" d="M114.5,7.1h5.9V6.7H115C114.8,6.8,114.7,7,114.5,7.1z"/>
			<path class="st139" d="M115,6.7h5.4V6.3h-4.8C115.4,6.5,115.2,6.6,115,6.7z"/>
			<path class="st140" d="M115.6,6.3h4.8V6h-4.2C116,6.1,115.8,6.2,115.6,6.3z"/>
			<path class="st141" d="M116.2,6h4.2V5.6h-3.6C116.6,5.7,116.4,5.8,116.2,6z"/>
			<path class="st142" d="M116.8,5.6h3.6V5.2h-2.9C117.2,5.3,117,5.5,116.8,5.6z"/>
			<path class="st143" d="M117.5,5.2h2.9V4.9h-2.2C117.9,5,117.7,5.1,117.5,5.2z"/>
			<path class="st144" d="M118.2,4.9h2.2V4.5h-1.4C118.7,4.6,118.4,4.7,118.2,4.9z"/>
			<path class="st144" d="M119.3,4.3c-0.1,0.1-0.2,0.1-0.3,0.2h1.4V4.1h-0.6L119.3,4.3z"/>
			<polygon class="st145" points="120.4,4.1 120.4,3.8 119.7,4.1 			"/>
		</g>
		<g>
			<g>
				
					<linearGradient id="SVGID_1_" gradientUnits="userSpaceOnUse" x1="62.25" y1="2.39" x2="62.25" y2="60.6091" gradientTransform="matrix(1 0 0 -1 0 151.58)">
					<stop  offset="0.5272" style="stop-color:#00B4BE"/>
					<stop  offset="0.5778" style="stop-color:#25B6C0"/>
					<stop  offset="0.6528" style="stop-color:#4EBCC6"/>
					<stop  offset="0.7429" style="stop-color:#78C7CF"/>
					<stop  offset="0.8448" style="stop-color:#A8D8DE"/>
					<stop  offset="0.9551" style="stop-color:#E2F1F2"/>
					<stop  offset="1" style="stop-color:#FFFFFF"/>
				</linearGradient>
				<path class="st146" d="M7,109.8c4.4,0.1,9.2-1.4,14.3-4.8c7.3-4.9,13.8-9.6,21.4-4.5c11.4,7.6,10.9,14.3,23.5,13.7
					s11.5-11.2,9.7-17.9c-1.8-6.7,10.8-7.5,8.9,0.3s-4.2,15.7,5.8,16c4.5,0.1,12.4,0,28.2-8.1c0,0-11,38-58.1,44.7
					c0,0-38.6-3.9-55.3-39.2L7,109.8z"/>
				
					<linearGradient id="SVGID_00000065779377242876516170000015897578999261896890_" gradientUnits="userSpaceOnUse" x1="80.17" y1="67.4" x2="80.17" y2="87.96" gradientTransform="matrix(1 0 0 -1 0 151.58)">
					<stop  offset="0.5272" style="stop-color:#00B4BE"/>
					<stop  offset="0.5778" style="stop-color:#25B6C0"/>
					<stop  offset="0.6528" style="stop-color:#4EBCC6"/>
					<stop  offset="0.7429" style="stop-color:#78C7CF"/>
					<stop  offset="0.8448" style="stop-color:#A8D8DE"/>
					<stop  offset="0.9551" style="stop-color:#E2F1F2"/>
					<stop  offset="1" style="stop-color:#FFFFFF"/>
				</linearGradient>
				<path style="fill:url(#SVGID_00000065779377242876516170000015897578999261896890_);" d="M80.2,63.6c-5.6,0-10.2,4.6-10.2,10.3
					s4.6,10.3,10.2,10.3c5.6,0,10.2-4.6,10.2-10.3C90.4,68.2,85.8,63.6,80.2,63.6z"/>
			</g>
			
				<linearGradient id="SVGID_00000149378233765042647990000015443454859742234815_" gradientUnits="userSpaceOnUse" x1="37.152" y1="4.467" x2="99.3274" y2="66.6426" gradientTransform="matrix(1 0 0 -1 0 151.58)">
				<stop  offset="0" style="stop-color:#00A79D"/>
				<stop  offset="1" style="stop-color:#27AAE1"/>
			</linearGradient>
			<path style="fill:url(#SVGID_00000149378233765042647990000015443454859742234815_);" d="M47.6,126.8c-12.2,0-23.8-1.5-34.2-4.2
				C32,146.4,61,149.3,61,149.3c47.1-6.7,58.1-44.7,58.1-44.7c-0.8,0.4-1.5,0.8-2.3,1.1C101.9,118.5,76.4,126.8,47.6,126.8z"/>
		</g>
	</g>
	<g>
		<path d="M149.3,54.5v19.1c0,4,1.2,7.4,3.7,10.2s5.4,4.2,8.9,4.2s6.5-1.4,8.9-4.2s3.7-6.2,3.7-10.2l0-19.1h4.2v19.3
			c-0.1,5.3-1.7,9.8-5,13.5c-3.3,3.7-7.2,5.6-11.9,5.6c-4.6,0-8.6-1.9-11.9-5.6c-3.3-3.7-4.9-8.3-5-13.6V54.5H149.3z"/>
		<path d="M212.8,92.8V73.7c0-4-1.3-7.4-3.7-10.2s-5.4-4.2-9-4.2c-3.5,0-6.4,1.4-8.9,4.2c-2.4,2.8-3.7,6.1-3.8,10.1v19.3h-4.2V73.7
			c0-5.3,1.6-9.8,4.9-13.6c3.3-3.8,7.3-5.6,11.9-5.6c4.6,0,8.6,1.9,11.9,5.6c3.3,3.7,5,8.2,5,13.5v19.3H212.8z"/>
		<rect x="221.5" y="54.5" width="4.2" height="38.4"/>
		<path d="M255.5,54.5v38.3h-8.4c-4.6,0-8.6-1.9-11.9-5.6c-3.3-3.7-5-8.2-5-13.5V54.4h4.2v19.1c0,4,1.2,7.4,3.7,10.2
			c2.5,2.8,5.5,4.2,9,4.2h4.2V54.4L255.5,54.5L255.5,54.5z"/>
		<path d="M293.5,59.1h-16.6c-3.5,0-6.5,1.4-9,4.2s-3.7,6.2-3.7,10.2c0,3.9,1.2,7.4,3.7,10.2c2.5,2.8,5.5,4.2,9,4.2h16.6v4.8h-16.8
			c-4.6-0.1-8.6-2-11.8-5.7s-4.9-8.2-4.9-13.5c0-5.3,1.6-9.8,4.9-13.6s7.2-5.7,11.8-5.7h16.8V59.1z M260.4,73.6
			c0-0.7,0.2-1.2,0.6-1.7c0.4-0.5,0.9-0.7,1.5-0.7h25V76h-25c-0.6,0-1.1-0.2-1.5-0.7C260.6,74.8,260.4,74.2,260.4,73.6"/>
		<path d="M307.5,80c1,2.4,2.6,4.3,4.6,5.8s4.3,2.2,6.7,2.2v4.8c-3.6,0-6.9-1.2-9.8-3.6c-2.9-2.4-4.9-5.4-6.1-9.2h-0.7v12.8H298
			V54.4h9.6c3.1,0,5.7,1.2,7.9,3.8c2.2,2.5,3.3,5.5,3.3,9c0,3.5-1.1,6.6-3.3,9.1C313.3,78.8,310.6,80,307.5,80 M302.2,75.2h5.4v-0.1
			c1.9,0,3.6-0.8,4.9-2.3s2.1-3.4,2.1-5.6c0-2.2-0.7-4.1-2-5.6c-1.4-1.6-3-2.3-5-2.3v-0.1h-5.4L302.2,75.2L302.2,75.2z"/>
		<path d="M356.9,59.2h-16.7c-3.1,0-5.9,1.1-8.2,3.4c-2.4,2.3-3.8,5.1-4.3,8.5h29.2v2.4c0,5.3-1.6,9.9-4.9,13.6s-7.2,5.6-11.9,5.7
			h-16.9V88H340c3.1,0,5.8-1.1,8.2-3.4c2.4-2.3,3.8-5.2,4.3-8.6h-29.2v-2.3c0-5.3,1.6-9.8,4.9-13.6c3.3-3.8,7.2-5.6,11.9-5.7h16.8
			L356.9,59.2L356.9,59.2z"/>
		<path d="M378.3,54.3c4.6,0,8.6,1.9,11.9,5.6c3.3,3.8,5,8.3,5,13.6v19.3h-4.2v-9.7h-25.3v9.7h-4.2V73.5c0-5.3,1.6-9.8,5-13.6
			C369.6,56.2,373.6,54.3,378.3,54.3 M390.9,78.3v-4.7c0-3.9-1.2-7.3-3.7-10.2s-5.5-4.2-8.9-4.2c-3.5,0-6.5,1.4-9,4.2
			s-3.7,6.2-3.7,10.2v4.7H390.9z"/>
		<path d="M420.3,88v4.8h-9.4c-3.1,0-5.7-1.2-7.9-3.7s-3.3-5.5-3.3-9V54.4h4.3v25.6c0,2.2,0.7,4.1,2,5.6c1.4,1.5,3,2.3,4.9,2.3
			L420.3,88L420.3,88z"/>
		<rect x="424.8" y="54.5" width="4.2" height="38.4"/>
		<path d="M467.1,54.5v1.7c0,5.3-1.6,9.9-4.9,13.6c-3.3,3.8-7.3,5.6-11.9,5.6c-3.2,0-6,1.2-8.3,3.6c-2.4,2.4-3.8,5.4-4.2,8.9h29.4
			v4.8h-33.7v-2.9c0-5.3,1.6-9.9,4.9-13.6c3.3-3.8,7.3-5.6,11.9-5.6c3,0,5.6-1.1,7.9-3.2s3.8-4.9,4.4-8.1h-29.2v-4.8L467.1,54.5
			L467.1,54.5z"/>
		<path d="M488.5,54.3c4.6,0,8.6,1.9,11.9,5.6c3.3,3.8,5,8.3,5,13.6v19.3h-4.2v-9.7h-25.3v9.7h-4.2V73.5c0-5.3,1.6-9.8,5-13.6
			C479.9,56.2,483.9,54.3,488.5,54.3 M501.2,78.3v-4.7c0-3.9-1.2-7.3-3.7-10.2s-5.5-4.2-8.9-4.2c-3.5,0-6.5,1.4-9,4.2
			s-3.7,6.2-3.7,10.2v4.7H501.2z"/>
	</g>
	<g>
		<g>
			<g>
				<path id="SVGID_00000001653187176357155730000007384388893663293351_" class="st0" d="M301.8,101.1c-0.5,0.1-0.9,0.3-1.1,0.6
					l-1.4,1.7c-0.3,0.3-0.3,0.6-0.1,1c0.2,0.3,0.5,0.6,1,0.7c0.3,0.1,0.5,0.1,0.9,0.1c0.7,0,1.3-0.2,1.7-0.7l1.3-1.7
					c0.3-0.3,0.3-0.6,0.1-0.9c-0.2-0.3-0.5-0.6-1-0.7c-0.2-0.1-0.5-0.1-0.8-0.1C302.2,101,302,101.1,301.8,101.1"/>
			</g>
			<g>
				<defs>
					<path id="SVGID_00000165945139639502738360000006531431458339334068_" d="M301.8,101.1c-0.5,0.1-0.9,0.3-1.1,0.6l-1.4,1.7
						c-0.3,0.3-0.3,0.6-0.1,1c0.2,0.3,0.5,0.6,1,0.7c0.3,0.1,0.5,0.1,0.9,0.1c0.7,0,1.3-0.2,1.7-0.7l1.3-1.7
						c0.3-0.3,0.3-0.6,0.1-0.9c-0.2-0.3-0.5-0.6-1-0.7c-0.2-0.1-0.5-0.1-0.8-0.1C302.2,101,302,101.1,301.8,101.1"/>
				</defs>
				<clipPath id="SVGID_00000008846759963829912350000006163666865247083963_">
					<use xlink:href="#SVGID_00000165945139639502738360000006531431458339334068_"  style="overflow:visible;"/>
				</clipPath>
				
					<rect x="299" y="101" style="clip-path:url(#SVGID_00000008846759963829912350000006163666865247083963_);fill:#21409A;" width="5.4" height="4.1"/>
			</g>
		</g>
		<g>
			<g>
				<path id="SVGID_00000068671785230718852060000006816377110036397489_" class="st0" d="M401.9,138.4c-0.3-0.5,0.3-1.6,1.6-3.3
					c1.4-1.7,4.2-3.9,8.4-6.5c-0.1,1.9-0.6,3.5-1.4,4.9c-1.4,2-3,3.4-4.8,4.1c-1.5,0.6-2.7,0.9-3.5,0.9
					C402.1,138.4,402,138.4,401.9,138.4 M357.3,126.3c-0.1-0.5,0.2-1.4,0.7-2.5c1.2-2.5,3.2-4.9,5.8-7.1c2.6-2.3,5.4-3.6,8.3-4.1
					c2.3-0.3,4.3,0.3,6.2,1.7c0.1,0.1,0.3,0.2,0.4,0.2c-3.3,2.7-6.8,5.3-10.6,7.8c-1.6,1-3,1.9-4.2,2.5c-1.2,0.6-2.1,1.1-3,1.5
					c-0.8,0.3-1.5,0.6-2,0.7c-0.5,0.1-1,0.2-1.5,0.2C357.4,127.1,357.4,126.8,357.3,126.3 M212.7,106.2c-1.8,0.8-1.4,2.7-1.4,2.7
					c0.3,2.4,0.8,4.4,1.4,5.8c0.6,1.4,1.3,2.6,2.2,3.5c0.6,0.7,1.3,1.2,2.1,1.4s1.4,0.4,2.1,0.4c2.2,0.2,5.1-0.5,8.7-2.3
					c2-0.9,4.3-2.3,7-3.9c-1.1,1.8-2.4,3.6-3.7,5.7c-2.3,3.5-4,6.2-5.2,8.3c-0.7,1.2-1.2,2.2-1.6,2.9c-0.3,0.5-0.5,1-0.5,1.4
					s0.3,0.9,0.9,1.2c0.3,0.1,0.7,0.2,1.1,0.2c0.6,0,1.2-0.2,1.7-0.6c1.5-1.2,4.1-3.7,7.7-7.5c2.1-2.1,4.2-4.3,6.3-6.4
					c2.1-2.1,4-3.8,5.6-5.2c1.8-1.4,3.1-2.3,4-2.6c-1.9,3-3.5,5.5-4.5,7.6c-1.1,2-1.9,3.6-2.3,4.9c-0.5,1.2-0.7,2.1-0.7,2.8
					c0,0.6,0.1,1.1,0.3,1.4s0.4,0.4,0.6,0.5c0.3,0.2,0.7,0.3,1.2,0.4s1.2,0,2.1-0.2c2.2-0.8,5.2-3.3,9.1-7.5c1-1,2.1-2,3.2-3.1
					s2.1-2,3-2.6c0.3,2.4,0.8,4.4,1.4,5.8s1.3,2.6,2.2,3.5c0.6,0.7,1.3,1.2,2.1,1.4s1.4,0.4,2.1,0.4c2.2,0.2,5.1-0.5,8.7-2.3
					c2.1-1,4.7-2.5,7.7-4.4c-0.4,0.7-0.8,1.4-1,2c-0.3,0.5-0.5,1.1-0.7,1.9c-0.2,0.8-0.3,1.6-0.1,2.5c0.2,0.9,0.8,1.6,1.8,2.1
					c0.8,0.4,1.8,0.6,3,0.6c2.7-0.1,5.9-0.9,9.6-2.5c3.7-1.6,7.3-3.4,10.8-5.4c0.8-0.5,1.5-0.9,2.2-1.3l-8.2,12.1
					c-0.2,0.3-0.2,0.6,0,0.9c0.2,0.3,0.5,0.5,0.9,0.7c0.3,0.1,0.6,0.1,0.9,0.1c0.6,0,1.2-0.2,1.6-0.6c0.1-0.1,0.8-0.8,2.1-2.1
					c1.3-1.4,2.9-3,4.8-4.9c1.9-1.9,3.9-3.8,6-5.6s3.9-3.2,5.5-4.2c2.2-1.3,3.9-2.1,5-2.6c1.1-0.4,1.8-0.6,2.1-0.6
					c0.1,0,0.1,0.1,0.1,0.2c0,0.2,0,0.6-0.1,0.9v0.1c-0.1,1.6,0,3.4,0.3,5.5c0.3,2.1,1.5,3.7,3.5,4.9c0.6,0.3,1.4,0.6,2.5,0.8
					s2.4,0.2,3.9,0c3.4-0.6,6.6-1.7,9.8-3.1c0.7-0.3,1.3-0.6,2-0.9c-1.1,1.7-1.7,3.3-1.9,4.8c0,1.1,0.3,1.9,0.9,2.5
					c0.6,0.5,1.1,0.8,1.6,1s1.1,0.2,1.7,0.2c3,0,7.4-1.8,13.3-5.6c3.6-2.4,7-4.9,10.3-7.6c-1.1,3.1-1.3,5.4-0.6,6.9
					c0.7,1.5,1.8,2.5,3.3,3c1.1,0.5,2.4,0.7,3.9,0.7c6.6-0.2,14.2-3.5,22.9-9.7c0.1,0.6,0.3,1.3,0.5,2.1c0.4,1.8,0.6,3.7,0.8,5.7
					c-0.6,0.3-1.1,0.7-1.6,1c-5,2.9-8.4,5.5-10.2,7.7c-1.8,2.2-2.5,3.8-2.1,5c0.3,0.9,1.1,1.5,2.2,1.8c0.6,0.1,1.2,0.2,1.9,0.2
					c1.9,0,4-0.5,6.2-1.5c2.3-1,4.2-2.7,5.8-5c1.3-2.3,1.9-5,1.7-8c5.6-3,10.7-5.5,15.2-7.5c4.5-2,6.9-3,7.2-3.1
					c0.5-0.2,0.7-0.5,0.9-0.8s0.1-0.6-0.2-1c-0.3-0.3-0.7-0.5-1.3-0.5c-0.5-0.1-1,0-1.5,0.1c-0.3,0.1-2.4,1-6.5,2.8
					c-4.1,1.8-8.8,4-14.1,6.8c-0.5-3.4-1-6.1-1.6-8.1c-0.2-0.8-0.1-1.5,0.4-2.1c0.5-0.6,1-1.1,1.8-1.5c0.7-0.4,1.4-0.7,2-0.9
					c0.6-0.2,1-0.3,1.1-0.4c0.5-0.1,0.9-0.3,1.1-0.6c0.2-0.3,0.2-0.6,0-1c-0.2-0.3-0.5-0.5-1-0.6s-1-0.1-1.5,0
					c-1.8,0.4-3.6,1.3-5.5,2.6c-1.4,1-2.2,2.2-2.2,3.6c-5.2,4-10,6.9-14.5,8.6c-4.5,1.8-7.7,2.3-9.6,1.6c-1.4-0.5-2-1.8-1.8-4.1
					c0.2-2.3,1.7-5.7,4.6-10.2c0.2-0.3,0.2-0.6,0.1-0.9c-0.1-0.3-0.4-0.5-0.9-0.7c-0.5-0.2-0.9-0.2-1.4-0.2
					c-0.5,0.1-0.9,0.2-1.1,0.5c-0.1,0-0.5,0.4-1.3,1.1c-0.8,0.7-1.8,1.6-3.1,2.7c-2.1-1.4-4.1-2.2-6-2.4c-1.9-0.2-3.6-0.1-5.1,0.3
					c-2.8,0.7-5.4,1.9-7.7,3.6c-0.1,0.1-0.2,0.1-0.3,0.1c-0.1,0-0.7,0.4-1.8,1.2c-1.2,0.8-2.7,1.7-4.6,2.7c-1.9,1-4,2-6.2,2.9
					s-4.5,1.5-6.6,1.9c-0.7,0.1-1.3,0.2-1.7,0.1c-0.4,0-0.7-0.1-1-0.2c-0.2-0.1-0.4-0.1-0.4-0.2c-1.3-0.8-2-2.1-2.2-3.9
					c-0.2-1.8-0.2-3.3-0.1-4.5c0.1-0.4,0.1-0.8,0.1-1.1c0-0.9-0.3-1.5-0.8-1.9c-0.5-0.4-1-0.6-1.5-0.7c-0.5-0.2-1.2-0.2-2.1-0.2
					s-2.1,0.4-3.6,0.9c-1.5,0.6-3.4,1.5-5.7,2.9c-1.9,1.2-4.1,2.8-6.4,4.9l7-10.3c0.3-0.3,0.3-0.6,0.1-1c-0.2-0.3-0.5-0.5-1.1-0.6
					c-0.5-0.1-1-0.1-1.5,0s-0.8,0.3-1,0.6l-4.1,6c-0.1,0.1-0.3,0.1-0.4,0.2c-6.7,4.3-12.7,7.7-18,10c-1,0.5-2,0.8-2.8,1.1
					s-1.5,0.5-2.1,0.7c-0.6,0.2-1.1,0.3-1.6,0.4s-0.8,0.1-1.2,0.2s-0.6,0-0.7,0s-0.3,0-0.5-0.1c-0.1-0.1-0.1-0.2-0.2-0.3
					s-0.1-0.2-0.1-0.4c0-0.2,0-0.4,0-0.8c0-0.3,0.1-0.7,0.3-1.1c0.2-0.4,0.4-1,0.7-1.5c0.3-0.6,0.7-1.3,1.1-2c0.5-0.7,1-1.6,1.7-2.6
					c0.7-0.9,1.5-2,2.4-3.2s2-2.4,3.2-3.8c0.3-0.3,0.3-0.6,0.1-1c-0.2-0.3-0.5-0.6-0.9-0.8c-0.5-0.2-0.9-0.2-1.5-0.1
					c-0.5,0.1-0.9,0.3-1.2,0.6c-1.3,1.4-2.4,2.8-3.4,4.1c-0.2,0.1-0.4,0.1-0.5,0.2c-1.4,0.9-3.4,2.3-6,3.9c-2.5,1.7-5.1,3.2-7.8,4.5
					c-2.6,1.3-4.7,2-6.1,2c-0.2,0-0.4-0.1-0.6-0.2c-0.2-0.1-0.4-0.2-0.7-0.5c-0.7-0.8-1.3-1.8-1.9-3c-0.5-1.2-1-3-1.2-5.2
					c0-0.2,0-0.5-0.1-0.9c-0.1-0.4-0.3-0.7-0.7-1.1c-0.4-0.4-0.9-0.6-1.7-0.8c-1.4-0.2-2.9,0.3-4.5,1.5c-1.6,1.2-3.7,3.2-6.2,5.8
					c-1,1-2,2-3.1,3c-1.1,1-2.1,1.9-3,2.6c0.7-2.4,3.1-6.8,7.2-13.2c0.9-1.6,0.5-2.7-1.1-3.4c-0.8-0.4-2-0.4-3.6,0s-3.5,1.6-5.9,3.5
					c-3.2,2.8-6.9,6.3-11.1,10.6c2.8-4.4,5.9-9.1,9.3-14.1c0.3-0.2,0.4-0.5,0.4-0.8c0-0.3-0.2-0.6-0.6-0.9s-0.8-0.4-1.4-0.3
					c-0.2,0-0.5,0.1-0.7,0.1c-0.1,0-0.1,0-0.2,0c-0.4,0.1-0.6,0.3-0.9,0.5c-1.4,0.9-3.2,2.1-5.6,3.7c-2.6,1.7-5.1,3.1-7.8,4.5
					c-2.6,1.3-4.7,2-6.1,2c-0.2,0-0.4-0.1-0.6-0.2c-0.2-0.1-0.4-0.2-0.7-0.5c-0.7-0.8-1.3-1.8-1.9-3c-0.6-1.2-0.9-3-1.2-5.2
					c0-0.2-0.1-0.5-0.1-0.9c-0.1-0.4-0.3-0.7-0.7-1.1c-0.3-0.3-0.7-0.6-1.2-0.6C213,106.2,212.9,106.2,212.7,106.2"/>
			</g>
			<g>
				<defs>
					<path id="SVGID_00000139269885228862139280000009624140297885239694_" d="M401.9,138.4c-0.3-0.5,0.3-1.6,1.6-3.3
						c1.4-1.7,4.2-3.9,8.4-6.5c-0.1,1.9-0.6,3.5-1.4,4.9c-1.4,2-3,3.4-4.8,4.1c-1.5,0.6-2.7,0.9-3.5,0.9
						C402.1,138.4,402,138.4,401.9,138.4 M357.3,126.3c-0.1-0.5,0.2-1.4,0.7-2.5c1.2-2.5,3.2-4.9,5.8-7.1c2.6-2.3,5.4-3.6,8.3-4.1
						c2.3-0.3,4.3,0.3,6.2,1.7c0.1,0.1,0.3,0.2,0.4,0.2c-3.3,2.7-6.8,5.3-10.6,7.8c-1.6,1-3,1.9-4.2,2.5c-1.2,0.6-2.1,1.1-3,1.5
						c-0.8,0.3-1.5,0.6-2,0.7c-0.5,0.1-1,0.2-1.5,0.2C357.4,127.1,357.4,126.8,357.3,126.3 M212.7,106.2c-1.8,0.8-1.4,2.7-1.4,2.7
						c0.3,2.4,0.8,4.4,1.4,5.8c0.6,1.4,1.3,2.6,2.2,3.5c0.6,0.7,1.3,1.2,2.1,1.4s1.4,0.4,2.1,0.4c2.2,0.2,5.1-0.5,8.7-2.3
						c2-0.9,4.3-2.3,7-3.9c-1.1,1.8-2.4,3.6-3.7,5.7c-2.3,3.5-4,6.2-5.2,8.3c-0.7,1.2-1.2,2.2-1.6,2.9c-0.3,0.5-0.5,1-0.5,1.4
						s0.3,0.9,0.9,1.2c0.3,0.1,0.7,0.2,1.1,0.2c0.6,0,1.2-0.2,1.7-0.6c1.5-1.2,4.1-3.7,7.7-7.5c2.1-2.1,4.2-4.3,6.3-6.4
						c2.1-2.1,4-3.8,5.6-5.2c1.8-1.4,3.1-2.3,4-2.6c-1.9,3-3.5,5.5-4.5,7.6c-1.1,2-1.9,3.6-2.3,4.9c-0.5,1.2-0.7,2.1-0.7,2.8
						c0,0.6,0.1,1.1,0.3,1.4s0.4,0.4,0.6,0.5c0.3,0.2,0.7,0.3,1.2,0.4s1.2,0,2.1-0.2c2.2-0.8,5.2-3.3,9.1-7.5c1-1,2.1-2,3.2-3.1
						s2.1-2,3-2.6c0.3,2.4,0.8,4.4,1.4,5.8s1.3,2.6,2.2,3.5c0.6,0.7,1.3,1.2,2.1,1.4s1.4,0.4,2.1,0.4c2.2,0.2,5.1-0.5,8.7-2.3
						c2.1-1,4.7-2.5,7.7-4.4c-0.4,0.7-0.8,1.4-1,2c-0.3,0.5-0.5,1.1-0.7,1.9c-0.2,0.8-0.3,1.6-0.1,2.5c0.2,0.9,0.8,1.6,1.8,2.1
						c0.8,0.4,1.8,0.6,3,0.6c2.7-0.1,5.9-0.9,9.6-2.5c3.7-1.6,7.3-3.4,10.8-5.4c0.8-0.5,1.5-0.9,2.2-1.3l-8.2,12.1
						c-0.2,0.3-0.2,0.6,0,0.9c0.2,0.3,0.5,0.5,0.9,0.7c0.3,0.1,0.6,0.1,0.9,0.1c0.6,0,1.2-0.2,1.6-0.6c0.1-0.1,0.8-0.8,2.1-2.1
						c1.3-1.4,2.9-3,4.8-4.9c1.9-1.9,3.9-3.8,6-5.6s3.9-3.2,5.5-4.2c2.2-1.3,3.9-2.1,5-2.6c1.1-0.4,1.8-0.6,2.1-0.6
						c0.1,0,0.1,0.1,0.1,0.2c0,0.2,0,0.6-0.1,0.9v0.1c-0.1,1.6,0,3.4,0.3,5.5c0.3,2.1,1.5,3.7,3.5,4.9c0.6,0.3,1.4,0.6,2.5,0.8
						s2.4,0.2,3.9,0c3.4-0.6,6.6-1.7,9.8-3.1c0.7-0.3,1.3-0.6,2-0.9c-1.1,1.7-1.7,3.3-1.9,4.8c0,1.1,0.3,1.9,0.9,2.5
						c0.6,0.5,1.1,0.8,1.6,1s1.1,0.2,1.7,0.2c3,0,7.4-1.8,13.3-5.6c3.6-2.4,7-4.9,10.3-7.6c-1.1,3.1-1.3,5.4-0.6,6.9
						c0.7,1.5,1.8,2.5,3.3,3c1.1,0.5,2.4,0.7,3.9,0.7c6.6-0.2,14.2-3.5,22.9-9.7c0.1,0.6,0.3,1.3,0.5,2.1c0.4,1.8,0.6,3.7,0.8,5.7
						c-0.6,0.3-1.1,0.7-1.6,1c-5,2.9-8.4,5.5-10.2,7.7c-1.8,2.2-2.5,3.8-2.1,5c0.3,0.9,1.1,1.5,2.2,1.8c0.6,0.1,1.2,0.2,1.9,0.2
						c1.9,0,4-0.5,6.2-1.5c2.3-1,4.2-2.7,5.8-5c1.3-2.3,1.9-5,1.7-8c5.6-3,10.7-5.5,15.2-7.5c4.5-2,6.9-3,7.2-3.1
						c0.5-0.2,0.7-0.5,0.9-0.8s0.1-0.6-0.2-1c-0.3-0.3-0.7-0.5-1.3-0.5c-0.5-0.1-1,0-1.5,0.1c-0.3,0.1-2.4,1-6.5,2.8
						c-4.1,1.8-8.8,4-14.1,6.8c-0.5-3.4-1-6.1-1.6-8.1c-0.2-0.8-0.1-1.5,0.4-2.1c0.5-0.6,1-1.1,1.8-1.5c0.7-0.4,1.4-0.7,2-0.9
						c0.6-0.2,1-0.3,1.1-0.4c0.5-0.1,0.9-0.3,1.1-0.6c0.2-0.3,0.2-0.6,0-1c-0.2-0.3-0.5-0.5-1-0.6s-1-0.1-1.5,0
						c-1.8,0.4-3.6,1.3-5.5,2.6c-1.4,1-2.2,2.2-2.2,3.6c-5.2,4-10,6.9-14.5,8.6c-4.5,1.8-7.7,2.3-9.6,1.6c-1.4-0.5-2-1.8-1.8-4.1
						c0.2-2.3,1.7-5.7,4.6-10.2c0.2-0.3,0.2-0.6,0.1-0.9c-0.1-0.3-0.4-0.5-0.9-0.7c-0.5-0.2-0.9-0.2-1.4-0.2
						c-0.5,0.1-0.9,0.2-1.1,0.5c-0.1,0-0.5,0.4-1.3,1.1c-0.8,0.7-1.8,1.6-3.1,2.7c-2.1-1.4-4.1-2.2-6-2.4c-1.9-0.2-3.6-0.1-5.1,0.3
						c-2.8,0.7-5.4,1.9-7.7,3.6c-0.1,0.1-0.2,0.1-0.3,0.1c-0.1,0-0.7,0.4-1.8,1.2c-1.2,0.8-2.7,1.7-4.6,2.7c-1.9,1-4,2-6.2,2.9
						s-4.5,1.5-6.6,1.9c-0.7,0.1-1.3,0.2-1.7,0.1c-0.4,0-0.7-0.1-1-0.2c-0.2-0.1-0.4-0.1-0.4-0.2c-1.3-0.8-2-2.1-2.2-3.9
						c-0.2-1.8-0.2-3.3-0.1-4.5c0.1-0.4,0.1-0.8,0.1-1.1c0-0.9-0.3-1.5-0.8-1.9c-0.5-0.4-1-0.6-1.5-0.7c-0.5-0.2-1.2-0.2-2.1-0.2
						s-2.1,0.4-3.6,0.9c-1.5,0.6-3.4,1.5-5.7,2.9c-1.9,1.2-4.1,2.8-6.4,4.9l7-10.3c0.3-0.3,0.3-0.6,0.1-1c-0.2-0.3-0.5-0.5-1.1-0.6
						c-0.5-0.1-1-0.1-1.5,0s-0.8,0.3-1,0.6l-4.1,6c-0.1,0.1-0.3,0.1-0.4,0.2c-6.7,4.3-12.7,7.7-18,10c-1,0.5-2,0.8-2.8,1.1
						s-1.5,0.5-2.1,0.7c-0.6,0.2-1.1,0.3-1.6,0.4s-0.8,0.1-1.2,0.2s-0.6,0-0.7,0s-0.3,0-0.5-0.1c-0.1-0.1-0.1-0.2-0.2-0.3
						s-0.1-0.2-0.1-0.4c0-0.2,0-0.4,0-0.8c0-0.3,0.1-0.7,0.3-1.1c0.2-0.4,0.4-1,0.7-1.5c0.3-0.6,0.7-1.3,1.1-2
						c0.5-0.7,1-1.6,1.7-2.6c0.7-0.9,1.5-2,2.4-3.2s2-2.4,3.2-3.8c0.3-0.3,0.3-0.6,0.1-1c-0.2-0.3-0.5-0.6-0.9-0.8
						c-0.5-0.2-0.9-0.2-1.5-0.1c-0.5,0.1-0.9,0.3-1.2,0.6c-1.3,1.4-2.4,2.8-3.4,4.1c-0.2,0.1-0.4,0.1-0.5,0.2
						c-1.4,0.9-3.4,2.3-6,3.9c-2.5,1.7-5.1,3.2-7.8,4.5c-2.6,1.3-4.7,2-6.1,2c-0.2,0-0.4-0.1-0.6-0.2c-0.2-0.1-0.4-0.2-0.7-0.5
						c-0.7-0.8-1.3-1.8-1.9-3c-0.5-1.2-1-3-1.2-5.2c0-0.2,0-0.5-0.1-0.9c-0.1-0.4-0.3-0.7-0.7-1.1c-0.4-0.4-0.9-0.6-1.7-0.8
						c-1.4-0.2-2.9,0.3-4.5,1.5c-1.6,1.2-3.7,3.2-6.2,5.8c-1,1-2,2-3.1,3c-1.1,1-2.1,1.9-3,2.6c0.7-2.4,3.1-6.8,7.2-13.2
						c0.9-1.6,0.5-2.7-1.1-3.4c-0.8-0.4-2-0.4-3.6,0s-3.5,1.6-5.9,3.5c-3.2,2.8-6.9,6.3-11.1,10.6c2.8-4.4,5.9-9.1,9.3-14.1
						c0.3-0.2,0.4-0.5,0.4-0.8c0-0.3-0.2-0.6-0.6-0.9s-0.8-0.4-1.4-0.3c-0.2,0-0.5,0.1-0.7,0.1c-0.1,0-0.1,0-0.2,0
						c-0.4,0.1-0.6,0.3-0.9,0.5c-1.4,0.9-3.2,2.1-5.6,3.7c-2.6,1.7-5.1,3.1-7.8,4.5c-2.6,1.3-4.7,2-6.1,2c-0.2,0-0.4-0.1-0.6-0.2
						c-0.2-0.1-0.4-0.2-0.7-0.5c-0.7-0.8-1.3-1.8-1.9-3c-0.6-1.2-0.9-3-1.2-5.2c0-0.2-0.1-0.5-0.1-0.9c-0.1-0.4-0.3-0.7-0.7-1.1
						c-0.3-0.3-0.7-0.6-1.2-0.6C213,106.2,212.9,106.2,212.7,106.2"/>
				</defs>
				<clipPath id="SVGID_00000025432808529431053430000006825682558636510883_">
					<use xlink:href="#SVGID_00000139269885228862139280000009624140297885239694_"  style="overflow:visible;"/>
				</clipPath>
				
					<rect x="210.9" y="106.2" style="clip-path:url(#SVGID_00000025432808529431053430000006825682558636510883_);fill:#21409A;" width="228.5" height="34.7"/>
			</g>
		</g>
	</g>
</g>
</svg>
