<?xml version="1.0" encoding="utf-8"?>
<!-- Generator: Adobe Illustrator 26.2.1, SVG Export Plug-In . SVG Version: 6.00 Build 0)  -->
<svg version="1.1" id="Layer_1" xmlns="http://www.w3.org/2000/svg" xmlns:xlink="http://www.w3.org/1999/xlink" x="0px" y="0px"
	 viewBox="0 0 505.4 149.3" style="enable-background:new 0 0 505.4 149.3;" xml:space="preserve">
<style type="text/css">
	.st0{fill:#21409A;}
	.st1{fill:#00B5BF;}
	.st2{clip-path:url(#SVGID_00000150782007473707221060000002358912031784673949_);fill:#21409A;}
	.st3{clip-path:url(#SVGID_00000058588075500999342360000001412069036306334376_);fill:#21409A;}
</style>
<g>
	<g>
		<g>
			<path class="st0" d="M48,145.7c-13.8-4.5-25.7-12.5-34.3-23.1C4.8,111.7,0,98.8,0,85.5l0.1-34.6c0-8.7,5.6-16.6,14.6-20.5l4.4-2
				L19,86.8c0,1.1,0.1,2.2,0.2,3.3c0.8,11.5,5.1,22.8,12.2,32.7c5.9,8.2,13.8,15.3,23,20.7C52.4,144.2,50.2,145,48,145.7z"/>
			<path class="st0" d="M74.4,145.7c-2.1-0.7-4.2-1.5-6.3-2.4c9.2-5.4,17.1-12.5,23.1-20.8c7.2-9.9,11.4-21.2,12.2-32.8
				c0.2-1,0.2-2.1,0.2-3.2V22.7c0-8.7,5.6-16.5,14.6-20.5l4.5-2.2v85.3c0,13.4-4.8,26.3-13.8,37.3
				C100.3,133.2,88.1,141.4,74.4,145.7z"/>
		</g>
		<g>
			<g>
				<ellipse class="st1" cx="80.2" cy="73.9" rx="10.2" ry="10.3"/>
				<path class="st1" d="M118.7,104.8c0.1-0.2,0.1-0.3,0.1-0.3c-15.8,8.1-23.7,8.2-28.2,8.1c-10-0.3-7.7-8.2-5.8-16
					c1.9-7.8-10.7-7-8.9-0.3c1.8,6.7,2.9,17.3-9.7,17.9c-12.6,0.6-12.1-6.1-23.5-13.7c-7.6-5.1-14.1-0.4-21.4,4.5
					c-5.1,3.4-9.9,4.9-14.3,4.8L5.4,110c9.5,20.1,26.2,30,38.7,34.8c0.3,0.1,0.6,0.2,0.9,0.3c0.2,0.1,0.5,0.2,0.8,0.3
					c8.8,3.2,15.3,3.9,15.3,3.9c47.1-6.7,58.1-44.7,58.1-44.7C119,104.7,118.8,104.7,118.7,104.8z"/>
			</g>
		</g>
	</g>
	<g>
		<path d="M149.3,54.5v19.1c0,4,1.2,7.4,3.7,10.2s5.4,4.2,8.9,4.2s6.5-1.4,8.9-4.2s3.7-6.2,3.7-10.2V54.5h4.2v19.3
			c-0.1,5.3-1.7,9.8-5,13.5s-7.2,5.6-11.9,5.6c-4.6,0-8.6-1.9-11.9-5.6c-3.3-3.7-4.9-8.3-5-13.6V54.5H149.3z"/>
		<path d="M212.8,92.8V73.7c0-4-1.3-7.4-3.7-10.2s-5.4-4.2-9-4.2c-3.5,0-6.4,1.4-8.9,4.2c-2.4,2.8-3.7,6.1-3.8,10.1v19.3h-4.2V73.7
			c0-5.3,1.6-9.8,4.9-13.6c3.3-3.8,7.3-5.6,11.9-5.6c4.6,0,8.6,1.9,11.9,5.6c3.3,3.7,5,8.2,5,13.5v19.3L212.8,92.8L212.8,92.8z"/>
		<rect x="221.5" y="54.5" width="4.2" height="38.4"/>
		<path d="M255.5,54.5v38.3h-8.4c-4.6,0-8.6-1.9-11.9-5.6c-3.3-3.7-5-8.2-5-13.5V54.4h4.2v19.1c0,4,1.2,7.4,3.7,10.2
			c2.5,2.8,5.5,4.2,9,4.2h4.2V54.4L255.5,54.5L255.5,54.5z"/>
		<path d="M293.5,59.1h-16.6c-3.5,0-6.5,1.4-9,4.2s-3.7,6.2-3.7,10.2c0,3.9,1.2,7.4,3.7,10.2c2.5,2.8,5.5,4.2,9,4.2h16.6v4.8h-16.8
			c-4.6-0.1-8.6-2-11.8-5.7s-4.9-8.2-4.9-13.5s1.6-9.8,4.9-13.6s7.2-5.7,11.8-5.7h16.8V59.1z M260.4,73.6c0-0.7,0.2-1.2,0.6-1.7
			s0.9-0.7,1.5-0.7h25V76h-25c-0.6,0-1.1-0.2-1.5-0.7S260.4,74.2,260.4,73.6"/>
		<path d="M307.5,80c1,2.4,2.6,4.3,4.6,5.8s4.3,2.2,6.7,2.2v4.8c-3.6,0-6.9-1.2-9.8-3.6s-4.9-5.4-6.1-9.2h-0.7v12.8H298V54.4h9.6
			c3.1,0,5.7,1.2,7.9,3.8c2.2,2.5,3.3,5.5,3.3,9c0,3.5-1.1,6.6-3.3,9.1C313.3,78.8,310.6,80,307.5,80 M302.2,75.2h5.4v-0.1
			c1.9,0,3.6-0.8,4.9-2.3s2.1-3.4,2.1-5.6s-0.7-4.1-2-5.6c-1.4-1.6-3-2.3-5-2.3v-0.1h-5.4V75.2L302.2,75.2z"/>
		<path d="M356.9,59.2h-16.7c-3.1,0-5.9,1.1-8.2,3.4c-2.4,2.3-3.8,5.1-4.3,8.5h29.2v2.4c0,5.3-1.6,9.9-4.9,13.6s-7.2,5.6-11.9,5.7
			h-16.9V88H340c3.1,0,5.8-1.1,8.2-3.4c2.4-2.3,3.8-5.2,4.3-8.6h-29.2v-2.3c0-5.3,1.6-9.8,4.9-13.6s7.2-5.6,11.9-5.7h16.8
			L356.9,59.2L356.9,59.2z"/>
		<path d="M378.3,54.3c4.6,0,8.6,1.9,11.9,5.6c3.3,3.8,5,8.3,5,13.6v19.3H391v-9.7h-25.3v9.7h-4.2V73.5c0-5.3,1.6-9.8,5-13.6
			C369.6,56.2,373.6,54.3,378.3,54.3 M390.9,78.3v-4.7c0-3.9-1.2-7.3-3.7-10.2s-5.5-4.2-8.9-4.2c-3.5,0-6.5,1.4-9,4.2
			s-3.7,6.2-3.7,10.2v4.7H390.9z"/>
		<path d="M420.3,88v4.8h-9.4c-3.1,0-5.7-1.2-7.9-3.7s-3.3-5.5-3.3-9V54.4h4.3V80c0,2.2,0.7,4.1,2,5.6c1.4,1.5,3,2.3,4.9,2.3
			L420.3,88L420.3,88z"/>
		<rect x="424.8" y="54.5" width="4.2" height="38.4"/>
		<path d="M467.1,54.5v1.7c0,5.3-1.6,9.9-4.9,13.6c-3.3,3.8-7.3,5.6-11.9,5.6c-3.2,0-6,1.2-8.3,3.6c-2.4,2.4-3.8,5.4-4.2,8.9h29.4
			v4.8h-33.7v-2.9c0-5.3,1.6-9.9,4.9-13.6c3.3-3.8,7.3-5.6,11.9-5.6c3,0,5.6-1.1,7.9-3.2s3.8-4.9,4.4-8.1h-29.2v-4.8L467.1,54.5
			L467.1,54.5z"/>
		<path d="M488.5,54.3c4.6,0,8.6,1.9,11.9,5.6c3.3,3.8,5,8.3,5,13.6v19.3h-4.2v-9.7h-25.3v9.7h-4.2V73.5c0-5.3,1.6-9.8,5-13.6
			C479.9,56.2,483.9,54.3,488.5,54.3 M501.2,78.3v-4.7c0-3.9-1.2-7.3-3.7-10.2s-5.5-4.2-8.9-4.2c-3.5,0-6.5,1.4-9,4.2
			s-3.7,6.2-3.7,10.2v4.7H501.2z"/>
	</g>
	<g>
		<g>
			<g>
				<path id="SVGID_00000001653187176357155730000007384388893663293351_" class="st0" d="M301.8,101.1c-0.5,0.1-0.9,0.3-1.1,0.6
					l-1.4,1.7c-0.3,0.3-0.3,0.6-0.1,1c0.2,0.3,0.5,0.6,1,0.7c0.3,0.1,0.5,0.1,0.9,0.1c0.7,0,1.3-0.2,1.7-0.7l1.3-1.7
					c0.3-0.3,0.3-0.6,0.1-0.9c-0.2-0.3-0.5-0.6-1-0.7c-0.2-0.1-0.5-0.1-0.8-0.1C302.2,101,302,101.1,301.8,101.1"/>
			</g>
			<g>
				<g>
					<defs>
						<path id="SVGID_1_" d="M301.8,101.1c-0.5,0.1-0.9,0.3-1.1,0.6l-1.4,1.7c-0.3,0.3-0.3,0.6-0.1,1c0.2,0.3,0.5,0.6,1,0.7
							c0.3,0.1,0.5,0.1,0.9,0.1c0.7,0,1.3-0.2,1.7-0.7l1.3-1.7c0.3-0.3,0.3-0.6,0.1-0.9c-0.2-0.3-0.5-0.6-1-0.7
							c-0.2-0.1-0.5-0.1-0.8-0.1C302.2,101,302,101.1,301.8,101.1"/>
					</defs>
					<clipPath id="SVGID_00000165200375818324478210000007129988072741484940_">
						<use xlink:href="#SVGID_1_"  style="overflow:visible;"/>
					</clipPath>
					
						<rect x="299" y="101" style="clip-path:url(#SVGID_00000165200375818324478210000007129988072741484940_);fill:#21409A;" width="5.4" height="4.1"/>
				</g>
			</g>
		</g>
		<g>
			<g>
				<path id="SVGID_00000068671785230718852060000006816377110036397489_" class="st0" d="M401.9,138.4c-0.3-0.5,0.3-1.6,1.6-3.3
					c1.4-1.7,4.2-3.9,8.4-6.5c-0.1,1.9-0.6,3.5-1.4,4.9c-1.4,2-3,3.4-4.8,4.1c-1.5,0.6-2.7,0.9-3.5,0.9
					C402.1,138.4,402,138.4,401.9,138.4 M357.3,126.3c-0.1-0.5,0.2-1.4,0.7-2.5c1.2-2.5,3.2-4.9,5.8-7.1c2.6-2.3,5.4-3.6,8.3-4.1
					c2.3-0.3,4.3,0.3,6.2,1.7c0.1,0.1,0.3,0.2,0.4,0.2c-3.3,2.7-6.8,5.3-10.6,7.8c-1.6,1-3,1.9-4.2,2.5s-2.1,1.1-3,1.5
					c-0.8,0.3-1.5,0.6-2,0.7s-1,0.2-1.5,0.2C357.4,127.1,357.4,126.8,357.3,126.3 M212.7,106.2c-1.8,0.8-1.4,2.7-1.4,2.7
					c0.3,2.4,0.8,4.4,1.4,5.8c0.6,1.4,1.3,2.6,2.2,3.5c0.6,0.7,1.3,1.2,2.1,1.4s1.4,0.4,2.1,0.4c2.2,0.2,5.1-0.5,8.7-2.3
					c2-0.9,4.3-2.3,7-3.9c-1.1,1.8-2.4,3.6-3.7,5.7c-2.3,3.5-4,6.2-5.2,8.3c-0.7,1.2-1.2,2.2-1.6,2.9c-0.3,0.5-0.5,1-0.5,1.4
					s0.3,0.9,0.9,1.2c0.3,0.1,0.7,0.2,1.1,0.2c0.6,0,1.2-0.2,1.7-0.6c1.5-1.2,4.1-3.7,7.7-7.5c2.1-2.1,4.2-4.3,6.3-6.4
					s4-3.8,5.6-5.2c1.8-1.4,3.1-2.3,4-2.6c-1.9,3-3.5,5.5-4.5,7.6c-1.1,2-1.9,3.6-2.3,4.9c-0.5,1.2-0.7,2.1-0.7,2.8
					c0,0.6,0.1,1.1,0.3,1.4c0.2,0.3,0.4,0.4,0.6,0.5c0.3,0.2,0.7,0.3,1.2,0.4s1.2,0,2.1-0.2c2.2-0.8,5.2-3.3,9.1-7.5
					c1-1,2.1-2,3.2-3.1s2.1-2,3-2.6c0.3,2.4,0.8,4.4,1.4,5.8s1.3,2.6,2.2,3.5c0.6,0.7,1.3,1.2,2.1,1.4s1.4,0.4,2.1,0.4
					c2.2,0.2,5.1-0.5,8.7-2.3c2.1-1,4.7-2.5,7.7-4.4c-0.4,0.7-0.8,1.4-1,2c-0.3,0.5-0.5,1.1-0.7,1.9s-0.3,1.6-0.1,2.5
					c0.2,0.9,0.8,1.6,1.8,2.1c0.8,0.4,1.8,0.6,3,0.6c2.7-0.1,5.9-0.9,9.6-2.5c3.7-1.6,7.3-3.4,10.8-5.4c0.8-0.5,1.5-0.9,2.2-1.3
					l-8.2,12.1c-0.2,0.3-0.2,0.6,0,0.9c0.2,0.3,0.5,0.5,0.9,0.7c0.3,0.1,0.6,0.1,0.9,0.1c0.6,0,1.2-0.2,1.6-0.6
					c0.1-0.1,0.8-0.8,2.1-2.1c1.3-1.4,2.9-3,4.8-4.9s3.9-3.8,6-5.6s3.9-3.2,5.5-4.2c2.2-1.3,3.9-2.1,5-2.6c1.1-0.4,1.8-0.6,2.1-0.6
					c0.1,0,0.1,0.1,0.1,0.2c0,0.2,0,0.6-0.1,0.9v0.1c-0.1,1.6,0,3.4,0.3,5.5s1.5,3.7,3.5,4.9c0.6,0.3,1.4,0.6,2.5,0.8s2.4,0.2,3.9,0
					c3.4-0.6,6.6-1.7,9.8-3.1c0.7-0.3,1.3-0.6,2-0.9c-1.1,1.7-1.7,3.3-1.9,4.8c0,1.1,0.3,1.9,0.9,2.5c0.6,0.5,1.1,0.8,1.6,1
					s1.1,0.2,1.7,0.2c3,0,7.4-1.8,13.3-5.6c3.6-2.4,7-4.9,10.3-7.6c-1.1,3.1-1.3,5.4-0.6,6.9c0.7,1.5,1.8,2.5,3.3,3
					c1.1,0.5,2.4,0.7,3.9,0.7c6.6-0.2,14.2-3.5,22.9-9.7c0.1,0.6,0.3,1.3,0.5,2.1c0.4,1.8,0.6,3.7,0.8,5.7c-0.6,0.3-1.1,0.7-1.6,1
					c-5,2.9-8.4,5.5-10.2,7.7c-1.8,2.2-2.5,3.8-2.1,5c0.3,0.9,1.1,1.5,2.2,1.8c0.6,0.1,1.2,0.2,1.9,0.2c1.9,0,4-0.5,6.2-1.5
					c2.3-1,4.2-2.7,5.8-5c1.3-2.3,1.9-5,1.7-8c5.6-3,10.7-5.5,15.2-7.5s6.9-3,7.2-3.1c0.5-0.2,0.7-0.5,0.9-0.8s0.1-0.6-0.2-1
					c-0.3-0.3-0.7-0.5-1.3-0.5c-0.5-0.1-1,0-1.5,0.1c-0.3,0.1-2.4,1-6.5,2.8s-8.8,4-14.1,6.8c-0.5-3.4-1-6.1-1.6-8.1
					c-0.2-0.8-0.1-1.5,0.4-2.1s1-1.1,1.8-1.5c0.7-0.4,1.4-0.7,2-0.9c0.6-0.2,1-0.3,1.1-0.4c0.5-0.1,0.9-0.3,1.1-0.6
					c0.2-0.3,0.2-0.6,0-1c-0.2-0.3-0.5-0.5-1-0.6s-1-0.1-1.5,0c-1.8,0.4-3.6,1.3-5.5,2.6c-1.4,1-2.2,2.2-2.2,3.6
					c-5.2,4-10,6.9-14.5,8.6c-4.5,1.8-7.7,2.3-9.6,1.6c-1.4-0.5-2-1.8-1.8-4.1c0.2-2.3,1.7-5.7,4.6-10.2c0.2-0.3,0.2-0.6,0.1-0.9
					s-0.4-0.5-0.9-0.7s-0.9-0.2-1.4-0.2c-0.5,0.1-0.9,0.2-1.1,0.5c-0.1,0-0.5,0.4-1.3,1.1s-1.8,1.6-3.1,2.7c-2.1-1.4-4.1-2.2-6-2.4
					c-1.9-0.2-3.6-0.1-5.1,0.3c-2.8,0.7-5.4,1.9-7.7,3.6c-0.1,0.1-0.2,0.1-0.3,0.1c-0.1,0-0.7,0.4-1.8,1.2c-1.2,0.8-2.7,1.7-4.6,2.7
					s-4,2-6.2,2.9s-4.5,1.5-6.6,1.9c-0.7,0.1-1.3,0.2-1.7,0.1c-0.4,0-0.7-0.1-1-0.2c-0.2-0.1-0.4-0.1-0.4-0.2
					c-1.3-0.8-2-2.1-2.2-3.9s-0.2-3.3-0.1-4.5c0.1-0.4,0.1-0.8,0.1-1.1c0-0.9-0.3-1.5-0.8-1.9s-1-0.6-1.5-0.7
					c-0.5-0.2-1.2-0.2-2.1-0.2s-2.1,0.4-3.6,0.9c-1.5,0.6-3.4,1.5-5.7,2.9c-1.9,1.2-4.1,2.8-6.4,4.9l7-10.3c0.3-0.3,0.3-0.6,0.1-1
					c-0.2-0.3-0.5-0.5-1.1-0.6c-0.5-0.1-1-0.1-1.5,0s-0.8,0.3-1,0.6l-4.1,6c-0.1,0.1-0.3,0.1-0.4,0.2c-6.7,4.3-12.7,7.7-18,10
					c-1,0.5-2,0.8-2.8,1.1s-1.5,0.5-2.1,0.7s-1.1,0.3-1.6,0.4s-0.8,0.1-1.2,0.2s-0.6,0-0.7,0s-0.3,0-0.5-0.1
					c-0.1-0.1-0.1-0.2-0.2-0.3s-0.1-0.2-0.1-0.4c0-0.2,0-0.4,0-0.8c0-0.3,0.1-0.7,0.3-1.1c0.2-0.4,0.4-1,0.7-1.5
					c0.3-0.6,0.7-1.3,1.1-2c0.5-0.7,1-1.6,1.7-2.6c0.7-0.9,1.5-2,2.4-3.2s2-2.4,3.2-3.8c0.3-0.3,0.3-0.6,0.1-1
					c-0.2-0.3-0.5-0.6-0.9-0.8c-0.5-0.2-0.9-0.2-1.5-0.1c-0.5,0.1-0.9,0.3-1.2,0.6c-1.3,1.4-2.4,2.8-3.4,4.1
					c-0.2,0.1-0.4,0.1-0.5,0.2c-1.4,0.9-3.4,2.3-6,3.9c-2.5,1.7-5.1,3.2-7.8,4.5c-2.6,1.3-4.7,2-6.1,2c-0.2,0-0.4-0.1-0.6-0.2
					s-0.4-0.2-0.7-0.5c-0.7-0.8-1.3-1.8-1.9-3c-0.5-1.2-1-3-1.2-5.2c0-0.2,0-0.5-0.1-0.9s-0.3-0.7-0.7-1.1c-0.4-0.4-0.9-0.6-1.7-0.8
					c-1.4-0.2-2.9,0.3-4.5,1.5s-3.7,3.2-6.2,5.8c-1,1-2,2-3.1,3s-2.1,1.9-3,2.6c0.7-2.4,3.1-6.8,7.2-13.2c0.9-1.6,0.5-2.7-1.1-3.4
					c-0.8-0.4-2-0.4-3.6,0s-3.5,1.6-5.9,3.5c-3.2,2.8-6.9,6.3-11.1,10.6c2.8-4.4,5.9-9.1,9.3-14.1c0.3-0.2,0.4-0.5,0.4-0.8
					s-0.2-0.6-0.6-0.9s-0.8-0.4-1.4-0.3c-0.2,0-0.5,0.1-0.7,0.1c-0.1,0-0.1,0-0.2,0c-0.4,0.1-0.6,0.3-0.9,0.5
					c-1.4,0.9-3.2,2.1-5.6,3.7c-2.6,1.7-5.1,3.1-7.8,4.5c-2.6,1.3-4.7,2-6.1,2c-0.2,0-0.4-0.1-0.6-0.2c-0.2-0.1-0.4-0.2-0.7-0.5
					c-0.7-0.8-1.3-1.8-1.9-3c-0.6-1.2-0.9-3-1.2-5.2c0-0.2-0.1-0.5-0.1-0.9c-0.1-0.4-0.3-0.7-0.7-1.1c-0.3-0.3-0.7-0.6-1.2-0.6
					C213,106.2,212.9,106.2,212.7,106.2"/>
			</g>
			<g>
				<g>
					<defs>
						<path id="SVGID_00000121263389635416115030000008742631541896094355_" d="M401.9,138.4c-0.3-0.5,0.3-1.6,1.6-3.3
							c1.4-1.7,4.2-3.9,8.4-6.5c-0.1,1.9-0.6,3.5-1.4,4.9c-1.4,2-3,3.4-4.8,4.1c-1.5,0.6-2.7,0.9-3.5,0.9
							C402.1,138.4,402,138.4,401.9,138.4 M357.3,126.3c-0.1-0.5,0.2-1.4,0.7-2.5c1.2-2.5,3.2-4.9,5.8-7.1c2.6-2.3,5.4-3.6,8.3-4.1
							c2.3-0.3,4.3,0.3,6.2,1.7c0.1,0.1,0.3,0.2,0.4,0.2c-3.3,2.7-6.8,5.3-10.6,7.8c-1.6,1-3,1.9-4.2,2.5s-2.1,1.1-3,1.5
							c-0.8,0.3-1.5,0.6-2,0.7s-1,0.2-1.5,0.2C357.4,127.1,357.4,126.8,357.3,126.3 M212.7,106.2c-1.8,0.8-1.4,2.7-1.4,2.7
							c0.3,2.4,0.8,4.4,1.4,5.8c0.6,1.4,1.3,2.6,2.2,3.5c0.6,0.7,1.3,1.2,2.1,1.4s1.4,0.4,2.1,0.4c2.2,0.2,5.1-0.5,8.7-2.3
							c2-0.9,4.3-2.3,7-3.9c-1.1,1.8-2.4,3.6-3.7,5.7c-2.3,3.5-4,6.2-5.2,8.3c-0.7,1.2-1.2,2.2-1.6,2.9c-0.3,0.5-0.5,1-0.5,1.4
							s0.3,0.9,0.9,1.2c0.3,0.1,0.7,0.2,1.1,0.2c0.6,0,1.2-0.2,1.7-0.6c1.5-1.2,4.1-3.7,7.7-7.5c2.1-2.1,4.2-4.3,6.3-6.4
							s4-3.8,5.6-5.2c1.8-1.4,3.1-2.3,4-2.6c-1.9,3-3.5,5.5-4.5,7.6c-1.1,2-1.9,3.6-2.3,4.9c-0.5,1.2-0.7,2.1-0.7,2.8
							c0,0.6,0.1,1.1,0.3,1.4c0.2,0.3,0.4,0.4,0.6,0.5c0.3,0.2,0.7,0.3,1.2,0.4s1.2,0,2.1-0.2c2.2-0.8,5.2-3.3,9.1-7.5
							c1-1,2.1-2,3.2-3.1s2.1-2,3-2.6c0.3,2.4,0.8,4.4,1.4,5.8s1.3,2.6,2.2,3.5c0.6,0.7,1.3,1.2,2.1,1.4s1.4,0.4,2.1,0.4
							c2.2,0.2,5.1-0.5,8.7-2.3c2.1-1,4.7-2.5,7.7-4.4c-0.4,0.7-0.8,1.4-1,2c-0.3,0.5-0.5,1.1-0.7,1.9s-0.3,1.6-0.1,2.5
							c0.2,0.9,0.8,1.6,1.8,2.1c0.8,0.4,1.8,0.6,3,0.6c2.7-0.1,5.9-0.9,9.6-2.5c3.7-1.6,7.3-3.4,10.8-5.4c0.8-0.5,1.5-0.9,2.2-1.3
							l-8.2,12.1c-0.2,0.3-0.2,0.6,0,0.9c0.2,0.3,0.5,0.5,0.9,0.7c0.3,0.1,0.6,0.1,0.9,0.1c0.6,0,1.2-0.2,1.6-0.6
							c0.1-0.1,0.8-0.8,2.1-2.1c1.3-1.4,2.9-3,4.8-4.9s3.9-3.8,6-5.6s3.9-3.2,5.5-4.2c2.2-1.3,3.9-2.1,5-2.6
							c1.1-0.4,1.8-0.6,2.1-0.6c0.1,0,0.1,0.1,0.1,0.2c0,0.2,0,0.6-0.1,0.9v0.1c-0.1,1.6,0,3.4,0.3,5.5s1.5,3.7,3.5,4.9
							c0.6,0.3,1.4,0.6,2.5,0.8s2.4,0.2,3.9,0c3.4-0.6,6.6-1.7,9.8-3.1c0.7-0.3,1.3-0.6,2-0.9c-1.1,1.7-1.7,3.3-1.9,4.8
							c0,1.1,0.3,1.9,0.9,2.5c0.6,0.5,1.1,0.8,1.6,1s1.1,0.2,1.7,0.2c3,0,7.4-1.8,13.3-5.6c3.6-2.4,7-4.9,10.3-7.6
							c-1.1,3.1-1.3,5.4-0.6,6.9c0.7,1.5,1.8,2.5,3.3,3c1.1,0.5,2.4,0.7,3.9,0.7c6.6-0.2,14.2-3.5,22.9-9.7c0.1,0.6,0.3,1.3,0.5,2.1
							c0.4,1.8,0.6,3.7,0.8,5.7c-0.6,0.3-1.1,0.7-1.6,1c-5,2.9-8.4,5.5-10.2,7.7c-1.8,2.2-2.5,3.8-2.1,5c0.3,0.9,1.1,1.5,2.2,1.8
							c0.6,0.1,1.2,0.2,1.9,0.2c1.9,0,4-0.5,6.2-1.5c2.3-1,4.2-2.7,5.8-5c1.3-2.3,1.9-5,1.7-8c5.6-3,10.7-5.5,15.2-7.5
							s6.9-3,7.2-3.1c0.5-0.2,0.7-0.5,0.9-0.8s0.1-0.6-0.2-1c-0.3-0.3-0.7-0.5-1.3-0.5c-0.5-0.1-1,0-1.5,0.1c-0.3,0.1-2.4,1-6.5,2.8
							s-8.8,4-14.1,6.8c-0.5-3.4-1-6.1-1.6-8.1c-0.2-0.8-0.1-1.5,0.4-2.1s1-1.1,1.8-1.5c0.7-0.4,1.4-0.7,2-0.9
							c0.6-0.2,1-0.3,1.1-0.4c0.5-0.1,0.9-0.3,1.1-0.6c0.2-0.3,0.2-0.6,0-1c-0.2-0.3-0.5-0.5-1-0.6s-1-0.1-1.5,0
							c-1.8,0.4-3.6,1.3-5.5,2.6c-1.4,1-2.2,2.2-2.2,3.6c-5.2,4-10,6.9-14.5,8.6c-4.5,1.8-7.7,2.3-9.6,1.6c-1.4-0.5-2-1.8-1.8-4.1
							c0.2-2.3,1.7-5.7,4.6-10.2c0.2-0.3,0.2-0.6,0.1-0.9s-0.4-0.5-0.9-0.7s-0.9-0.2-1.4-0.2c-0.5,0.1-0.9,0.2-1.1,0.5
							c-0.1,0-0.5,0.4-1.3,1.1s-1.8,1.6-3.1,2.7c-2.1-1.4-4.1-2.2-6-2.4c-1.9-0.2-3.6-0.1-5.1,0.3c-2.8,0.7-5.4,1.9-7.7,3.6
							c-0.1,0.1-0.2,0.1-0.3,0.1c-0.1,0-0.7,0.4-1.8,1.2c-1.2,0.8-2.7,1.7-4.6,2.7s-4,2-6.2,2.9s-4.5,1.5-6.6,1.9
							c-0.7,0.1-1.3,0.2-1.7,0.1c-0.4,0-0.7-0.1-1-0.2c-0.2-0.1-0.4-0.1-0.4-0.2c-1.3-0.8-2-2.1-2.2-3.9s-0.2-3.3-0.1-4.5
							c0.1-0.4,0.1-0.8,0.1-1.1c0-0.9-0.3-1.5-0.8-1.9s-1-0.6-1.5-0.7c-0.5-0.2-1.2-0.2-2.1-0.2s-2.1,0.4-3.6,0.9
							c-1.5,0.6-3.4,1.5-5.7,2.9c-1.9,1.2-4.1,2.8-6.4,4.9l7-10.3c0.3-0.3,0.3-0.6,0.1-1c-0.2-0.3-0.5-0.5-1.1-0.6
							c-0.5-0.1-1-0.1-1.5,0s-0.8,0.3-1,0.6l-4.1,6c-0.1,0.1-0.3,0.1-0.4,0.2c-6.7,4.3-12.7,7.7-18,10c-1,0.5-2,0.8-2.8,1.1
							s-1.5,0.5-2.1,0.7s-1.1,0.3-1.6,0.4s-0.8,0.1-1.2,0.2s-0.6,0-0.7,0s-0.3,0-0.5-0.1c-0.1-0.1-0.1-0.2-0.2-0.3s-0.1-0.2-0.1-0.4
							c0-0.2,0-0.4,0-0.8c0-0.3,0.1-0.7,0.3-1.1c0.2-0.4,0.4-1,0.7-1.5c0.3-0.6,0.7-1.3,1.1-2c0.5-0.7,1-1.6,1.7-2.6
							c0.7-0.9,1.5-2,2.4-3.2s2-2.4,3.2-3.8c0.3-0.3,0.3-0.6,0.1-1c-0.2-0.3-0.5-0.6-0.9-0.8c-0.5-0.2-0.9-0.2-1.5-0.1
							c-0.5,0.1-0.9,0.3-1.2,0.6c-1.3,1.4-2.4,2.8-3.4,4.1c-0.2,0.1-0.4,0.1-0.5,0.2c-1.4,0.9-3.4,2.3-6,3.9
							c-2.5,1.7-5.1,3.2-7.8,4.5c-2.6,1.3-4.7,2-6.1,2c-0.2,0-0.4-0.1-0.6-0.2s-0.4-0.2-0.7-0.5c-0.7-0.8-1.3-1.8-1.9-3
							c-0.5-1.2-1-3-1.2-5.2c0-0.2,0-0.5-0.1-0.9s-0.3-0.7-0.7-1.1c-0.4-0.4-0.9-0.6-1.7-0.8c-1.4-0.2-2.9,0.3-4.5,1.5
							s-3.7,3.2-6.2,5.8c-1,1-2,2-3.1,3s-2.1,1.9-3,2.6c0.7-2.4,3.1-6.8,7.2-13.2c0.9-1.6,0.5-2.7-1.1-3.4c-0.8-0.4-2-0.4-3.6,0
							s-3.5,1.6-5.9,3.5c-3.2,2.8-6.9,6.3-11.1,10.6c2.8-4.4,5.9-9.1,9.3-14.1c0.3-0.2,0.4-0.5,0.4-0.8s-0.2-0.6-0.6-0.9
							s-0.8-0.4-1.4-0.3c-0.2,0-0.5,0.1-0.7,0.1c-0.1,0-0.1,0-0.2,0c-0.4,0.1-0.6,0.3-0.9,0.5c-1.4,0.9-3.2,2.1-5.6,3.7
							c-2.6,1.7-5.1,3.1-7.8,4.5c-2.6,1.3-4.7,2-6.1,2c-0.2,0-0.4-0.1-0.6-0.2c-0.2-0.1-0.4-0.2-0.7-0.5c-0.7-0.8-1.3-1.8-1.9-3
							c-0.6-1.2-0.9-3-1.2-5.2c0-0.2-0.1-0.5-0.1-0.9c-0.1-0.4-0.3-0.7-0.7-1.1c-0.3-0.3-0.7-0.6-1.2-0.6
							C213,106.2,212.9,106.2,212.7,106.2"/>
					</defs>
					<clipPath id="SVGID_00000090259899961927125150000011621101951823492494_">
						<use xlink:href="#SVGID_00000121263389635416115030000008742631541896094355_"  style="overflow:visible;"/>
					</clipPath>
					
						<rect x="210.9" y="106.2" style="clip-path:url(#SVGID_00000090259899961927125150000011621101951823492494_);fill:#21409A;" width="228.5" height="34.7"/>
				</g>
			</g>
		</g>
	</g>
</g>
</svg>
