<?xml version="1.0" encoding="UTF-8"?>
<svg id="Camada_2" data-name="Camada 2" xmlns="http://www.w3.org/2000/svg" xmlns:xlink="http://www.w3.org/1999/xlink" viewBox="0 0 127 37.53">
  <defs>
    <style>
      .cls-1 {
        fill: #fff;
      }

      .cls-2 {
        clip-path: url(#clippath-1);
      }

      .cls-3 {
        clip-path: url(#clippath-4);
      }

      .cls-4 {
        clip-path: url(#clippath);
      }

      .cls-5 {
        clip-path: url(#clippath-3);
      }
    </style>
    <clipPath id="clippath">
      <path class="cls-1" d="M75.84,25.41c-.12,.03-.22,.08-.28,.15l-.34,.42c-.07,.08-.08,.16-.04,.24,.04,.08,.13,.14,.26,.18,.06,.02,.14,.03,.22,.03,.18,0,.32-.06,.44-.17l.32-.42c.06-.07,.08-.15,.04-.23-.04-.08-.13-.15-.26-.19-.06-.02-.13-.03-.19-.03-.05,0-.11,0-.16,.02"/>
    </clipPath>
    <clipPath id="clippath-1">
      <path class="cls-1" d="M100.99,34.77c-.06-.13,.07-.4,.41-.83,.34-.43,1.05-.97,2.12-1.64-.03,.47-.15,.87-.34,1.22-.36,.5-.76,.84-1.19,1.02-.37,.16-.67,.23-.89,.23-.04,0-.07,0-.11,0m-11.2-3.02c-.02-.13,.04-.34,.17-.63,.31-.62,.8-1.22,1.46-1.79,.67-.57,1.36-.91,2.09-1.04,.57-.07,1.09,.07,1.56,.42,.03,.02,.06,.04,.1,.06-.83,.69-1.71,1.34-2.65,1.95-.41,.26-.76,.47-1.05,.63-.29,.16-.54,.28-.74,.37-.2,.08-.37,.14-.5,.18-.13,.04-.25,.05-.37,.05-.03-.01-.06-.08-.07-.21m-36.34-5.05c-.46,.19-.35,.67-.35,.67,.08,.61,.2,1.1,.35,1.45,.15,.35,.34,.65,.55,.87,.16,.18,.34,.3,.52,.36s.36,.1,.52,.11c.55,.05,1.28-.14,2.18-.57,.49-.24,1.09-.57,1.77-.99-.29,.44-.6,.91-.94,1.43-.57,.87-1.01,1.57-1.32,2.08-.18,.31-.31,.55-.39,.72-.08,.12-.13,.24-.13,.36s.07,.21,.23,.3c.08,.03,.17,.05,.27,.05,.15,0,.29-.05,.44-.14,.37-.3,1.02-.93,1.95-1.87,.52-.54,1.05-1.07,1.58-1.6,.54-.53,1.01-.96,1.41-1.3,.45-.36,.79-.58,1-.64-.49,.76-.87,1.39-1.14,1.9-.28,.51-.47,.91-.58,1.22-.11,.31-.17,.54-.18,.7,0,.16,.02,.28,.07,.34,.06,.07,.11,.11,.16,.13,.06,.04,.17,.08,.3,.1,.14,.03,.31,0,.52-.05,.55-.21,1.31-.83,2.29-1.87,.26-.25,.53-.51,.82-.79,.28-.28,.53-.49,.74-.65,.08,.61,.2,1.1,.35,1.45,.15,.35,.34,.65,.55,.87,.16,.18,.34,.3,.52,.36,.19,.06,.36,.1,.52,.11,.55,.05,1.28-.14,2.18-.57,.53-.26,1.18-.62,1.93-1.1-.1,.17-.19,.34-.26,.5-.06,.11-.13,.27-.18,.48-.06,.2-.06,.41-.02,.62,.04,.21,.19,.39,.45,.54,.21,.09,.46,.14,.75,.14,.68-.02,1.49-.23,2.41-.62,.93-.4,1.83-.85,2.72-1.36,.2-.11,.38-.22,.56-.33l-2.06,3.03c-.05,.08-.05,.16-.01,.23,.04,.07,.12,.13,.23,.17,.08,.02,.15,.03,.22,.03,.16,0,.3-.05,.41-.16,.03-.02,.21-.2,.52-.54,.32-.34,.72-.75,1.21-1.23,.49-.48,.99-.94,1.51-1.4,.52-.45,.98-.8,1.39-1.05,.55-.32,.97-.54,1.25-.64,.28-.1,.46-.16,.52-.16,.02,.01,.02,.03,.02,.06,0,.06,0,.14-.02,.23v.02c-.03,.4,0,.85,.07,1.37,.08,.52,.37,.93,.88,1.22,.15,.08,.35,.15,.62,.2,.27,.05,.6,.04,.99,0,.84-.16,1.66-.42,2.46-.78,.17-.08,.33-.16,.49-.23-.27,.43-.43,.83-.47,1.2,0,.28,.07,.49,.22,.62,.15,.13,.28,.21,.41,.24,.13,.03,.28,.05,.44,.05,.75,.01,1.86-.46,3.34-1.41,.91-.6,1.77-1.24,2.58-1.9-.28,.77-.32,1.35-.15,1.73,.18,.39,.45,.64,.83,.75,.28,.11,.6,.17,.97,.17,1.65-.06,3.57-.87,5.75-2.43,.04,.16,.08,.33,.12,.54,.1,.44,.16,.92,.19,1.43-.15,.08-.28,.17-.41,.25-1.25,.74-2.1,1.38-2.56,1.93-.45,.55-.63,.97-.54,1.26,.08,.23,.27,.38,.56,.45,.15,.03,.31,.05,.49,.05,.47,0,.99-.13,1.57-.39,.58-.26,1.06-.68,1.45-1.25,.32-.57,.47-1.24,.44-2.01,1.41-.76,2.68-1.39,3.81-1.88,1.13-.49,1.73-.75,1.81-.77,.11-.05,.19-.12,.22-.2,.03-.08,.02-.16-.05-.24-.08-.07-.19-.12-.32-.13-.13-.02-.25,0-.37,.04-.06,.02-.61,.25-1.63,.7s-2.21,1.01-3.56,1.71c-.11-.86-.25-1.55-.41-2.05-.05-.2-.02-.37,.1-.52,.11-.15,.26-.28,.45-.38,.19-.1,.36-.18,.51-.23,.15-.05,.25-.08,.28-.09,.13-.03,.22-.09,.27-.16,.05-.08,.05-.16,0-.24-.05-.07-.13-.13-.26-.16-.12-.04-.25-.04-.38,0-.45,.1-.92,.32-1.39,.65-.36,.25-.54,.55-.57,.91-1.31,1.01-2.52,1.73-3.63,2.17-1.13,.44-1.94,.58-2.42,.4-.34-.11-.49-.46-.45-1.03,.04-.57,.43-1.43,1.16-2.56,.05-.07,.06-.15,.02-.22-.03-.07-.11-.13-.22-.17-.11-.04-.23-.05-.35-.04-.12,.02-.22,.06-.28,.13-.02,0-.12,.09-.32,.27-.19,.18-.45,.4-.78,.67-.52-.35-1.02-.55-1.51-.6-.49-.05-.92-.02-1.29,.07-.71,.19-1.35,.49-1.94,.9-.03,.01-.06,.02-.09,.04-.02,.01-.17,.11-.46,.3-.29,.19-.68,.42-1.16,.68-.48,.26-1,.51-1.57,.73-.57,.23-1.12,.39-1.66,.48-.18,.03-.32,.04-.43,.03-.11-.01-.19-.03-.24-.05-.06-.02-.09-.04-.11-.05-.32-.2-.51-.52-.56-.97-.05-.45-.06-.82-.02-1.12,.02-.1,.02-.19,.02-.27,0-.22-.07-.37-.19-.47-.13-.09-.25-.16-.37-.19-.13-.04-.31-.05-.54-.04-.23,.02-.53,.09-.9,.23-.37,.14-.85,.39-1.44,.74-.49,.29-1.02,.7-1.61,1.22l1.75-2.59c.06-.08,.07-.16,.02-.24-.05-.08-.14-.13-.27-.16-.13-.03-.26-.03-.38,0-.12,.03-.21,.08-.26,.16l-1.02,1.5s-.07,.02-.1,.04c-1.69,1.09-3.2,1.93-4.53,2.51-.26,.11-.49,.21-.69,.28-.2,.07-.38,.13-.54,.18-.15,.05-.29,.08-.4,.1-.11,.02-.21,.03-.29,.04-.08,0-.14,0-.18,0s-.09,0-.13-.02c-.02-.03-.03-.06-.05-.09-.02-.03-.03-.06-.04-.11,0-.05,0-.11,0-.19,0-.08,.03-.17,.07-.28,.04-.11,.1-.24,.17-.39,.07-.15,.17-.32,.28-.51,.11-.19,.26-.4,.43-.64,.17-.24,.37-.51,.61-.8,.24-.3,.51-.62,.82-.96,.06-.08,.08-.16,.04-.24-.04-.08-.12-.14-.23-.2-.11-.04-.24-.05-.37-.02-.13,.03-.23,.08-.29,.15-.32,.37-.6,.71-.86,1.03-.05,.02-.1,.04-.14,.06-.36,.24-.86,.57-1.5,.98-.64,.42-1.29,.79-1.95,1.12-.66,.33-1.17,.5-1.55,.5-.05-.01-.1-.03-.15-.05-.05-.02-.11-.06-.17-.12-.18-.2-.34-.45-.47-.76-.14-.31-.24-.75-.3-1.31,0-.05-.01-.12-.04-.22-.02-.09-.08-.18-.17-.27-.09-.09-.23-.15-.43-.2-.34-.05-.72,.08-1.13,.38-.41,.31-.94,.79-1.57,1.46-.24,.25-.5,.51-.78,.76-.28,.26-.53,.48-.76,.66,.18-.6,.78-1.71,1.8-3.33,.23-.4,.14-.68-.27-.86-.21-.09-.51-.09-.9,0-.39,.1-.88,.39-1.49,.88-.81,.71-1.74,1.59-2.78,2.65,.71-1.11,1.48-2.29,2.33-3.53,.07-.06,.11-.12,.1-.19,0-.08-.06-.16-.16-.22-.1-.06-.21-.09-.34-.09-.06,0-.12,.01-.17,.03-.01,0-.03,0-.04,0-.1,.02-.16,.07-.21,.13-.35,.23-.82,.54-1.41,.92-.64,.42-1.29,.79-1.95,1.12-.66,.33-1.17,.5-1.55,.5-.05-.01-.1-.03-.15-.05-.05-.02-.11-.06-.17-.12-.18-.2-.34-.45-.47-.76-.14-.31-.24-.75-.3-1.31,0-.05-.01-.13-.04-.22-.02-.09-.08-.18-.17-.27-.07-.07-.17-.14-.29-.14-.04,0-.08,0-.12,.02"/>
    </clipPath>
    <clipPath id="clippath-3">
      <path class="cls-1" d="M19.1,24.16c.46,1.69,.72,4.37-2.44,4.52-3.16,.15-3.04-1.54-5.91-3.46-1.91-1.28-3.56-.1-5.39,1.15-1.29,.88-2.49,1.25-3.59,1.22l-.37,.04c4.2,8.93,13.9,9.91,13.9,9.91,11.84-1.69,14.6-11.3,14.6-11.3-3.97,2.04-5.97,2.08-7.1,2.04-2.53-.08-1.95-2.07-1.46-4.04,.24-.97-.41-1.41-1.07-1.41-.69,0-1.4,.48-1.16,1.34"/>
    </clipPath>
    <clipPath id="clippath-4">
      <path class="cls-1" d="M17.7,18.57c0,1.37,1.1,2.48,2.45,2.48s2.45-1.11,2.45-2.48-1.1-2.48-2.45-2.48-2.45,1.11-2.45,2.48"/>
    </clipPath>
  </defs>
  <g id="Layer_1" data-name="Layer 1">
    <g>
      <g>
        <path class="cls-1" d="M37.52,13.69v4.8c0,1,.31,1.86,.93,2.56,.62,.71,1.37,1.06,2.25,1.06s1.63-.35,2.25-1.06c.62-.71,.93-1.56,.93-2.56v-4.8h1.07v4.84c-.02,1.33-.44,2.46-1.26,3.39-.83,.93-1.82,1.4-2.99,1.4s-2.16-.47-2.99-1.41c-.83-.94-1.24-2.08-1.25-3.42v-4.8h1.06Z"/>
        <path class="cls-1" d="M53.48,23.32v-4.8c0-1.01-.32-1.87-.94-2.57-.62-.7-1.37-1.05-2.25-1.05s-1.62,.35-2.23,1.05c-.62,.7-.93,1.54-.95,2.54v4.84h-1.06v-4.8c0-1.33,.41-2.46,1.24-3.41,.83-.95,1.83-1.42,3-1.42s2.16,.47,2.99,1.4c.83,.93,1.25,2.06,1.26,3.39v4.84h-1.06Z"/>
        <rect class="cls-1" x="55.66" y="13.69" width="1.06" height="9.64"/>
        <path class="cls-1" d="M64.21,13.69v9.64h-2.11c-1.16,0-2.16-.47-2.99-1.4-.83-.93-1.25-2.06-1.26-3.39v-4.84h1.06v4.79c0,1,.31,1.86,.94,2.57,.62,.71,1.38,1.07,2.25,1.07h1.05V13.69h1.06Z"/>
        <path class="cls-1" d="M73.75,14.85h-4.18c-.88,0-1.63,.36-2.25,1.07-.62,.71-.93,1.57-.93,2.57s.31,1.85,.93,2.56c.62,.71,1.37,1.07,2.25,1.07h4.18v1.21h-4.22c-1.16-.02-2.16-.5-2.98-1.44-.82-.94-1.23-2.07-1.23-3.39s.41-2.46,1.23-3.4c.82-.94,1.81-1.42,2.98-1.44h4.22v1.21Zm-8.32,3.64c0-.17,.05-.31,.15-.43,.1-.12,.23-.17,.38-.17h6.29v1.21h-6.29c-.14,0-.27-.06-.37-.18-.11-.12-.16-.26-.16-.42"/>
        <path class="cls-1" d="M77.27,20.11c.26,.6,.65,1.08,1.16,1.45,.51,.37,1.07,.55,1.68,.55v1.21c-.91,0-1.73-.3-2.45-.89-.73-.6-1.24-1.37-1.54-2.32h-.18v3.21h-1.06V13.69h2.42c.77,0,1.44,.31,1.98,.94,.55,.63,.82,1.39,.82,2.27s-.28,1.65-.83,2.27c-.55,.63-1.22,.94-2.01,.94m-1.33-1.21h1.36c.48-.01,.89-.21,1.24-.6,.35-.39,.52-.86,.52-1.41s-.17-1.02-.51-1.41c-.34-.39-.76-.58-1.25-.58h0s-1.36-.01-1.36-.01v4.01Z"/>
        <path class="cls-1" d="M89.69,14.88h-4.2c-.78,0-1.47,.28-2.06,.85-.59,.57-.95,1.28-1.08,2.14h7.35v.6c0,1.34-.41,2.48-1.23,3.42-.82,.94-1.82,1.42-2.98,1.43h-4.24v-1.21h4.2c.78,0,1.47-.29,2.06-.87,.59-.58,.95-1.3,1.08-2.16h-7.35v-.58c0-1.33,.41-2.46,1.24-3.4,.83-.94,1.82-1.42,2.99-1.43h4.23v1.21Z"/>
        <path class="cls-1" d="M95.06,13.65c1.16,0,2.16,.47,2.99,1.42,.83,.95,1.25,2.08,1.25,3.41v4.84h-1.06v-2.45h-6.37v2.45h-1.06v-4.84c0-1.33,.42-2.46,1.25-3.41,.83-.95,1.83-1.42,3-1.42m3.18,6.02v-1.19c0-.99-.31-1.85-.94-2.56-.62-.71-1.37-1.07-2.24-1.07s-1.63,.36-2.25,1.07c-.62,.71-.94,1.56-.94,2.56v1.19h6.37Z"/>
        <path class="cls-1" d="M105.61,22.11v1.21h-2.37c-.77,0-1.44-.31-1.99-.93-.55-.62-.83-1.38-.83-2.27v-6.44h1.08v6.44c0,.56,.17,1.03,.51,1.41,.34,.39,.75,.58,1.23,.58h2.37Z"/>
        <rect class="cls-1" x="106.74" y="13.69" width="1.06" height="9.64"/>
        <path class="cls-1" d="M117.39,13.69v.44c0,1.34-.41,2.48-1.24,3.42-.83,.95-1.83,1.42-3,1.42-.8,0-1.5,.3-2.1,.91-.59,.6-.94,1.35-1.05,2.24h7.38v1.21h-8.46v-.73c0-1.34,.41-2.48,1.24-3.42,.83-.95,1.83-1.42,3-1.42,.75,0,1.42-.27,1.99-.81,.58-.54,.95-1.22,1.1-2.04h-7.34v-1.21h8.46Z"/>
        <path class="cls-1" d="M122.77,13.65c1.16,0,2.16,.47,2.99,1.42,.83,.95,1.25,2.08,1.25,3.41v4.84h-1.06v-2.45h-6.37v2.45h-1.06v-4.84c0-1.33,.42-2.46,1.25-3.41,.83-.95,1.83-1.42,3-1.42m3.18,6.02v-1.19c0-.99-.31-1.85-.94-2.56-.62-.71-1.37-1.07-2.24-1.07s-1.63,.36-2.25,1.07c-.62,.71-.94,1.56-.94,2.56v1.19h6.37Z"/>
      </g>
      <g>
        <g>
          <path class="cls-1" d="M75.84,25.41c-.12,.03-.22,.08-.28,.15l-.34,.42c-.07,.08-.08,.16-.04,.24,.04,.08,.13,.14,.26,.18,.06,.02,.14,.03,.22,.03,.18,0,.32-.06,.44-.17l.32-.42c.06-.07,.08-.15,.04-.23-.04-.08-.13-.15-.26-.19-.06-.02-.13-.03-.19-.03-.05,0-.11,0-.16,.02"/>
          <g class="cls-4">
            <rect class="cls-1" x="75.15" y="25.39" width="1.35" height="1.04"/>
          </g>
        </g>
        <g>
          <path class="cls-1" d="M100.99,34.77c-.06-.13,.07-.4,.41-.83,.34-.43,1.05-.97,2.12-1.64-.03,.47-.15,.87-.34,1.22-.36,.5-.76,.84-1.19,1.02-.37,.16-.67,.23-.89,.23-.04,0-.07,0-.11,0m-11.2-3.02c-.02-.13,.04-.34,.17-.63,.31-.62,.8-1.22,1.46-1.79,.67-.57,1.36-.91,2.09-1.04,.57-.07,1.09,.07,1.56,.42,.03,.02,.06,.04,.1,.06-.83,.69-1.71,1.34-2.65,1.95-.41,.26-.76,.47-1.05,.63-.29,.16-.54,.28-.74,.37-.2,.08-.37,.14-.5,.18-.13,.04-.25,.05-.37,.05-.03-.01-.06-.08-.07-.21m-36.34-5.05c-.46,.19-.35,.67-.35,.67,.08,.61,.2,1.1,.35,1.45,.15,.35,.34,.65,.55,.87,.16,.18,.34,.3,.52,.36s.36,.1,.52,.11c.55,.05,1.28-.14,2.18-.57,.49-.24,1.09-.57,1.77-.99-.29,.44-.6,.91-.94,1.43-.57,.87-1.01,1.57-1.32,2.08-.18,.31-.31,.55-.39,.72-.08,.12-.13,.24-.13,.36s.07,.21,.23,.3c.08,.03,.17,.05,.27,.05,.15,0,.29-.05,.44-.14,.37-.3,1.02-.93,1.95-1.87,.52-.54,1.05-1.07,1.58-1.6,.54-.53,1.01-.96,1.41-1.3,.45-.36,.79-.58,1-.64-.49,.76-.87,1.39-1.14,1.9-.28,.51-.47,.91-.58,1.22-.11,.31-.17,.54-.18,.7,0,.16,.02,.28,.07,.34,.06,.07,.11,.11,.16,.13,.06,.04,.17,.08,.3,.1,.14,.03,.31,0,.52-.05,.55-.21,1.31-.83,2.29-1.87,.26-.25,.53-.51,.82-.79,.28-.28,.53-.49,.74-.65,.08,.61,.2,1.1,.35,1.45,.15,.35,.34,.65,.55,.87,.16,.18,.34,.3,.52,.36,.19,.06,.36,.1,.52,.11,.55,.05,1.28-.14,2.18-.57,.53-.26,1.18-.62,1.93-1.1-.1,.17-.19,.34-.26,.5-.06,.11-.13,.27-.18,.48-.06,.2-.06,.41-.02,.62,.04,.21,.19,.39,.45,.54,.21,.09,.46,.14,.75,.14,.68-.02,1.49-.23,2.41-.62,.93-.4,1.83-.85,2.72-1.36,.2-.11,.38-.22,.56-.33l-2.06,3.03c-.05,.08-.05,.16-.01,.23,.04,.07,.12,.13,.23,.17,.08,.02,.15,.03,.22,.03,.16,0,.3-.05,.41-.16,.03-.02,.21-.2,.52-.54,.32-.34,.72-.75,1.21-1.23,.49-.48,.99-.94,1.51-1.4,.52-.45,.98-.8,1.39-1.05,.55-.32,.97-.54,1.25-.64,.28-.1,.46-.16,.52-.16,.02,.01,.02,.03,.02,.06,0,.06,0,.14-.02,.23v.02c-.03,.4,0,.85,.07,1.37,.08,.52,.37,.93,.88,1.22,.15,.08,.35,.15,.62,.2,.27,.05,.6,.04,.99,0,.84-.16,1.66-.42,2.46-.78,.17-.08,.33-.16,.49-.23-.27,.43-.43,.83-.47,1.2,0,.28,.07,.49,.22,.62,.15,.13,.28,.21,.41,.24,.13,.03,.28,.05,.44,.05,.75,.01,1.86-.46,3.34-1.41,.91-.6,1.77-1.24,2.58-1.9-.28,.77-.32,1.35-.15,1.73,.18,.39,.45,.64,.83,.75,.28,.11,.6,.17,.97,.17,1.65-.06,3.57-.87,5.75-2.43,.04,.16,.08,.33,.12,.54,.1,.44,.16,.92,.19,1.43-.15,.08-.28,.17-.41,.25-1.25,.74-2.1,1.38-2.56,1.93-.45,.55-.63,.97-.54,1.26,.08,.23,.27,.38,.56,.45,.15,.03,.31,.05,.49,.05,.47,0,.99-.13,1.57-.39,.58-.26,1.06-.68,1.45-1.25,.32-.57,.47-1.24,.44-2.01,1.41-.76,2.68-1.39,3.81-1.88,1.13-.49,1.73-.75,1.81-.77,.11-.05,.19-.12,.22-.2,.03-.08,.02-.16-.05-.24-.08-.07-.19-.12-.32-.13-.13-.02-.25,0-.37,.04-.06,.02-.61,.25-1.63,.7s-2.21,1.01-3.56,1.71c-.11-.86-.25-1.55-.41-2.05-.05-.2-.02-.37,.1-.52,.11-.15,.26-.28,.45-.38,.19-.1,.36-.18,.51-.23,.15-.05,.25-.08,.28-.09,.13-.03,.22-.09,.27-.16,.05-.08,.05-.16,0-.24-.05-.07-.13-.13-.26-.16-.12-.04-.25-.04-.38,0-.45,.1-.92,.32-1.39,.65-.36,.25-.54,.55-.57,.91-1.31,1.01-2.52,1.73-3.63,2.17-1.13,.44-1.94,.58-2.42,.4-.34-.11-.49-.46-.45-1.03,.04-.57,.43-1.43,1.16-2.56,.05-.07,.06-.15,.02-.22-.03-.07-.11-.13-.22-.17-.11-.04-.23-.05-.35-.04-.12,.02-.22,.06-.28,.13-.02,0-.12,.09-.32,.27-.19,.18-.45,.4-.78,.67-.52-.35-1.02-.55-1.51-.6-.49-.05-.92-.02-1.29,.07-.71,.19-1.35,.49-1.94,.9-.03,.01-.06,.02-.09,.04-.02,.01-.17,.11-.46,.3-.29,.19-.68,.42-1.16,.68-.48,.26-1,.51-1.57,.73-.57,.23-1.12,.39-1.66,.48-.18,.03-.32,.04-.43,.03-.11-.01-.19-.03-.24-.05-.06-.02-.09-.04-.11-.05-.32-.2-.51-.52-.56-.97-.05-.45-.06-.82-.02-1.12,.02-.1,.02-.19,.02-.27,0-.22-.07-.37-.19-.47-.13-.09-.25-.16-.37-.19-.13-.04-.31-.05-.54-.04-.23,.02-.53,.09-.9,.23-.37,.14-.85,.39-1.44,.74-.49,.29-1.02,.7-1.61,1.22l1.75-2.59c.06-.08,.07-.16,.02-.24-.05-.08-.14-.13-.27-.16-.13-.03-.26-.03-.38,0-.12,.03-.21,.08-.26,.16l-1.02,1.5s-.07,.02-.1,.04c-1.69,1.09-3.2,1.93-4.53,2.51-.26,.11-.49,.21-.69,.28-.2,.07-.38,.13-.54,.18-.15,.05-.29,.08-.4,.1-.11,.02-.21,.03-.29,.04-.08,0-.14,0-.18,0s-.09,0-.13-.02c-.02-.03-.03-.06-.05-.09-.02-.03-.03-.06-.04-.11,0-.05,0-.11,0-.19,0-.08,.03-.17,.07-.28,.04-.11,.1-.24,.17-.39,.07-.15,.17-.32,.28-.51,.11-.19,.26-.4,.43-.64,.17-.24,.37-.51,.61-.8,.24-.3,.51-.62,.82-.96,.06-.08,.08-.16,.04-.24-.04-.08-.12-.14-.23-.2-.11-.04-.24-.05-.37-.02-.13,.03-.23,.08-.29,.15-.32,.37-.6,.71-.86,1.03-.05,.02-.1,.04-.14,.06-.36,.24-.86,.57-1.5,.98-.64,.42-1.29,.79-1.95,1.12-.66,.33-1.17,.5-1.55,.5-.05-.01-.1-.03-.15-.05-.05-.02-.11-.06-.17-.12-.18-.2-.34-.45-.47-.76-.14-.31-.24-.75-.3-1.31,0-.05-.01-.12-.04-.22-.02-.09-.08-.18-.17-.27-.09-.09-.23-.15-.43-.2-.34-.05-.72,.08-1.13,.38-.41,.31-.94,.79-1.57,1.46-.24,.25-.5,.51-.78,.76-.28,.26-.53,.48-.76,.66,.18-.6,.78-1.71,1.8-3.33,.23-.4,.14-.68-.27-.86-.21-.09-.51-.09-.9,0-.39,.1-.88,.39-1.49,.88-.81,.71-1.74,1.59-2.78,2.65,.71-1.11,1.48-2.29,2.33-3.53,.07-.06,.11-.12,.1-.19,0-.08-.06-.16-.16-.22-.1-.06-.21-.09-.34-.09-.06,0-.12,.01-.17,.03-.01,0-.03,0-.04,0-.1,.02-.16,.07-.21,.13-.35,.23-.82,.54-1.41,.92-.64,.42-1.29,.79-1.95,1.12-.66,.33-1.17,.5-1.55,.5-.05-.01-.1-.03-.15-.05-.05-.02-.11-.06-.17-.12-.18-.2-.34-.45-.47-.76-.14-.31-.24-.75-.3-1.31,0-.05-.01-.13-.04-.22-.02-.09-.08-.18-.17-.27-.07-.07-.17-.14-.29-.14-.04,0-.08,0-.12,.02"/>
          <g class="cls-2">
            <rect class="cls-1" x="52.99" y="26.68" width="57.41" height="8.72"/>
          </g>
        </g>
      </g>
      <g>
        <path class="cls-1" d="M5.29,6.98v13.94l-.02,.89c0,.25,.02,.5,.06,.76,.21,2.79,1.22,5.52,2.94,7.9,1.55,2.14,3.63,3.97,6.06,5.3-.72,.33-1.47,.61-2.23,.85-3.48-1.11-6.48-3.12-8.67-5.81C1.19,28.06,0,24.84,0,21.5l.02-.22s0-.02,0-.03V12.99C.02,10.73,1.46,8.7,3.8,7.67l1.5-.69Z"/>
        <path class="cls-1" d="M29.28,.74s0,0-.01,0c-2.33,1.03-3.77,3.06-3.77,5.31v15.72c0,.25-.02,.5-.06,.76-.21,2.8-1.23,5.54-2.96,7.92-1.56,2.15-3.65,3.97-6.1,5.31,.71,.33,1.45,.61,2.2,.85,3.46-1.09,6.55-3.15,8.73-5.81,2.26-2.76,3.46-6,3.46-9.36V0l-1.49,.74Z"/>
      </g>
      <g>
        <g>
          <path class="cls-1" d="M19.1,24.16c.46,1.69,.72,4.37-2.44,4.52-3.16,.15-3.04-1.54-5.91-3.46-1.91-1.28-3.56-.1-5.39,1.15-1.29,.88-2.49,1.25-3.59,1.22l-.37,.04c4.2,8.93,13.9,9.91,13.9,9.91,11.84-1.69,14.6-11.3,14.6-11.3-3.97,2.04-5.97,2.08-7.1,2.04-2.53-.08-1.95-2.07-1.46-4.04,.24-.97-.41-1.41-1.07-1.41-.69,0-1.4,.48-1.16,1.34"/>
          <g class="cls-5">
            <rect class="cls-1" x="1.4" y="22.82" width="28.5" height="14.71"/>
          </g>
        </g>
        <g>
          <path class="cls-1" d="M17.7,18.57c0,1.37,1.1,2.48,2.45,2.48s2.45-1.11,2.45-2.48-1.1-2.48-2.45-2.48-2.45,1.11-2.45,2.48"/>
          <g class="cls-3">
            <rect class="cls-1" x="17.7" y="16.09" width="4.9" height="4.96"/>
          </g>
        </g>
      </g>
    </g>
  </g>
</svg>