<?xml version="1.0" encoding="utf-8"?>
<!-- Generator: Adobe Illustrator 26.2.1, SVG Export Plug-In . SVG Version: 6.00 Build 0)  -->
<svg version="1.1" id="Camada_1" xmlns="http://www.w3.org/2000/svg" xmlns:xlink="http://www.w3.org/1999/xlink" x="0px" y="0px"
	 viewBox="0 0 240.6 95.8" style="enable-background:new 0 0 240.6 95.8;" xml:space="preserve">
<style type="text/css">
	.st0{fill:url(#SVGID_1_);}
	.st1{opacity:0.5;fill:#FFFFFF;}
	.st2{fill:#FFFFFF;}
</style>
<linearGradient id="SVGID_1_" gradientUnits="userSpaceOnUse" x1="120.3962" y1="95.8286" x2="120.3962" y2="6.857710e-02">
	<stop  offset="0" style="stop-color:#CEE5F0"/>
	<stop  offset="1" style="stop-color:#9CCEE5"/>
</linearGradient>
<rect x="0.2" y="0.1" class="st0" width="240.4" height="95.8"/>
<path class="st1" d="M0.2,0.1v95.8H199C182.4,50.5,145.5,15,99.4,0.1H0.2C-0.5,0.3,0.9-0.2,0.2,0.1z"/>
<path class="st1" d="M0.2,95.8h64C60.4,58.5,43.7,25.1,18.6,0.1H0.2V95.8z"/>
<path class="st2" d="M240.6,53.6c-3.9-1.3-6.8-4.1-9.6-7.2c-3.9-4.4-8-8.9-16.6-9.5c-13.6-1-20.5,2.7-27.9,6.5
	c-8,4.2-16.4,8.5-33.9,8.2c-11.3-0.2-23.6-7.2-37.9-15.2C96.5,26.1,75.9,14.5,50.9,13.1c-32.8-1.8-50.5,7.2-50.7,7.3v-0.9
	c0.2-0.1,17.6-9.2,50.8-7.4c25.2,1.4,45.9,13.1,64.2,23.4c14.1,8,26.3,14.9,37.4,15.1c17.3,0.3,25.5-3.9,33.5-8.1
	c7.5-3.9,14.5-7.6,28.4-6.6c9,0.6,13.4,5.5,17.3,9.8c2.7,2.9,5.2,5.7,8.9,6.9V53.6z"/>
<path class="st2" d="M29.6,42.8c-13.8-5-27.5,1.3-29.4,2.2v0.6V46c0.1-0.1,14.6-7.5,29.1-2.3c14.3,5.1,15.3,13.8,15.3,13.9l0,0.2
	c0,0.1,2.6,5.7-5.8,19.5c-6.3,10.5-5.8,16.1-5,18.5h1.1c-0.7-1.9-1.7-7.2,4.8-18c8.2-13.6,6.2-19.6,5.9-20.4
	C45.5,56.4,44,48,29.6,42.8z"/>
</svg>
