<?xml version="1.0" encoding="utf-8"?>
<!-- Generator: Adobe Illustrator 26.2.1, SVG Export Plug-In . SVG Version: 6.00 Build 0)  -->
<svg version="1.1" id="Camada_1" xmlns="http://www.w3.org/2000/svg" xmlns:xlink="http://www.w3.org/1999/xlink" x="0px" y="0px"
	 viewBox="0 0 240 49.7" style="enable-background:new 0 0 240 49.7;" xml:space="preserve">
<style type="text/css">
	.st0{fill:url(#SVGID_1_);}
	.st1{fill:#233787;}
	.st2{fill:url(#SVGID_00000092422261723488385030000001234890838835048859_);}
</style>
<linearGradient id="SVGID_1_" gradientUnits="userSpaceOnUse" x1="84" y1="398.9367" x2="324" y2="398.9367" gradientTransform="matrix(-1 0 0 -1 324 427.52)">
	<stop  offset="0" style="stop-color:#32A7DB"/>
	<stop  offset="1" style="stop-color:#029F9A"/>
</linearGradient>
<path class="st0" d="M240,27.1L0,12v28.8c0,0,11.7,2.5,16.9,2.8c24.7,1.8,37.8-5.7,65.3-5.5c27.5,0.2,35.2,7,60.5,7
	s32.7-8.5,57.3-9.7c13.2-0.6,32.4,1.8,40,4.3V27.1z"/>
<path class="st1" d="M104,43.7c0,0,23.9,6,41.3,6s33.7-7.2,52.2-7.5C216,41.8,240,49,240,49v-7.7c0,0-14.8-5.4-38.7-4.6
	c-23.8,0.8-39.9,11.2-58.7,10.1C129.2,47.7,104,43.7,104,43.7z"/>
<linearGradient id="SVGID_00000098921088973479562450000016936392697095809706_" gradientUnits="userSpaceOnUse" x1="0" y1="14.7567" x2="240" y2="14.7567">
	<stop  offset="0" style="stop-color:#32A7DB"/>
	<stop  offset="1" style="stop-color:#029F9A"/>
</linearGradient>
<path style="fill:url(#SVGID_00000098921088973479562450000016936392697095809706_);" d="M0,4.5c0,0,41.6,5.3,54.8,4.7
	C79.5,8,84.8,0,110.2,0s41.2,7.2,68.7,7.3c27.5,0.2,20.3-5.3,44.7-4.8c5.2,0.1,16.5,1.3,16.5,1.3v25.7L0,14.4V4.5"/>
</svg>
