<?xml version="1.0" encoding="UTF-8"?>
<svg id="Camada_2" data-name="Camada 2" xmlns="http://www.w3.org/2000/svg" viewBox="0 0 116.76 116.76">
  <defs>
    <style>
      .cls-1 {
        fill: #fff;
      }

      .cls-2 {
        fill: #00b4bf;
      }
    </style>
  </defs>
  <g id="Layer_1" data-name="Layer 1">
    <circle class="cls-2" cx="58.38" cy="58.38" r="58.38"/>
    <g>
      <polygon class="cls-1" points="37.21 54.16 37.21 38.04 37.21 32.07 46.2 32.07 74.05 32.07 83.04 32.07 83.04 38.04 83.04 54.16 90.51 49.21 92.49 46.12 92.49 46.09 90.51 43 85.59 39.73 85.59 29.52 70.2 29.52 60.15 22.85 60.1 22.85 50.05 29.52 34.65 29.52 34.65 39.73 29.74 43 27.76 46.09 27.76 46.12 29.74 49.21 37.21 54.16"/>
      <path class="cls-1" d="M93.69,48.77l-1.4,2.19-21.71,14.41,22.73,21.15c.25-.51,.39-1.08,.39-1.68V48.88s0-.08,0-.12Z"/>
      <path class="cls-1" d="M27.96,50.96l-1.4-2.19s0,.08,0,.12v35.95c0,.6,.14,1.17,.39,1.68l22.73-21.15-21.71-14.41Z"/>
      <path class="cls-1" d="M60.12,72.3l-8.36-5.55-23.1,21.49c.51,.26,1.09,.4,1.69,.4h59.52c.61,0,1.18-.15,1.69-.4l-23.1-21.49-8.36,5.55Z"/>
      <path class="cls-1" d="M56.65,41.95c-2.16,1.22-3.5,4.14-3.78,6.53-.29,2.48,.36,5.49,2.85,6.64,1.92,.89,4.4,.41,5.75-1.26,2.15,3.58,7.49,.81,9.36-2.14,1.92-3.03,2.31-6.81,.79-10.1-2.2-4.74-8.17-6.3-12.97-5.62-6.29,.89-10.65,6.38-10.77,12.62-.12,6.17,3.53,10.9,9.58,12.14,4.92,1.01,10.98-.12,14.37-4.01,.66-.75,0-1.94-.98-1.74,0,0-.01,0-.02,0-.65,.14-1.01,.56-1.53,.96-1.41,1.07-3.06,1.81-4.78,2.23-2.71,.65-5.85,.65-8.48-.35-5.39-2.03-6.85-8.37-4.87-13.4,1.79-4.54,6.84-6.81,11.5-6.04,5.68,.93,9.17,5.75,6.46,11.23-.5,1.01-1.34,2.42-2.57,2.6-1.3,.19-1.69-.72-1.53-1.81,.37-2.51,1.28-4.89,1.74-7.4,.14-.79-.44-1.52-1.24-1.56-1.24-.07-2.51-.02-2.36,1.55-1.41-2.08-4.45-2.23-6.5-1.07Zm4.31,9.95c-2.12,2.26-4.76,.84-4.72-2.06-.05-2.07,.49-5.07,2.67-5.98,1.95-.82,3.57,.83,3.71,2.69,.13,1.76-.43,4.05-1.66,5.35Z"/>
    </g>
  </g>
</svg>