<?xml version="1.0" encoding="UTF-8"?>
<svg id="Camada_2" data-name="Camada 2" xmlns="http://www.w3.org/2000/svg" viewBox="0 0 116.76 116.76">
  <defs>
    <style>
      .cls-1 {
        fill: #fff;
      }

      .cls-2 {
        fill: #01743c;
      }
    </style>
  </defs>
  <g id="Layer_1" data-name="Layer 1">
    <circle class="cls-2" cx="58.38" cy="58.38" r="58.38"/>
    <path class="cls-1" d="M86.96,50.32c0-15.98-12.95-28.93-28.93-28.93s-28.93,12.95-28.93,28.93c0,11.99,7.29,22.28,17.68,26.66,14.84,7.06,11.25,24.59,11.25,24.59,30.65-20.48,28.93-51.25,28.93-51.25Zm-48.56,0c0-10.84,8.79-19.62,19.62-19.62s19.62,8.79,19.62,19.62c0,2.48-.47,4.86-1.31,7.05-2.83,7.35-9.96,12.57-18.31,12.57-.21,0-.41,0-.61-.02-10.55-.33-19.01-8.98-19.01-19.61Z"/>
  </g>
</svg>