<?xml version="1.0" encoding="UTF-8"?>
<svg id="Camada_2" data-name="Camada 2" xmlns="http://www.w3.org/2000/svg" viewBox="0 0 116.76 116.76">
  <defs>
    <style>
      .cls-1 {
        fill: #fff;
      }

      .cls-2 {
        fill: #516aaf;
      }
    </style>
  </defs>
  <g id="Layer_1" data-name="Layer 1">
    <circle class="cls-2" cx="58.38" cy="58.38" r="58.38"/>
    <g>
      <g>
        <path class="cls-1" d="M42.66,51.54c-7.17,0-13,5.83-13,12.99s5.83,13,13,13,12.99-5.83,12.99-13-5.83-12.99-12.99-12.99Zm0,22.66c-5.33,0-9.66-4.33-9.66-9.66s4.33-9.66,9.66-9.66,9.66,4.33,9.66,9.66-4.33,9.66-9.66,9.66Z"/>
        <path class="cls-1" d="M69.53,68.62c-5.24,0-9.5,4.26-9.5,9.5s4.26,9.5,9.5,9.5,9.5-4.26,9.5-9.5-4.26-9.5-9.5-9.5Zm0,16.57c-3.9,0-7.06-3.17-7.06-7.06s3.17-7.06,7.06-7.06,7.06,3.17,7.06,7.06-3.17,7.06-7.06,7.06Z"/>
        <path class="cls-1" d="M66.13,34.8c-4.32,0-7.84,3.52-7.84,7.84s3.52,7.84,7.84,7.84,7.84-3.52,7.84-7.84-3.52-7.84-7.84-7.84Zm0,13.66c-3.21,0-5.83-2.61-5.83-5.83s2.61-5.83,5.83-5.83,5.83,2.61,5.83,5.83-2.61,5.83-5.83,5.83Z"/>
        <path class="cls-1" d="M57.29,78.12c0-6.27,4.73-11.44,10.81-12.15v-12.94c-.64,.12-1.3,.19-1.97,.19-5.83,0-10.58-4.75-10.58-10.58s4.75-10.58,10.58-10.58c.67,0,1.33,.07,1.97,.19v-2.45h3.34c1.64,0,2.47-1.99,1.3-3.15l-11.41-11.41c-.72-.72-1.89-.72-2.61,0l-11.41,11.41c-1.16,1.16-.34,3.15,1.3,3.15h3.34v22.08c3.89,2.87,6.43,7.47,6.43,12.66s-2.54,9.79-6.43,12.66v13.26c0,1.89,1.53,3.42,3.42,3.42h9.3c1.89,0,3.42-1.53,3.42-3.42v-.19c-6.08-.71-10.81-5.89-10.81-12.15Z"/>
        <path class="cls-1" d="M30.55,74.58v16.04c0,1.71,1.39,3.09,3.09,3.09h8.41c1.71,0,3.09-1.39,3.09-3.09v-10.56c-.82,.13-1.65,.22-2.5,.22-4.86,0-9.22-2.22-12.1-5.69Z"/>
        <path class="cls-1" d="M42.66,48.8c.85,0,1.68,.09,2.5,.22v-2.52h3.03c1.49,0,2.23-1.8,1.18-2.85l-10.33-10.33c-.65-.65-1.71-.65-2.36,0l-10.33,10.33c-1.05,1.05-.31,2.85,1.18,2.85h3.03v7.99c2.89-3.48,7.24-5.69,12.1-5.69Z"/>
        <path class="cls-1" d="M91.49,55.64l-9.17-9.17c-.58-.58-1.52-.58-2.1,0l-9.17,9.17c-.93,.93-.27,2.53,1.05,2.53h2.69v8.9c4.13,1.97,7,6.17,7,11.05s-2.87,9.08-7,11.05v1.8c0,1.52,1.23,2.75,2.75,2.75h7.47c1.52,0,2.75-1.23,2.75-2.75V58.17h2.69c1.32,0,1.98-1.6,1.05-2.53Z"/>
      </g>
      <g>
        <path class="cls-1" d="M62.89,40.46h1.82c.95,0,1.49,.6,1.49,1.46,0,.56-.25,1.12-.78,1.36l.95,1.8h-1.14l-.82-1.63h-.47v1.63h-1.04v-4.62Zm1.69,2.13c.38,0,.61-.24,.61-.62,0-.4-.23-.61-.61-.61h-.64v1.23h.64Z"/>
        <path class="cls-1" d="M67.76,44.89c-.51-.05-.95-.3-1.22-.73l.59-.6c.2,.29,.51,.51,.88,.51,.27,0,.54-.09,.54-.35s-.21-.31-.39-.37l-.65-.19c-.5-.15-.82-.5-.82-1.11,0-.66,.43-1.15,1.07-1.28v-.56h.68v.56c.43,.06,.78,.25,.98,.6l-.58,.59c-.18-.27-.48-.39-.75-.39-.26,0-.46,.12-.46,.36,0,.2,.17,.27,.37,.32l.61,.19c.55,.16,.92,.49,.92,1.13,0,.73-.48,1.15-1.07,1.28v.58h-.68v-.54Z"/>
      </g>
      <g>
        <path class="cls-1" d="M36.44,59.89h3.43c1.78,0,2.8,1.13,2.8,2.75,0,1.06-.46,2.1-1.47,2.56l1.79,3.39h-2.14l-1.55-3.07h-.89v3.07h-1.97v-8.7Zm3.18,4.01c.71,0,1.14-.45,1.14-1.16,0-.74-.44-1.15-1.14-1.15h-1.21v2.31h1.21Z"/>
        <path class="cls-1" d="M45.6,68.22c-.96-.1-1.78-.57-2.3-1.37l1.11-1.12c.37,.55,.97,.95,1.66,.95,.52,0,1.01-.17,1.01-.66s-.4-.59-.74-.7l-1.22-.35c-.94-.28-1.55-.94-1.55-2.09,0-1.24,.8-2.17,2.02-2.4v-1.06h1.27v1.06c.8,.12,1.47,.48,1.83,1.13l-1.1,1.11c-.33-.5-.9-.73-1.42-.73-.48,0-.87,.22-.87,.67,0,.38,.32,.5,.69,.61l1.15,.35c1.03,.31,1.72,.93,1.72,2.12,0,1.37-.9,2.17-2.02,2.4v1.09h-1.27v-1.02Z"/>
      </g>
      <g>
        <path class="cls-1" d="M65.3,75.22h2.32c1.2,0,1.89,.77,1.89,1.86,0,.72-.31,1.42-.99,1.73l1.21,2.29h-1.45l-1.05-2.08h-.6v2.08h-1.33v-5.88Zm2.15,2.71c.48,0,.77-.31,.77-.78,0-.5-.3-.78-.77-.78h-.82v1.56h.82Z"/>
        <path class="cls-1" d="M71.49,80.86c-.65-.07-1.2-.39-1.55-.92l.75-.76c.25,.37,.65,.64,1.12,.64,.35,0,.68-.12,.68-.45s-.27-.4-.5-.47l-.82-.24c-.64-.19-1.05-.63-1.05-1.41,0-.84,.54-1.47,1.37-1.62v-.72h.86v.72c.54,.08,.99,.32,1.24,.77l-.74,.75c-.22-.34-.61-.49-.96-.49-.33,0-.59,.15-.59,.45,0,.26,.22,.34,.47,.41l.78,.24c.7,.21,1.17,.63,1.17,1.43,0,.92-.61,1.47-1.37,1.62v.73h-.86v-.69Z"/>
      </g>
    </g>
  </g>
</svg>