<?xml version="1.0" encoding="UTF-8"?>
<svg id="Camada_2" data-name="Camada 2" xmlns="http://www.w3.org/2000/svg" viewBox="0 0 116.76 116.76">
  <defs>
    <style>
      .cls-1 {
        fill: #fff;
      }

      .cls-2 {
        fill: #21409a;
      }
    </style>
  </defs>
  <g id="Layer_1" data-name="Layer 1">
    <circle class="cls-2" cx="58.38" cy="58.38" r="58.38"/>
    <g>
      <path class="cls-1" d="M81.27,48.1l2.72-4.71-1.2-.69h-.02s-19.54-11.3-19.54-11.3h-.02s-1.2-.71-1.2-.71l-9.1,15.76,1.2,.69h.02s19.54,11.29,19.54,11.29h.02s1.2,.71,1.2,.71l2.9-5.03,36.1,22.34c1.01-3.11,1.77-6.32,2.25-9.63l-34.87-18.72Z"/>
      <path class="cls-1" d="M46.8,55.61l23.22,13.41c.84,.48,1.92,.19,2.4-.64l1.96-3.4c.98-1.69,.39-3.88-1.3-4.85l-20.12-11.61c-1.69-.98-3.88-.39-4.85,1.3l-1.96,3.4c-.48,.84-.19,1.92,.64,2.4Z"/>
      <path class="cls-1" d="M63.81,29.72l20.12,11.61c1.69,.98,3.88,.39,4.85-1.3l1.96-3.4c.48-.84,.19-1.92-.64-2.4l-23.22-13.41c-.84-.48-1.92-.19-2.4,.64l-1.96,3.4c-.98,1.69-.39,3.88,1.3,4.85Z"/>
      <path class="cls-1" d="M73.49,75.47H37.95c-3.34,0-6.08,2.73-6.08,6.08v.6h-2.67c-2.74,0-4.99,2.25-4.99,4.99v4.99h63.01v-4.99c0-2.74-2.25-4.99-4.99-4.99h-2.67v-.6c0-3.34-2.73-6.08-6.08-6.08Z"/>
    </g>
  </g>
</svg>