<?xml version="1.0" encoding="UTF-8"?>
<svg id="Camada_2" data-name="Camada 2" xmlns="http://www.w3.org/2000/svg" viewBox="0 0 116.76 116.76">
  <defs>
    <style>
      .cls-1 {
        fill: #fff;
      }

      .cls-2 {
        fill: #1f4497;
      }
    </style>
  </defs>
  <g id="Layer_1" data-name="Layer 1">
    <circle class="cls-2" cx="58.38" cy="58.38" r="58.38"/>
    <g>
      <path class="cls-1" d="M37.31,65.47c0-.59,.48-1.08,1.08-1.08h20.39c.59,0,1.08,.48,1.08,1.08v.65c0,.59-.48,1.08-1.08,1.08h-20.39c-.59,0-1.08-.48-1.08-1.08v-.65h0Zm0-8.34c0-.59,.48-1.08,1.08-1.08h17.88c.59,0,1.08,.48,1.08,1.08v.65c0,.59-.48,1.08-1.08,1.08h-17.88c-.59,0-1.08-.48-1.08-1.08v-.65h0Zm0-8.34c0-.59,.48-1.08,1.08-1.08h25.62c.59,0,1.08,.48,1.08,1.08v.65c0,.59-.48,1.08-1.08,1.08h-25.62c-.59,0-1.08-.48-1.08-1.08v-.65h0Zm0-8.34c0-.59,.48-1.07,1.08-1.07h18.95c.59,0,1.08,.48,1.08,1.07v.65c0,.59-.48,1.08-1.08,1.08h-18.95c-.59,0-1.08-.48-1.08-1.08v-.65h0Zm36.44,41.67v.49c0,2.12-1.73,3.85-3.85,3.85h-16.49c-2.12,0-3.85-1.73-3.85-3.85v-.49c0-2.12,1.73-3.85,3.85-3.85h16.49c2.12,0,3.85,1.73,3.85,3.85h0Zm-36.73,10.69h35.84c2.96,0,5.38-2.42,5.38-5.38V35.87c0-2.96-2.42-5.38-5.38-5.38H37.02c-2.96,0-5.38,2.42-5.38,5.38v51.57c0,2.96,2.42,5.38,5.38,5.38h0Z"/>
      <path class="cls-1" d="M39.95,27.88h35.04c3.4,0,6.19,2.78,6.19,6.19v50.75h0c0,.64,.67,1.04,1.22,.73,1.62-.93,2.72-2.68,2.72-4.67V30.13c0-3.4-2.78-6.19-6.19-6.19H43.91c-1.99,0-3.74,1.1-4.67,2.72-.31,.55,.08,1.22,.72,1.22h0Z"/>
    </g>
  </g>
</svg>