<?xml version="1.0" encoding="UTF-8"?>
<svg id="Camada_2" data-name="Camada 2" xmlns="http://www.w3.org/2000/svg" viewBox="0 0 116.76 116.76">
  <defs>
    <style>
      .cls-1 {
        fill: #fff;
      }

      .cls-2 {
        fill: #01743c;
      }
    </style>
  </defs>
  <g id="Layer_1" data-name="Layer 1">
    <circle class="cls-2" cx="58.38" cy="58.38" r="58.38"/>
    <path class="cls-1" d="M68.84,71.46l-.69,1.98-6.99-.12,4.26-12.16,1,.02h0s6,.1,6,.1l-3.57,10.18Zm-11.3-9.3h0s0,0,0,0l3.71-10.74,1.21-3.51,8.54,.08-4.03,11.51-2.75-.05-5.42,15.48,10.49,.18-.52,1.49-18.66-.13,.75-2.15,.45-1.27,2.45,.02,3.78-10.92Zm24.24,10.39l-11.49-.19,4.45-12.71-6-.1,4.23-12.09h0l.31-.88h0l3.51-10.02h.17s21.73,.37,21.73,.37l-12.5,35.7-4.41-.07Zm-41.68-26.5l4.37-12.62,4,.04,3.02-8.73,29.01,.38-2.98,8.62,8.41,.08-.42,1.22-9.41-.16h-.48s0,0,0,0l-3.2,9.13-.71,2.03h0l-.11,.32-8.55-.08h0s-21.93-.2-21.93-.2h-1.02Zm-13.32,25.11l-.8,2.27-6.99-.12,.78-2.22-8.66-.08,4.37-12.62,23.06,.21,3.76-10.88,18.41,.17-4.35,12.56h0s-3.78,10.93-3.78,10.93h-.68s-9.18-.09-9.18-.09h0s-15.94-.15-15.94-.15Zm54.45,14.17l-13.19-.12-3.36,9.7-20.12-.37,3.3-9.52-8.09-.07,4.14-11.96,5.65,.05-.1,.28-1.68,4.81,22.19,.16,1.49-4.25,13.61,.23-3.83,11.06Z"/>
  </g>
</svg>