<?xml version="1.0" encoding="UTF-8"?>
<svg id="Camada_2" data-name="Camada 2" xmlns="http://www.w3.org/2000/svg" viewBox="0 0 116.76 116.76">
  <defs>
    <style>
      .cls-1 {
        fill: #fff;
      }

      .cls-2 {
        fill: #516aaf;
      }
    </style>
  </defs>
  <g id="Layer_1" data-name="Layer 1">
    <circle class="cls-2" cx="58.38" cy="58.38" r="58.38"/>
    <g>
      <circle class="cls-1" cx="73.1" cy="29.73" r="8.78" transform="translate(17.66 85.89) rotate(-67.5)"/>
      <path class="cls-1" d="M84.76,52.15c0-6.35-5.22-11.49-11.66-11.49s-11.66,5.14-11.66,11.49v9.69c0,.99,.81,1.8,1.8,1.8h4.11v17.39c0,.99,.81,1.8,1.8,1.8h7.89c.99,0,1.8-.81,1.8-1.8v-17.39h4.11c.99,0,1.8-.81,1.8-1.8v-9.69Z"/>
      <circle class="cls-1" cx="41.62" cy="29.73" r="8.78" transform="translate(-4.27 7.14) rotate(-9.33)"/>
      <path class="cls-1" d="M53.28,52.15c0-6.35-5.22-11.49-11.66-11.49s-11.66,5.14-11.66,11.49v9.69c0,.99,.81,1.8,1.8,1.8h4.11v17.39c0,.99,.81,1.8,1.8,1.8h7.89c.99,0,1.8-.81,1.8-1.8v-17.39h4.11c.99,0,1.8-.81,1.8-1.8v-9.69Z"/>
      <path class="cls-1" d="M41.62,90.46c-3.47,0-6.93-.76-9.63-2.29-2.88-1.63-4.46-3.89-4.46-6.38s1.58-4.75,4.46-6.38l1.54,2.72c-1.83,1.04-2.88,2.37-2.88,3.66s1.05,2.62,2.88,3.66c4.39,2.48,11.8,2.48,16.18,0,1.83-1.04,2.88-2.37,2.88-3.66s-1.05-2.62-2.88-3.66l1.54-2.72c2.88,1.63,4.46,3.89,4.46,6.38s-1.58,4.75-4.46,6.38c-2.7,1.53-6.17,2.29-9.63,2.29Z"/>
      <path class="cls-1" d="M37.81,87.69l3.81,12.46,3.81-12.46h-7.62Z"/>
      <path class="cls-1" d="M73.1,90.46c-3.47,0-6.93-.76-9.63-2.29-2.88-1.63-4.46-3.89-4.46-6.38s1.58-4.75,4.46-6.38l1.54,2.72c-1.83,1.04-2.88,2.37-2.88,3.66s1.05,2.62,2.88,3.66c4.39,2.48,11.8,2.48,16.18,0,1.83-1.04,2.88-2.37,2.88-3.66s-1.05-2.62-2.88-3.66l1.54-2.72c2.88,1.63,4.46,3.89,4.46,6.38s-1.58,4.75-4.46,6.38c-2.7,1.53-6.17,2.29-9.63,2.29Z"/>
      <path class="cls-1" d="M69.29,87.69l3.81,12.46,3.81-12.46h-7.62Z"/>
    </g>
  </g>
</svg>