<?xml version="1.0" encoding="UTF-8"?>
<svg id="Camada_2" data-name="Camada 2" xmlns="http://www.w3.org/2000/svg" viewBox="0 0 66.87 66.87">
  <defs>
    <style>
      .cls-1 {
        fill: #fff;
      }

      .cls-2 {
        fill: #0061af;
      }
    </style>
  </defs>
  <g id="Layer_1" data-name="Layer 1">
    <circle class="cls-1" cx="33.44" cy="33.44" r="33.44"/>
    <path class="cls-2" d="M50.22,48.01c-.89-1.18-1.78-2.37-2.66-3.55h0c-3.17-4.23-6.45-8.59-9.73-12.98l11.93-12.71h-3.76l-.09,.1c-1.67,1.78-3.33,3.55-5,5.33-1.58,1.69-3.17,3.38-4.75,5.06-2.59-3.45-5.18-6.91-7.77-10.37l-.09-.12h-9.69l.35,.48c1.27,1.72,2.54,3.45,3.81,5.17,1.25,1.7,2.5,3.4,3.75,5.1,1.38,1.87,2.78,3.77,4.14,5.61-.64,.69-1.29,1.37-1.93,2.05-.73,.77-1.45,1.54-2.17,2.32-.76,.81-1.53,1.63-2.29,2.44-.78,.83-1.55,1.66-2.33,2.49-1.11,1.18-2.22,2.37-3.33,3.55l-.48,.51h3.75l.09-.1c1.11-1.18,2.22-2.37,3.33-3.55,1.2-1.28,2.41-2.57,3.61-3.85,1.13-1.21,2.27-2.41,3.4-3.62,1.27,1.73,2.54,3.45,3.81,5.18l1.67,2.26c.44,.6,.88,1.19,1.32,1.79,.43,.59,.86,1.17,1.3,1.76l.09,.12h10.1l-.36-.48Zm-16.43-13.11h0s-1.09-1.47-1.09-1.47l-8.82-11.98h3.07l3.13,4.17c.73,.97,1.45,1.93,2.18,2.9,.68,.91,1.36,1.82,2.04,2.72h0s.19,.25,.19,.25c.37,.5,.74,.99,1.11,1.49h0s.15,.2,.15,.2c0,0,0,0,0,.01l.21,.28h0c2.55,3.4,5.1,6.81,7.66,10.21l1.61,2.15h-3.41l-7.67-10.43h0s-.14-.19-.14-.19l-.22-.3Z"/>
  </g>
</svg>