<?xml version="1.0" encoding="UTF-8"?>
<svg id="Camada_2" data-name="Camada 2" xmlns="http://www.w3.org/2000/svg" viewBox="0 0 66.87 66.87">
  <defs>
    <style>
      .cls-1 {
        fill: #fff;
      }

      .cls-2 {
        fill: #0061af;
      }
    </style>
  </defs>
  <g id="Layer_1" data-name="Layer 1">
    <circle class="cls-1" cx="33.44" cy="33.44" r="33.44"/>
    <path class="cls-2" d="M35.91,34.9c-.47,.01-.5,.47-.51,.71,0,4.31,0,8.62,0,12.93,0,.76-.01,1.73-.74,1.73-2.34,0-1.23,.04-4.45,.04-.76,0-.85,.02-.85-.74,0-4.68,0-9.37,0-14.05,0-.7-.01-.72-.7-.72-1.16,0-1.68,0-2.84,0-.82,0-.75-.08-.78-.76-.04-1-.04-3.82-.04-4.65,0-.32,.1-.42,.42-.42,1.12,.02,2.24-.01,3.36,.01,.4,0,.53-.1,.53-.51-.02-1.59-.05-3.19,.02-4.78,.15-3.68,2.17-6.08,5.75-6.96,1.49-.36,3-.28,4.51-.24,.63,.02,1.2,.09,1.9,.14,.29,.02,.35,.14,.34,.39-.04,1.59-.08,3.19-.1,4.78,0,.32-.15,.37-.42,.37-1.33,0-2.67-.11-4,.03-1.11,.11-1.64,.63-1.74,1.74-.14,1.57-.03,3.15-.07,4.73,0,.38,.24,.31,.46,.31,1.76,0,3.51,0,5.27,0,.63,0,.66,0,.6,.64-.16,1.64-.45,3.22-.72,4.71-.1,.52-.27,.56-.7,.56-1.88,.01-2.7,0-4.5,.01Z"/>
  </g>
</svg>