<svg version="1.1" id="Layer_1" xmlns="http://www.w3.org/2000/svg" xmlns:xlink="http://www.w3.org/1999/xlink" x="0" y="0" viewBox="0 0 505.4 149.3" xml:space="preserve"><style>.st0{fill:#21409a}.st1{fill:#00b5bf}</style><path class="st0" d="M48 145.7c-13.8-4.5-25.7-12.5-34.3-23.1C4.8 111.7 0 98.8 0 85.5l.1-34.6c0-8.7 5.6-16.6 14.6-20.5l4.4-2-.1 58.4c0 1.1.1 2.2.2 3.3.8 11.5 5.1 22.8 12.2 32.7 5.9 8.2 13.8 15.3 23 20.7-2 .7-4.2 1.5-6.4 2.2zm26.4 0c-2.1-.7-4.2-1.5-6.3-2.4 9.2-5.4 17.1-12.5 23.1-20.8 7.2-9.9 11.4-21.2 12.2-32.8.2-1 .2-2.1.2-3.2V22.7c0-8.7 5.6-16.5 14.6-20.5l4.5-2.2v85.3c0 13.4-4.8 26.3-13.8 37.3-8.6 10.6-20.8 18.8-34.5 23.1z"/><ellipse class="st1" cx="80.2" cy="73.9" rx="10.2" ry="10.3"/><path class="st1" d="M118.7 104.8c.1-.2.1-.3.1-.3-15.8 8.1-23.7 8.2-28.2 8.1-10-.3-7.7-8.2-5.8-16 1.9-7.8-10.7-7-8.9-.3 1.8 6.7 2.9 17.3-9.7 17.9-12.6.6-12.1-6.1-23.5-13.7-7.6-5.1-14.1-.4-21.4 4.5-5.1 3.4-9.9 4.9-14.3 4.8l-1.6.2c9.5 20.1 26.2 30 38.7 34.8l.9.3c.2.1.5.2.8.3 8.8 3.2 15.3 3.9 15.3 3.9 47.1-6.7 58.1-44.7 58.1-44.7-.2.1-.4.1-.5.2z"/><path d="M149.3 54.5v19.1c0 4 1.2 7.4 3.7 10.2s5.4 4.2 8.9 4.2 6.5-1.4 8.9-4.2 3.7-6.2 3.7-10.2V54.5h4.2v19.3c-.1 5.3-1.7 9.8-5 13.5s-7.2 5.6-11.9 5.6c-4.6 0-8.6-1.9-11.9-5.6-3.3-3.7-4.9-8.3-5-13.6V54.5h4.4zm63.5 38.3V73.7c0-4-1.3-7.4-3.7-10.2s-5.4-4.2-9-4.2c-3.5 0-6.4 1.4-8.9 4.2-2.4 2.8-3.7 6.1-3.8 10.1v19.3h-4.2V73.7c0-5.3 1.6-9.8 4.9-13.6 3.3-3.8 7.3-5.6 11.9-5.6 4.6 0 8.6 1.9 11.9 5.6 3.3 3.7 5 8.2 5 13.5v19.3l-4.1-.1zm8.7-38.3h4.2v38.4h-4.2zm34 0v38.3h-8.4c-4.6 0-8.6-1.9-11.9-5.6-3.3-3.7-5-8.2-5-13.5V54.4h4.2v19.1c0 4 1.2 7.4 3.7 10.2 2.5 2.8 5.5 4.2 9 4.2h4.2V54.4l4.2.1zm38 4.6h-16.6c-3.5 0-6.5 1.4-9 4.2s-3.7 6.2-3.7 10.2c0 3.9 1.2 7.4 3.7 10.2 2.5 2.8 5.5 4.2 9 4.2h16.6v4.8h-16.8c-4.6-.1-8.6-2-11.8-5.7s-4.9-8.2-4.9-13.5 1.6-9.8 4.9-13.6 7.2-5.7 11.8-5.7h16.8v4.9zm-33.1 14.5c0-.7.2-1.2.6-1.7s.9-.7 1.5-.7h25V76h-25c-.6 0-1.1-.2-1.5-.7s-.6-1.1-.6-1.7m47.1 6.4c1 2.4 2.6 4.3 4.6 5.8s4.3 2.2 6.7 2.2v4.8c-3.6 0-6.9-1.2-9.8-3.6s-4.9-5.4-6.1-9.2h-.7v12.8H298V54.4h9.6c3.1 0 5.7 1.2 7.9 3.8 2.2 2.5 3.3 5.5 3.3 9s-1.1 6.6-3.3 9.1c-2.2 2.5-4.9 3.7-8 3.7m-5.3-4.8h5.4v-.1c1.9 0 3.6-.8 4.9-2.3s2.1-3.4 2.1-5.6-.7-4.1-2-5.6c-1.4-1.6-3-2.3-5-2.3v-.1h-5.4v16zm54.7-16h-16.7c-3.1 0-5.9 1.1-8.2 3.4-2.4 2.3-3.8 5.1-4.3 8.5h29.2v2.4c0 5.3-1.6 9.9-4.9 13.6s-7.2 5.6-11.9 5.7h-16.9V88H340c3.1 0 5.8-1.1 8.2-3.4 2.4-2.3 3.8-5.2 4.3-8.6h-29.2v-2.3c0-5.3 1.6-9.8 4.9-13.6s7.2-5.6 11.9-5.7h16.8v4.8zm21.4-4.9c4.6 0 8.6 1.9 11.9 5.6 3.3 3.8 5 8.3 5 13.6v19.3H391v-9.7h-25.3v9.7h-4.2V73.5c0-5.3 1.6-9.8 5-13.6 3.1-3.7 7.1-5.6 11.8-5.6m12.6 24v-4.7c0-3.9-1.2-7.3-3.7-10.2s-5.5-4.2-8.9-4.2c-3.5 0-6.5 1.4-9 4.2s-3.7 6.2-3.7 10.2v4.7h25.3zm29.4 9.7v4.8h-9.4c-3.1 0-5.7-1.2-7.9-3.7s-3.3-5.5-3.3-9V54.4h4.3V80c0 2.2.7 4.1 2 5.6 1.4 1.5 3 2.3 4.9 2.3l9.4.1zm4.5-33.5h4.2v38.4h-4.2zm42.3 0v1.7c0 5.3-1.6 9.9-4.9 13.6-3.3 3.8-7.3 5.6-11.9 5.6-3.2 0-6 1.2-8.3 3.6-2.4 2.4-3.8 5.4-4.2 8.9h29.4v4.8h-33.7v-2.9c0-5.3 1.6-9.9 4.9-13.6 3.3-3.8 7.3-5.6 11.9-5.6 3 0 5.6-1.1 7.9-3.2s3.8-4.9 4.4-8.1h-29.2v-4.8h33.7zm21.4-.2c4.6 0 8.6 1.9 11.9 5.6 3.3 3.8 5 8.3 5 13.6v19.3h-4.2v-9.7h-25.3v9.7h-4.2V73.5c0-5.3 1.6-9.8 5-13.6 3.2-3.7 7.2-5.6 11.8-5.6m12.7 24v-4.7c0-3.9-1.2-7.3-3.7-10.2s-5.5-4.2-8.9-4.2c-3.5 0-6.5 1.4-9 4.2s-3.7 6.2-3.7 10.2v4.7h25.3z"/><path id="SVGID_00000001653187176357155730000007384388893663293351_" class="st0" d="M301.8 101.1c-.5.1-.9.3-1.1.6l-1.4 1.7c-.3.3-.3.6-.1 1 .2.3.5.6 1 .7.3.1.5.1.9.1.7 0 1.3-.2 1.7-.7l1.3-1.7c.3-.3.3-.6.1-.9-.2-.3-.5-.6-1-.7-.2-.1-.5-.1-.8-.1-.2-.1-.4 0-.6 0"/><defs><path id="SVGID_1_" d="M301.8 101.1c-.5.1-.9.3-1.1.6l-1.4 1.7c-.3.3-.3.6-.1 1 .2.3.5.6 1 .7.3.1.5.1.9.1.7 0 1.3-.2 1.7-.7l1.3-1.7c.3-.3.3-.6.1-.9-.2-.3-.5-.6-1-.7-.2-.1-.5-.1-.8-.1-.2-.1-.4 0-.6 0"/></defs><clipPath id="SVGID_00000165200375818324478210000007129988072741484940_"><use xlink:href="#SVGID_1_" overflow="visible"/></clipPath><path clip-path="url(#SVGID_00000165200375818324478210000007129988072741484940_)" fill="#21409a" d="M299 101h5.4v4.1H299z"/><path id="SVGID_00000068671785230718852060000006816377110036397489_" class="st0" d="M401.9 138.4c-.3-.5.3-1.6 1.6-3.3 1.4-1.7 4.2-3.9 8.4-6.5-.1 1.9-.6 3.5-1.4 4.9-1.4 2-3 3.4-4.8 4.1-1.5.6-2.7.9-3.5.9-.1-.1-.2-.1-.3-.1m-44.6-12.1c-.1-.5.2-1.4.7-2.5 1.2-2.5 3.2-4.9 5.8-7.1 2.6-2.3 5.4-3.6 8.3-4.1 2.3-.3 4.3.3 6.2 1.7.1.1.3.2.4.2-3.3 2.7-6.8 5.3-10.6 7.8-1.6 1-3 1.9-4.2 2.5s-2.1 1.1-3 1.5c-.8.3-1.5.6-2 .7s-1 .2-1.5.2c0-.1 0-.4-.1-.9m-144.6-20.1c-1.8.8-1.4 2.7-1.4 2.7.3 2.4.8 4.4 1.4 5.8.6 1.4 1.3 2.6 2.2 3.5.6.7 1.3 1.2 2.1 1.4s1.4.4 2.1.4c2.2.2 5.1-.5 8.7-2.3 2-.9 4.3-2.3 7-3.9-1.1 1.8-2.4 3.6-3.7 5.7-2.3 3.5-4 6.2-5.2 8.3-.7 1.2-1.2 2.2-1.6 2.9-.3.5-.5 1-.5 1.4s.3.9.9 1.2c.3.1.7.2 1.1.2.6 0 1.2-.2 1.7-.6 1.5-1.2 4.1-3.7 7.7-7.5 2.1-2.1 4.2-4.3 6.3-6.4s4-3.8 5.6-5.2c1.8-1.4 3.1-2.3 4-2.6-1.9 3-3.5 5.5-4.5 7.6-1.1 2-1.9 3.6-2.3 4.9-.5 1.2-.7 2.1-.7 2.8 0 .6.1 1.1.3 1.4.2.3.4.4.6.5.3.2.7.3 1.2.4s1.2 0 2.1-.2c2.2-.8 5.2-3.3 9.1-7.5 1-1 2.1-2 3.2-3.1s2.1-2 3-2.6c.3 2.4.8 4.4 1.4 5.8s1.3 2.6 2.2 3.5c.6.7 1.3 1.2 2.1 1.4s1.4.4 2.1.4c2.2.2 5.1-.5 8.7-2.3 2.1-1 4.7-2.5 7.7-4.4-.4.7-.8 1.4-1 2-.3.5-.5 1.1-.7 1.9s-.3 1.6-.1 2.5c.2.9.8 1.6 1.8 2.1.8.4 1.8.6 3 .6 2.7-.1 5.9-.9 9.6-2.5 3.7-1.6 7.3-3.4 10.8-5.4.8-.5 1.5-.9 2.2-1.3l-8.2 12.1c-.2.3-.2.6 0 .9.2.3.5.5.9.7.3.1.6.1.9.1.6 0 1.2-.2 1.6-.6l2.1-2.1c1.3-1.4 2.9-3 4.8-4.9s3.9-3.8 6-5.6 3.9-3.2 5.5-4.2c2.2-1.3 3.9-2.1 5-2.6 1.1-.4 1.8-.6 2.1-.6.1 0 .1.1.1.2 0 .2 0 .6-.1.9v.1c-.1 1.6 0 3.4.3 5.5s1.5 3.7 3.5 4.9c.6.3 1.4.6 2.5.8s2.4.2 3.9 0c3.4-.6 6.6-1.7 9.8-3.1.7-.3 1.3-.6 2-.9-1.1 1.7-1.7 3.3-1.9 4.8 0 1.1.3 1.9.9 2.5.6.5 1.1.8 1.6 1s1.1.2 1.7.2c3 0 7.4-1.8 13.3-5.6 3.6-2.4 7-4.9 10.3-7.6-1.1 3.1-1.3 5.4-.6 6.9.7 1.5 1.8 2.5 3.3 3 1.1.5 2.4.7 3.9.7 6.6-.2 14.2-3.5 22.9-9.7.1.6.3 1.3.5 2.1.4 1.8.6 3.7.8 5.7-.6.3-1.1.7-1.6 1-5 2.9-8.4 5.5-10.2 7.7-1.8 2.2-2.5 3.8-2.1 5 .3.9 1.1 1.5 2.2 1.8.6.1 1.2.2 1.9.2 1.9 0 4-.5 6.2-1.5 2.3-1 4.2-2.7 5.8-5 1.3-2.3 1.9-5 1.7-8 5.6-3 10.7-5.5 15.2-7.5s6.9-3 7.2-3.1c.5-.2.7-.5.9-.8s.1-.6-.2-1c-.3-.3-.7-.5-1.3-.5-.5-.1-1 0-1.5.1-.3.1-2.4 1-6.5 2.8s-8.8 4-14.1 6.8c-.5-3.4-1-6.1-1.6-8.1-.2-.8-.1-1.5.4-2.1s1-1.1 1.8-1.5c.7-.4 1.4-.7 2-.9.6-.2 1-.3 1.1-.4.5-.1.9-.3 1.1-.6.2-.3.2-.6 0-1-.2-.3-.5-.5-1-.6s-1-.1-1.5 0c-1.8.4-3.6 1.3-5.5 2.6-1.4 1-2.2 2.2-2.2 3.6-5.2 4-10 6.9-14.5 8.6-4.5 1.8-7.7 2.3-9.6 1.6-1.4-.5-2-1.8-1.8-4.1.2-2.3 1.7-5.7 4.6-10.2.2-.3.2-.6.1-.9s-.4-.5-.9-.7-.9-.2-1.4-.2c-.5.1-.9.2-1.1.5-.1 0-.5.4-1.3 1.1s-1.8 1.6-3.1 2.7c-2.1-1.4-4.1-2.2-6-2.4-1.9-.2-3.6-.1-5.1.3-2.8.7-5.4 1.9-7.7 3.6-.1.1-.2.1-.3.1-.1 0-.7.4-1.8 1.2-1.2.8-2.7 1.7-4.6 2.7s-4 2-6.2 2.9-4.5 1.5-6.6 1.9c-.7.1-1.3.2-1.7.1-.4 0-.7-.1-1-.2-.2-.1-.4-.1-.4-.2-1.3-.8-2-2.1-2.2-3.9s-.2-3.3-.1-4.5c.1-.4.1-.8.1-1.1 0-.9-.3-1.5-.8-1.9s-1-.6-1.5-.7c-.5-.2-1.2-.2-2.1-.2s-2.1.4-3.6.9c-1.5.6-3.4 1.5-5.7 2.9-1.9 1.2-4.1 2.8-6.4 4.9l7-10.3c.3-.3.3-.6.1-1-.2-.3-.5-.5-1.1-.6-.5-.1-1-.1-1.5 0s-.8.3-1 .6l-4.1 6c-.1.1-.3.1-.4.2-6.7 4.3-12.7 7.7-18 10-1 .5-2 .8-2.8 1.1s-1.5.5-2.1.7-1.1.3-1.6.4-.8.1-1.2.2-.6 0-.7 0-.3 0-.5-.1c-.1-.1-.1-.2-.2-.3s-.1-.2-.1-.4v-.8c0-.3.1-.7.3-1.1.2-.4.4-1 .7-1.5.3-.6.7-1.3 1.1-2 .5-.7 1-1.6 1.7-2.6.7-.9 1.5-2 2.4-3.2s2-2.4 3.2-3.8c.3-.3.3-.6.1-1-.2-.3-.5-.6-.9-.8-.5-.2-.9-.2-1.5-.1-.5.1-.9.3-1.2.6-1.3 1.4-2.4 2.8-3.4 4.1-.2.1-.4.1-.5.2-1.4.9-3.4 2.3-6 3.9-2.5 1.7-5.1 3.2-7.8 4.5-2.6 1.3-4.7 2-6.1 2-.2 0-.4-.1-.6-.2s-.4-.2-.7-.5c-.7-.8-1.3-1.8-1.9-3-.5-1.2-1-3-1.2-5.2 0-.2 0-.5-.1-.9s-.3-.7-.7-1.1c-.4-.4-.9-.6-1.7-.8-1.4-.2-2.9.3-4.5 1.5s-3.7 3.2-6.2 5.8c-1 1-2 2-3.1 3s-2.1 1.9-3 2.6c.7-2.4 3.1-6.8 7.2-13.2.9-1.6.5-2.7-1.1-3.4-.8-.4-2-.4-3.6 0s-3.5 1.6-5.9 3.5c-3.2 2.8-6.9 6.3-11.1 10.6 2.8-4.4 5.9-9.1 9.3-14.1.3-.2.4-.5.4-.8s-.2-.6-.6-.9-.8-.4-1.4-.3c-.2 0-.5.1-.7.1h-.2c-.4.1-.6.3-.9.5-1.4.9-3.2 2.1-5.6 3.7-2.6 1.7-5.1 3.1-7.8 4.5-2.6 1.3-4.7 2-6.1 2-.2 0-.4-.1-.6-.2-.2-.1-.4-.2-.7-.5-.7-.8-1.3-1.8-1.9-3-.6-1.2-.9-3-1.2-5.2 0-.2-.1-.5-.1-.9-.1-.4-.3-.7-.7-1.1-.3-.3-.7-.6-1.2-.6-.5.3-.6.3-.8.3"/><defs><path id="SVGID_00000121263389635416115030000008742631541896094355_" d="M401.9 138.4c-.3-.5.3-1.6 1.6-3.3 1.4-1.7 4.2-3.9 8.4-6.5-.1 1.9-.6 3.5-1.4 4.9-1.4 2-3 3.4-4.8 4.1-1.5.6-2.7.9-3.5.9-.1-.1-.2-.1-.3-.1m-44.6-12.1c-.1-.5.2-1.4.7-2.5 1.2-2.5 3.2-4.9 5.8-7.1 2.6-2.3 5.4-3.6 8.3-4.1 2.3-.3 4.3.3 6.2 1.7.1.1.3.2.4.2-3.3 2.7-6.8 5.3-10.6 7.8-1.6 1-3 1.9-4.2 2.5s-2.1 1.1-3 1.5c-.8.3-1.5.6-2 .7s-1 .2-1.5.2c0-.1 0-.4-.1-.9m-144.6-20.1c-1.8.8-1.4 2.7-1.4 2.7.3 2.4.8 4.4 1.4 5.8.6 1.4 1.3 2.6 2.2 3.5.6.7 1.3 1.2 2.1 1.4s1.4.4 2.1.4c2.2.2 5.1-.5 8.7-2.3 2-.9 4.3-2.3 7-3.9-1.1 1.8-2.4 3.6-3.7 5.7-2.3 3.5-4 6.2-5.2 8.3-.7 1.2-1.2 2.2-1.6 2.9-.3.5-.5 1-.5 1.4s.3.9.9 1.2c.3.1.7.2 1.1.2.6 0 1.2-.2 1.7-.6 1.5-1.2 4.1-3.7 7.7-7.5 2.1-2.1 4.2-4.3 6.3-6.4s4-3.8 5.6-5.2c1.8-1.4 3.1-2.3 4-2.6-1.9 3-3.5 5.5-4.5 7.6-1.1 2-1.9 3.6-2.3 4.9-.5 1.2-.7 2.1-.7 2.8 0 .6.1 1.1.3 1.4.2.3.4.4.6.5.3.2.7.3 1.2.4s1.2 0 2.1-.2c2.2-.8 5.2-3.3 9.1-7.5 1-1 2.1-2 3.2-3.1s2.1-2 3-2.6c.3 2.4.8 4.4 1.4 5.8s1.3 2.6 2.2 3.5c.6.7 1.3 1.2 2.1 1.4s1.4.4 2.1.4c2.2.2 5.1-.5 8.7-2.3 2.1-1 4.7-2.5 7.7-4.4-.4.7-.8 1.4-1 2-.3.5-.5 1.1-.7 1.9s-.3 1.6-.1 2.5c.2.9.8 1.6 1.8 2.1.8.4 1.8.6 3 .6 2.7-.1 5.9-.9 9.6-2.5 3.7-1.6 7.3-3.4 10.8-5.4.8-.5 1.5-.9 2.2-1.3l-8.2 12.1c-.2.3-.2.6 0 .9.2.3.5.5.9.7.3.1.6.1.9.1.6 0 1.2-.2 1.6-.6l2.1-2.1c1.3-1.4 2.9-3 4.8-4.9s3.9-3.8 6-5.6 3.9-3.2 5.5-4.2c2.2-1.3 3.9-2.1 5-2.6 1.1-.4 1.8-.6 2.1-.6.1 0 .1.1.1.2 0 .2 0 .6-.1.9v.1c-.1 1.6 0 3.4.3 5.5s1.5 3.7 3.5 4.9c.6.3 1.4.6 2.5.8s2.4.2 3.9 0c3.4-.6 6.6-1.7 9.8-3.1.7-.3 1.3-.6 2-.9-1.1 1.7-1.7 3.3-1.9 4.8 0 1.1.3 1.9.9 2.5.6.5 1.1.8 1.6 1s1.1.2 1.7.2c3 0 7.4-1.8 13.3-5.6 3.6-2.4 7-4.9 10.3-7.6-1.1 3.1-1.3 5.4-.6 6.9.7 1.5 1.8 2.5 3.3 3 1.1.5 2.4.7 3.9.7 6.6-.2 14.2-3.5 22.9-9.7.1.6.3 1.3.5 2.1.4 1.8.6 3.7.8 5.7-.6.3-1.1.7-1.6 1-5 2.9-8.4 5.5-10.2 7.7-1.8 2.2-2.5 3.8-2.1 5 .3.9 1.1 1.5 2.2 1.8.6.1 1.2.2 1.9.2 1.9 0 4-.5 6.2-1.5 2.3-1 4.2-2.7 5.8-5 1.3-2.3 1.9-5 1.7-8 5.6-3 10.7-5.5 15.2-7.5s6.9-3 7.2-3.1c.5-.2.7-.5.9-.8s.1-.6-.2-1c-.3-.3-.7-.5-1.3-.5-.5-.1-1 0-1.5.1-.3.1-2.4 1-6.5 2.8s-8.8 4-14.1 6.8c-.5-3.4-1-6.1-1.6-8.1-.2-.8-.1-1.5.4-2.1s1-1.1 1.8-1.5c.7-.4 1.4-.7 2-.9.6-.2 1-.3 1.1-.4.5-.1.9-.3 1.1-.6.2-.3.2-.6 0-1-.2-.3-.5-.5-1-.6s-1-.1-1.5 0c-1.8.4-3.6 1.3-5.5 2.6-1.4 1-2.2 2.2-2.2 3.6-5.2 4-10 6.9-14.5 8.6-4.5 1.8-7.7 2.3-9.6 1.6-1.4-.5-2-1.8-1.8-4.1.2-2.3 1.7-5.7 4.6-10.2.2-.3.2-.6.1-.9s-.4-.5-.9-.7-.9-.2-1.4-.2c-.5.1-.9.2-1.1.5-.1 0-.5.4-1.3 1.1s-1.8 1.6-3.1 2.7c-2.1-1.4-4.1-2.2-6-2.4-1.9-.2-3.6-.1-5.1.3-2.8.7-5.4 1.9-7.7 3.6-.1.1-.2.1-.3.1-.1 0-.7.4-1.8 1.2-1.2.8-2.7 1.7-4.6 2.7s-4 2-6.2 2.9-4.5 1.5-6.6 1.9c-.7.1-1.3.2-1.7.1-.4 0-.7-.1-1-.2-.2-.1-.4-.1-.4-.2-1.3-.8-2-2.1-2.2-3.9s-.2-3.3-.1-4.5c.1-.4.1-.8.1-1.1 0-.9-.3-1.5-.8-1.9s-1-.6-1.5-.7c-.5-.2-1.2-.2-2.1-.2s-2.1.4-3.6.9c-1.5.6-3.4 1.5-5.7 2.9-1.9 1.2-4.1 2.8-6.4 4.9l7-10.3c.3-.3.3-.6.1-1-.2-.3-.5-.5-1.1-.6-.5-.1-1-.1-1.5 0s-.8.3-1 .6l-4.1 6c-.1.1-.3.1-.4.2-6.7 4.3-12.7 7.7-18 10-1 .5-2 .8-2.8 1.1s-1.5.5-2.1.7-1.1.3-1.6.4-.8.1-1.2.2-.6 0-.7 0-.3 0-.5-.1c-.1-.1-.1-.2-.2-.3s-.1-.2-.1-.4v-.8c0-.3.1-.7.3-1.1.2-.4.4-1 .7-1.5.3-.6.7-1.3 1.1-2 .5-.7 1-1.6 1.7-2.6.7-.9 1.5-2 2.4-3.2s2-2.4 3.2-3.8c.3-.3.3-.6.1-1-.2-.3-.5-.6-.9-.8-.5-.2-.9-.2-1.5-.1-.5.1-.9.3-1.2.6-1.3 1.4-2.4 2.8-3.4 4.1-.2.1-.4.1-.5.2-1.4.9-3.4 2.3-6 3.9-2.5 1.7-5.1 3.2-7.8 4.5-2.6 1.3-4.7 2-6.1 2-.2 0-.4-.1-.6-.2s-.4-.2-.7-.5c-.7-.8-1.3-1.8-1.9-3-.5-1.2-1-3-1.2-5.2 0-.2 0-.5-.1-.9s-.3-.7-.7-1.1c-.4-.4-.9-.6-1.7-.8-1.4-.2-2.9.3-4.5 1.5s-3.7 3.2-6.2 5.8c-1 1-2 2-3.1 3s-2.1 1.9-3 2.6c.7-2.4 3.1-6.8 7.2-13.2.9-1.6.5-2.7-1.1-3.4-.8-.4-2-.4-3.6 0s-3.5 1.6-5.9 3.5c-3.2 2.8-6.9 6.3-11.1 10.6 2.8-4.4 5.9-9.1 9.3-14.1.3-.2.4-.5.4-.8s-.2-.6-.6-.9-.8-.4-1.4-.3c-.2 0-.5.1-.7.1h-.2c-.4.1-.6.3-.9.5-1.4.9-3.2 2.1-5.6 3.7-2.6 1.7-5.1 3.1-7.8 4.5-2.6 1.3-4.7 2-6.1 2-.2 0-.4-.1-.6-.2-.2-.1-.4-.2-.7-.5-.7-.8-1.3-1.8-1.9-3-.6-1.2-.9-3-1.2-5.2 0-.2-.1-.5-.1-.9-.1-.4-.3-.7-.7-1.1-.3-.3-.7-.6-1.2-.6-.5.3-.6.3-.8.3"/></defs><clipPath id="SVGID_00000090259899961927125150000011621101951823492494_"><use xlink:href="#SVGID_00000121263389635416115030000008742631541896094355_" overflow="visible"/></clipPath><path clip-path="url(#SVGID_00000090259899961927125150000011621101951823492494_)" fill="#21409a" d="M210.9 106.2h228.5v34.7H210.9z"/></svg>