<svg version="1.1" id="Layer_1" xmlns="http://www.w3.org/2000/svg" xmlns:xlink="http://www.w3.org/1999/xlink" x="0" y="0" viewBox="0 0 425.2 425.2" xml:space="preserve"><style>.st0{fill:#00b4bf}</style><path class="st0" d="M199.68 211.54c-13.79-4.47-25.66-12.46-34.35-23.12-8.94-10.97-13.68-23.81-13.69-37.13l.08-34.61c0-8.68 5.61-16.55 14.65-20.54l4.43-2.04-.08 58.42c0 1.06.08 2.16.24 3.27.85 11.48 5.06 22.79 12.17 32.65 5.93 8.21 13.84 15.34 22.97 20.73-2.09.88-4.24 1.68-6.42 2.37zm26.34 0c-2.13-.69-4.25-1.48-6.31-2.35 9.19-5.39 17.14-12.53 23.11-20.76 7.15-9.87 11.39-21.22 12.25-32.81.15-1.03.23-2.13.23-3.19V88.52c0-8.68 5.6-16.54 14.63-20.52l4.46-2.2v85.34c0 13.39-4.77 26.29-13.79 37.31-8.64 10.52-20.9 18.71-34.58 23.09z"/><path class="st0" d="M158.68 175.65c4.36.09 9.15-1.36 14.27-4.84 7.27-4.95 13.83-9.6 21.44-4.54 11.41 7.6 10.95 14.3 23.5 13.7 12.55-.6 11.52-11.2 9.7-17.9-1.83-6.7 10.84-7.5 8.9.3-1.94 7.8-4.22 15.7 5.82 16 4.5.13 12.45 0 28.25-8.09 0 0-10.96 38.04-58.06 44.72 0 0-38.56-3.88-55.28-39.19l1.46-.16zm73.13-46.22c-5.63 0-10.2 4.6-10.2 10.28s4.56 10.28 10.2 10.28c5.63 0 10.2-4.6 10.2-10.28s-4.56-10.28-10.2-10.28zM37.06 237.23v19.12c0 3.99 1.23 7.39 3.7 10.2 2.47 2.81 5.45 4.22 8.95 4.22 3.5 0 6.48-1.41 8.95-4.22 2.47-2.81 3.7-6.21 3.7-10.2l.04-19.12h4.22v19.28c-.06 5.28-1.73 9.78-5.02 13.5-3.29 3.71-7.25 5.57-11.88 5.57-4.64 0-8.6-1.87-11.89-5.6-3.29-3.73-4.95-8.27-4.98-13.63v-19.12h4.21zm63.51 38.35v-19.12c-.03-4.02-1.27-7.43-3.72-10.23-2.45-2.8-5.44-4.19-8.97-4.19-3.47 0-6.43 1.39-8.88 4.17-2.45 2.78-3.71 6.14-3.77 10.1v19.27h-4.22v-19.12c0-5.28 1.64-9.81 4.93-13.58 3.29-3.76 7.27-5.65 11.93-5.65 4.64 0 8.6 1.86 11.89 5.57 3.29 3.72 4.96 8.21 5.02 13.5v19.27h-4.21zm8.7-38.35h4.22v38.35h-4.22zm33.99 0v38.35h-8.39c-4.64 0-8.6-1.86-11.89-5.57-3.29-3.72-4.96-8.21-5.02-13.5v-19.28h4.22v19.07c0 3.99 1.24 7.4 3.72 10.23 2.48 2.83 5.47 4.24 8.97 4.24h4.17v-33.54h4.22zm37.99 4.66h-16.64c-3.5 0-6.48 1.41-8.95 4.24-2.47 2.83-3.7 6.24-3.7 10.23 0 3.95 1.23 7.35 3.7 10.17 2.47 2.83 5.45 4.24 8.95 4.24h16.64v4.81h-16.77c-4.63-.07-8.58-1.98-11.84-5.73-3.26-3.75-4.89-8.25-4.89-13.5 0-5.28 1.63-9.8 4.89-13.55s7.21-5.66 11.84-5.73h16.77v4.82zm-33.1 14.46c0-.68.2-1.25.61-1.71.4-.46.9-.69 1.5-.69h25.02v4.81h-25.02c-.57 0-1.06-.24-1.48-.72-.42-.47-.63-1.04-.63-1.69m47.09 6.45c1.05 2.39 2.59 4.31 4.62 5.78 2.03 1.47 4.26 2.2 6.68 2.2v4.81c-3.62 0-6.87-1.18-9.76-3.55-2.89-2.37-4.93-5.45-6.12-9.23h-.72v12.78h-4.22v-38.35h9.64c3.08 0 5.71 1.25 7.89 3.76 2.18 2.5 3.27 5.51 3.27 9.02 0 3.54-1.1 6.56-3.3 9.05-2.17 2.48-4.84 3.73-7.98 3.73m-5.29-4.81h5.43v-.05c1.91 0 3.56-.78 4.93-2.33 1.37-1.55 2.06-3.42 2.06-5.6 0-2.18-.68-4.05-2.04-5.6-1.36-1.55-3.01-2.33-4.96-2.33v-.05h-5.43v15.96zm54.72-16h-16.73c-3.11 0-5.85 1.13-8.21 3.4-2.36 2.27-3.8 5.1-4.31 8.51h29.24v2.4c0 5.32-1.64 9.85-4.91 13.6-3.27 3.75-7.23 5.64-11.86 5.67h-16.86v-4.8h16.73c3.11 0 5.84-1.15 8.21-3.45 2.36-2.3 3.8-5.17 4.3-8.61h-29.24v-2.3c0-5.28 1.64-9.8 4.93-13.55s7.25-5.64 11.89-5.68h16.82v4.81zm21.39-4.91c4.63 0 8.6 1.89 11.91 5.65 3.3 3.77 4.96 8.29 4.96 13.57v19.27h-4.22v-9.73h-25.34v9.73h-4.22V256.3c0-5.28 1.65-9.81 4.96-13.57 3.3-3.77 7.29-5.65 11.95-5.65m12.65 23.96v-4.73c0-3.95-1.24-7.34-3.72-10.17-2.48-2.83-5.46-4.24-8.92-4.24-3.5 0-6.49 1.41-8.97 4.24-2.48 2.83-3.72 6.22-3.72 10.17v4.73h25.33zm29.33 9.73v4.81h-9.42c-3.08 0-5.72-1.24-7.92-3.71-2.2-2.47-3.3-5.48-3.3-9.02v-25.61h4.31v25.61c0 2.22.67 4.09 2.02 5.62 1.35 1.53 2.98 2.3 4.89 2.3h9.42zm4.49-33.54h4.22v38.35h-4.22zm42.38 0v1.74c0 5.32-1.65 9.86-4.93 13.63-3.29 3.77-7.27 5.65-11.93 5.65-3.2 0-5.98 1.2-8.34 3.61-2.36 2.4-3.75 5.38-4.17 8.92h29.38v4.81h-33.68v-2.91c0-5.32 1.64-9.86 4.93-13.63 3.29-3.76 7.27-5.65 11.93-5.65 2.99 0 5.64-1.07 7.94-3.22 2.3-2.15 3.77-4.86 4.4-8.13h-29.2v-4.81h33.67zm21.39-.15c4.63 0 8.6 1.89 11.91 5.65 3.3 3.77 4.96 8.29 4.96 13.57v19.27h-4.22v-9.73h-25.34v9.73h-4.22V256.3c0-5.28 1.65-9.81 4.96-13.57 3.3-3.77 7.29-5.65 11.95-5.65m12.65 23.96v-4.73c0-3.95-1.24-7.34-3.72-10.17-2.48-2.83-5.46-4.24-8.92-4.24-3.5 0-6.49 1.41-8.97 4.24-2.48 2.83-3.72 6.22-3.72 10.17v4.73h25.33z"/><defs><path id="SVGID_1_" d="M189.57 283.88c-.48.11-.86.3-1.11.59l-1.36 1.68c-.26.33-.31.65-.14.96.16.31.5.55 1.02.72.26.08.55.12.87.12.71 0 1.29-.23 1.74-.68l1.26-1.68c.26-.29.3-.6.15-.93-.16-.33-.5-.58-1.02-.74-.25-.07-.5-.1-.76-.1-.21-.01-.43.02-.65.06"/></defs><use xlink:href="#SVGID_1_" overflow="visible" fill="#00b4bf"/><clipPath id="SVGID_00000040539417860106254500000016346285718104485025_"><use xlink:href="#SVGID_1_" overflow="visible"/></clipPath><path clip-path="url(#SVGID_00000040539417860106254500000016346285718104485025_)" fill="#00b4bf" d="M186.8 283.81h5.36v4.14h-5.36z"/><defs><path id="SVGID_00000085218137674448129370000011216350116050646190_" d="M289.63 321.13c-.26-.5.29-1.6 1.65-3.29 1.36-1.7 4.17-3.87 8.43-6.53-.13 1.86-.58 3.48-1.36 4.85-1.42 1.99-3.01 3.35-4.75 4.07-1.49.62-2.67.93-3.55.93-.15 0-.29-.01-.42-.03m-44.58-12.02c-.06-.52.16-1.36.68-2.52 1.23-2.49 3.17-4.86 5.81-7.11 2.65-2.26 5.43-3.64 8.34-4.13 2.26-.29 4.33.27 6.2 1.68.13.08.26.17.39.25a116.48 116.48 0 0 1-10.56 7.77 81.866 81.866 0 0 1-4.17 2.52c-1.16.64-2.15 1.13-2.95 1.46-.81.33-1.47.57-1.99.71s-1 .22-1.46.22c-.13-.05-.22-.33-.29-.85m-144.61-20.08c-1.83.77-1.39 2.68-1.39 2.68.32 2.44.79 4.37 1.41 5.78.61 1.41 1.34 2.57 2.18 3.48.64.7 1.34 1.18 2.08 1.43s1.44.39 2.08.43c2.2.21 5.09-.55 8.67-2.27 1.97-.94 4.32-2.27 7.04-3.95-1.14 1.75-2.38 3.64-3.73 5.7-2.26 3.48-4 6.24-5.23 8.26-.71 1.24-1.23 2.2-1.55 2.86-.32.5-.5.97-.53 1.43-.03.46.27.85.92 1.18.32.12.68.18 1.07.18.58 0 1.16-.18 1.74-.56 1.49-1.2 4.07-3.69 7.75-7.46 2.07-2.15 4.17-4.28 6.3-6.37s4.01-3.82 5.62-5.19c1.81-1.45 3.13-2.3 3.97-2.55-1.94 3.02-3.46 5.54-4.55 7.55-1.1 2.01-1.88 3.62-2.33 4.85-.45 1.22-.7 2.15-.73 2.8-.03.64.06 1.1.29 1.37.23.27.44.44.63.53.26.17.66.3 1.21.4.55.1 1.24.03 2.08-.22 2.2-.83 5.23-3.31 9.11-7.46 1.03-.99 2.12-2.04 3.25-3.14s2.12-1.96 2.96-2.58c.32 2.44.79 4.37 1.4 5.78.61 1.41 1.34 2.57 2.18 3.48.65.7 1.34 1.18 2.08 1.43s1.44.39 2.08.43c2.2.21 5.09-.55 8.67-2.27 2.12-1.02 4.7-2.48 7.69-4.36-.41.7-.77 1.36-1.05 1.97-.26.46-.5 1.09-.73 1.89-.23.81-.26 1.64-.1 2.49.16.85.76 1.56 1.79 2.14.84.37 1.84.56 3 .56 2.71-.08 5.91-.91 9.59-2.49 3.68-1.57 7.28-3.38 10.81-5.4.78-.45 1.52-.89 2.25-1.31l-8.21 12.06c-.19.33-.21.64-.05.93.16.29.47.52.92.68.32.08.61.12.87.12.65 0 1.2-.21 1.65-.62.13-.08.82-.8 2.08-2.14 1.26-1.35 2.86-2.97 4.8-4.88 1.94-1.9 3.94-3.76 6.01-5.56 2.07-1.8 3.91-3.2 5.52-4.19 2.2-1.28 3.86-2.13 4.99-2.55 1.13-.41 1.83-.62 2.08-.62.06.04.1.12.1.25 0 .25-.04.56-.1.93v.06c-.13 1.58-.03 3.4.29 5.47.32 2.07 1.48 3.69 3.49 4.85.58.33 1.4.59 2.47.78 1.07.19 2.37.18 3.93-.03 3.36-.62 6.62-1.66 9.79-3.11.68-.31 1.33-.62 1.96-.93-1.08 1.71-1.72 3.3-1.86 4.78 0 1.12.29 1.93.87 2.45.58.52 1.13.84 1.65.96s1.1.19 1.74.19c2.97.04 7.4-1.82 13.27-5.59 3.62-2.4 7.04-4.93 10.27-7.58-1.1 3.07-1.29 5.37-.58 6.9.71 1.53 1.81 2.53 3.29 2.98 1.1.45 2.39.68 3.88.68 6.58-.23 14.2-3.46 22.87-9.68.15.63.31 1.33.49 2.13.39 1.76.64 3.66.77 5.68-.58.33-1.13.66-1.65.99-4.97 2.94-8.37 5.5-10.18 7.67-1.81 2.18-2.52 3.84-2.13 5 .32.91 1.07 1.51 2.23 1.8.58.12 1.23.19 1.94.19 1.88 0 3.96-.52 6.25-1.55 2.29-1.04 4.22-2.69 5.77-4.97 1.29-2.28 1.87-4.95 1.74-8.02 5.62-3.02 10.67-5.52 15.17-7.49 4.49-1.97 6.9-2.99 7.22-3.08.45-.21.74-.47.87-.78.13-.31.06-.63-.19-.96-.33-.29-.74-.47-1.26-.53-.52-.06-1-.01-1.46.15-.26.08-2.42 1.01-6.49 2.77s-8.79 4.03-14.15 6.8c-.45-3.44-1-6.15-1.65-8.14-.2-.79-.07-1.48.39-2.08.45-.6 1.05-1.11 1.79-1.52.74-.42 1.42-.73 2.04-.93.61-.21.98-.33 1.11-.37.51-.12.87-.34 1.07-.65.19-.31.19-.63 0-.96-.19-.29-.53-.51-1.02-.65a2.93 2.93 0 0 0-1.5-.03c-1.81.42-3.65 1.27-5.52 2.58-1.41.98-2.16 2.19-2.25 3.61-5.22 4.01-10.04 6.89-14.47 8.63-4.49 1.76-7.7 2.29-9.64 1.58-1.36-.46-1.96-1.82-1.79-4.1.16-2.28 1.7-5.68 4.6-10.19.19-.29.22-.58.1-.87-.13-.29-.42-.52-.87-.68-.45-.17-.92-.22-1.4-.16-.48.06-.86.24-1.11.53-.06 0-.48.35-1.26 1.05-.77.7-1.81 1.6-3.1 2.67-2.07-1.41-4.07-2.21-6.01-2.39-1.94-.19-3.65-.09-5.14.28-2.82.74-5.38 1.94-7.7 3.57-.11.05-.23.09-.34.15-.07.04-.68.45-1.84 1.21-1.16.77-2.7 1.67-4.6 2.7a59.653 59.653 0 0 1-6.25 2.92c-2.26.91-4.46 1.55-6.59 1.93-.71.12-1.28.17-1.7.12-.42-.04-.74-.1-.97-.19-.23-.08-.37-.14-.44-.19-1.29-.79-2.03-2.07-2.23-3.85-.19-1.78-.23-3.27-.1-4.47.06-.41.1-.76.1-1.05 0-.87-.26-1.49-.77-1.86-.52-.37-1-.62-1.45-.74-.52-.16-1.23-.22-2.13-.16-.9.06-2.1.37-3.58.93-1.49.56-3.39 1.54-5.72 2.95-1.94 1.16-4.07 2.78-6.4 4.85l6.98-10.31c.26-.33.29-.65.1-.96-.19-.31-.55-.53-1.07-.65s-1.02-.12-1.5 0-.82.33-1.02.62l-4.07 5.98c-.13.05-.27.1-.39.17-6.72 4.35-12.73 7.68-18.02 10a40.652 40.652 0 0 1-4.89 1.83c-.62.19-1.15.32-1.6.4-.45.08-.84.14-1.16.16-.32.02-.57.03-.73.03-.16 0-.34-.02-.53-.06-.06-.12-.13-.24-.19-.34-.06-.1-.11-.25-.14-.43-.03-.19-.03-.43 0-.75.03-.31.13-.68.29-1.12.16-.43.39-.95.68-1.55.29-.6.66-1.27 1.11-2.02.45-.74 1.02-1.59 1.7-2.55.68-.95 1.48-2.02 2.42-3.2a85.58 85.58 0 0 1 3.25-3.82c.26-.33.31-.65.15-.96-.16-.31-.47-.57-.92-.78-.45-.17-.94-.2-1.45-.09-.52.1-.9.3-1.16.59-1.27 1.45-2.4 2.81-3.43 4.1-.19.07-.38.14-.55.25-1.42.95-3.41 2.26-5.96 3.91a82.275 82.275 0 0 1-7.75 4.47c-2.62 1.33-4.67 1.99-6.15 1.99-.19-.04-.39-.1-.58-.19-.19-.08-.42-.25-.68-.5-.71-.78-1.34-1.8-1.89-3.04-.55-1.24-.96-2.98-1.21-5.22 0-.21-.05-.5-.14-.87-.1-.37-.32-.73-.68-1.09-.35-.35-.92-.61-1.7-.78-1.36-.21-2.86.3-4.51 1.52s-3.73 3.16-6.25 5.81c-.97.99-2.01 2.01-3.1 3.04-1.1 1.04-2.1 1.91-3 2.61.71-2.4 3.1-6.81 7.17-13.23.9-1.57.55-2.71-1.07-3.42-.84-.37-2.04-.36-3.59.03-1.55.39-3.52 1.57-5.91 3.51-3.23 2.82-6.92 6.34-11.05 10.56 2.81-4.43 5.91-9.12 9.29-14.07.28-.22.42-.48.39-.76-.03-.33-.24-.62-.63-.87s-.84-.36-1.36-.34c-.25.01-.47.05-.69.11-.06.01-.12.01-.17.02-.38.1-.65.28-.85.51-1.39.93-3.24 2.15-5.6 3.68a82.275 82.275 0 0 1-7.75 4.47c-2.62 1.32-4.67 1.99-6.15 1.99-.19-.04-.39-.1-.58-.19-.19-.08-.42-.25-.68-.5-.71-.79-1.34-1.8-1.89-3.04-.55-1.24-.95-2.98-1.21-5.22 0-.21-.05-.5-.15-.87-.1-.37-.32-.73-.68-1.09-.27-.27-.66-.56-1.17-.56-.16.06-.32.09-.5.16"/></defs><use xlink:href="#SVGID_00000085218137674448129370000011216350116050646190_" overflow="visible" fill="#00b4bf"/><clipPath id="SVGID_00000078020677897255006050000001359926731369111964_"><use xlink:href="#SVGID_00000085218137674448129370000011216350116050646190_" overflow="visible"/></clipPath><path clip-path="url(#SVGID_00000078020677897255006050000001359926731369111964_)" fill="#00b4bf" d="M98.62 288.93h228.45v34.68H98.62z"/></svg>