<svg version="1.1" id="Layer_1" xmlns="http://www.w3.org/2000/svg" xmlns:xlink="http://www.w3.org/1999/xlink" x="0" y="0" viewBox="0 0 505.4 149.3" xml:space="preserve"><style>.st0{fill:#21409a}.st10{fill:#294295}.st17{fill:#294898}.st18{fill:#294999}.st19{fill:#294a99}.st20{fill:#294a9a}.st21{fill:#294b9a}.st22{fill:#294c9b}.st23{fill:#294d9b}.st24{fill:#294e9c}.st25{fill:#294f9c}.st26{fill:#294f9d}.st27{fill:#29509d}.st28{fill:#29519e}.st29{fill:#29529e}.st30{fill:#29539f}.st31{fill:#29549f}.st32{fill:#2954a0}.st33{fill:#2955a0}.st34{fill:#2956a1}.st35{fill:#2957a2}.st36{fill:#2958a2}.st37{fill:#2959a3}.st38{fill:#295aa3}.st39{fill:#295aa4}.st40{fill:#295ba4}.st41{fill:#295ca5}.st42{fill:#295da6}.st43{fill:#295ea6}.st44{fill:#295ea7}.st45{fill:#295fa7}.st46{fill:#2960a8}.st47{fill:#2961a8}.st48{fill:#2961a9}.st49{fill:#2962a9}.st50{fill:#2963aa}.st51{fill:#2964aa}.st52{fill:#2964ab}.st53{fill:#2965ab}.st54{fill:#2965ac}.st55{fill:#2966ac}.st56{fill:#2967ad}.st57{fill:#2a67ad}.st58{fill:#2a68ad}.st59{fill:#2a68ae}.st60{fill:#2a69ae}.st61{fill:#2a69af}.st62{fill:#2a6aaf}.st63{fill:#2a6bb0}.st64{fill:#2a6cb0}.st65{fill:#2a6cb1}.st66{fill:#2a6db1}.st67{fill:#2a6db2}.st68{fill:#2a6eb2}.st69{fill:#2a6fb3}.st70{fill:#2a70b3}.st71{fill:#2a70b4}.st72{fill:#2a71b4}.st73{fill:#2a72b5}.st74{fill:#2a73b5}.st75{fill:#2a73b6}.st76{fill:#2a74b6}.st77{fill:#2a74b7}.st78{fill:#2a75b7}.st79{fill:#2a76b8}.st80{fill:#2a77b8}.st81{fill:#2a77b9}.st82{fill:#2a78b9}.st83{fill:#2a78ba}.st84{fill:#2b79ba}.st85{fill:#2b79bb}.st86{fill:#2b7abb}.st87{fill:#2b7bbb}.st88{fill:#2b7bbc}.st89{fill:#2b7cbc}.st90{fill:#2b7cbd}.st91{fill:#2b7dbd}.st92{fill:#2b7ebe}.st93{fill:#2b7fbf}.st94{fill:#2b80bf}.st95{fill:#2b80c0}.st96{fill:#2b81c0}.st97{fill:#2b81c1}.st98{fill:#2a82c1}.st99{fill:#2a83c2}.st100{fill:#2a84c3}.st101{fill:#2a85c3}.st102{fill:#2a85c4}.st103{fill:#2a86c4}.st104{fill:#2a87c5}.st105{fill:#2a88c6}.st106{fill:#2a89c6}.st107{fill:#2a89c7}.st108{fill:#2a8ac7}.st109{fill:#2a8ac8}.st110{fill:#2a8bc8}.st111{fill:#2a8cc9}.st112{fill:#2a8dca}.st113{fill:#2a8eca}.st114{fill:#2a8ecb}.st115{fill:#2a8fcb}.st116{fill:#2990cc}.st117{fill:#2991cd}.st118{fill:#2992ce}.st119{fill:#2993ce}.st120{fill:#2993cf}.st121{fill:#2994cf}.st122{fill:#2994d0}.st123{fill:#2995d0}.st124{fill:#2996d1}.st125{fill:#2997d2}.st126{fill:#2998d3}.st127{fill:#2899d3}.st128{fill:#2899d4}.st129{fill:#289ad4}.st130{fill:#289bd5}.st131{fill:#289cd6}.st132{fill:#289dd7}.st133{fill:#289ed7}.st134{fill:#289ed8}.st135{fill:#289fd8}.st136{fill:#289fd9}.st137{fill:#28a0d9}.st138{fill:#28a1da}.st139{fill:#28a2db}.st140{fill:#28a3dc}.st141{fill:#28a4dc}.st142{fill:#28a4dd}.st143{fill:#28a5dd}.st144{fill:#28a6de}</style><path class="st0" d="M48 145.7c-13.8-4.5-25.7-12.5-34.3-23.1C4.8 111.7 0 98.8 0 85.5l.1-34.6c0-8.7 5.6-16.6 14.6-20.5l4.4-2-.1 58.4c0 1.1.1 2.2.2 3.3.8 11.5 5.1 22.8 12.2 32.7 5.9 8.2 13.8 15.3 23 20.7-2 .7-4.2 1.5-6.4 2.2zm26.4 0c-2.1-.7-4.2-1.5-6.3-2.4 9.2-5.4 17.1-12.5 23.1-20.8 7.2-9.9 11.4-21.2 12.2-32.8.2-1 .2-2.1.2-3.2V22.7c0-8.7 5.6-16.5 14.6-20.5l4.5-2.2v85.3c0 13.4-4.8 26.3-13.8 37.3-8.6 10.6-20.8 18.8-34.5 23.1z"/><path d="M2.5 89.2s0 .1 0 0c0 .1.1 0 .1 0h-.1z" fill="#2a3b91"/><path d="M3.2 88.9h-.7v.3h.1l.6-.3z" fill="#2a3c91"/><path d="M3.8 88.6H2.5v.3h.7l.6-.3z" fill="#2a3c92"/><path d="M4.4 88.3h-2v.3h1.3c.3-.1.5-.2.7-.3zm.5-.3H2.4v.3h1.9l.6-.3z" fill="#2a3d92"/><path d="M5.5 87.7H2.4v.3h2.5l.6-.3zm.6-.3H2.4v.3h3.1l.6-.3z" fill="#2a3e93"/><path d="M6.7 87.1H2.4v.3h3.7l.6-.3z" fill="#2a3f93"/><path d="M7.3 86.8h-5v.3h4.3c.3-.1.5-.2.7-.3z" fill="#2a4093"/><path d="M8 86.5H2.4v.3h5c.1-.1.4-.2.6-.3z" fill="#294094"/><path d="M8.6 86.2H2.4v.3H8l.6-.3zm.6-.3H2.4v.3h6.2l.6-.3z" fill="#294194"/><path class="st10" d="M9.9 85.6H2.3v.3h6.9c.2-.1.4-.2.7-.3z"/><path class="st10" d="M10.5 85.4H2.4v.2h7.5c.2-.1.4-.2.6-.2z"/><path d="M11.2 85.1H2.4v.3h8.2l.6-.3z" fill="#294395"/><path d="M11.9 84.8H2.4v.3h8.9c.1-.1.4-.2.6-.3zm.7-.3H2.4v.3h9.5c.2-.1.4-.2.7-.3z" fill="#294496"/><path d="M13.3 84.2H2.4v.3h10.2c.2-.1.4-.2.7-.3z" fill="#294596"/><path d="M14 83.9H2.4v.3h10.9c.2-.1.4-.2.7-.3z" fill="#294597"/><path d="M14.7 83.6H2.4v.3H14c.2-.1.5-.2.7-.3zm.7-.3h-13v.3h12.3c.2-.1.5-.2.7-.3z" fill="#294697"/><path d="M16.2 83H2.4v.3h13.1c.2-.1.4-.2.7-.3z" fill="#294798"/><path class="st17" d="M16.7 82.7H2.4v.3h13.8c.1-.1.3-.2.5-.3zm0-.3H2.4v.3h14.3z"/><path class="st18" d="M16.7 82.1H2.4v.3h14.3zm0-.3H2.4v.3h14.3z"/><path class="st19" d="M16.7 81.5H2.4v.3h14.3z"/><path class="st20" d="M16.7 81.2H2.4v.3h14.3z"/><path class="st21" d="M16.7 80.9H2.4v.3h14.3zm0-.3H2.4v.3h14.3z"/><path class="st22" d="M16.7 80.3H2.4v.3h14.3z"/><path class="st23" d="M16.7 80H2.4v.3h14.3zm0-.3H2.4v.3h14.3z"/><path class="st24" d="M16.7 79.4H2.4v.3h14.3zm0-.3H2.4v.3h14.3z"/><path class="st25" d="M16.7 78.8H2.4v.3h14.3z"/><path class="st26" d="M16.7 78.5H2.4v.3h14.3z"/><path class="st27" d="M16.7 78.2H2.4v.3h14.3zm0-.3H2.4v.3h14.3z"/><path class="st28" d="M16.7 77.6H2.4v.3h14.3zm0-.3H2.4v.3h14.3z"/><path class="st29" d="M2.4 77h14.4v.3H2.4z"/><path class="st30" d="M16.7 76.7H2.4v.3h14.3zm0-.3H2.4v.3h14.3z"/><path class="st31" d="M16.7 76.2H2.4v.2h14.3z"/><path class="st32" d="M16.7 75.9H2.4v.3h14.3z"/><path class="st33" d="M16.7 75.6H2.4v.3h14.3zm0-.3H2.4v.3h14.3z"/><path class="st34" d="M16.7 75H2.4v.3h14.3zm0-.3H2.4v.3h14.3z"/><path class="st35" d="M16.7 74.4H2.4v.3h14.3zm0-.3H2.4v.3h14.3z"/><path class="st36" d="M16.7 73.8H2.4v.3h14.3z"/><path class="st37" d="M2.4 73.5h14.4v.3H2.4zm14.3-.3H2.4v.3h14.3z"/><path class="st38" d="M16.7 72.9H2.4v.3h14.3z"/><path class="st39" d="M16.7 72.6H2.4v.3h14.3z"/><path class="st40" d="M16.7 72.3H2.4v.3h14.3zm0-.3H2.4v.3h14.3z"/><path class="st41" d="M16.7 71.7H2.4v.3h14.3zm0-.3H2.4v.3h14.3z"/><path class="st42" d="M16.7 71.1H2.4v.3h14.3zm0-.3H2.4v.3h14.3z"/><path class="st43" d="M16.7 70.5H2.4v.3h14.3z"/><path class="st44" d="M16.7 70.2H2.4v.3h14.3z"/><path class="st45" d="M16.7 69.9H2.4v.3h14.3zm0-.3H2.4v.3h14.3z"/><path class="st46" d="M16.7 69.3H2.4v.3h14.3zm0-.3H2.4v.3h14.3z"/><path class="st47" d="M16.7 68.7H2.4v.3h14.3z"/><path class="st48" d="M16.7 68.4H2.4v.3h14.3z"/><path class="st49" d="M16.7 68.1H2.4v.3h14.3zm0-.3H2.4v.3h14.3z"/><path class="st50" d="M16.7 67.5H2.4v.3h14.3zm0-.3H2.4v.3h14.3z"/><path class="st51" d="M2.4 67h14.3v.3H2.4z"/><path class="st52" d="M16.7 66.7H2.4v.3h14.3z"/><path class="st53" d="M16.7 66.4H2.4v.3h14.3z"/><path class="st54" d="M16.7 66.1H2.4v.3h14.3z"/><path class="st55" d="M16.7 65.8H2.4v.3h14.3zm0-.3H2.4v.3h14.3z"/><path class="st56" d="M16.7 65.2H2.4v.3h14.3z"/><path class="st57" d="M16.7 64.9H2.4v.3h14.3z"/><path class="st58" d="M16.7 64.6H2.4v.3h14.3z"/><path class="st59" d="M16.7 64.3H2.4v.3h14.3z"/><path class="st60" d="M16.7 64H2.4v.3h14.3z"/><path class="st61" d="M16.7 63.7H2.4v.3h14.3z"/><path class="st62" d="M2.4 63.4h14.3v.3H2.4zm14.3-.3H2.4v.3h14.3z"/><path class="st63" d="M16.7 62.8H2.4v.3h14.3zm0-.3H2.4v.3h14.3z"/><path class="st64" d="M16.7 62.2H2.4v.3h14.3z"/><path class="st65" d="M16.7 61.9H2.4v.3h14.3z"/><path class="st66" d="M16.7 61.6H2.4v.3h14.3z"/><path class="st67" d="M16.7 61.3H2.4v.3h14.3z"/><path class="st68" d="M16.7 61H2.4v.3h14.3zm0-.3H2.4v.3h14.3z"/><path class="st69" d="M16.7 60.4H2.4v.3h14.3zm0-.3H2.4v.3h14.3z"/><path class="st70" d="M16.7 59.8H2.4v.3h14.3z"/><path class="st71" d="M16.7 59.5H2.4v.3h14.3z"/><path class="st72" d="M16.7 59.2H2.4v.3h14.3z"/><path class="st73" d="M16.7 58.9H2.4v.3h14.3zm0-.3H2.4v.3h14.3z"/><path class="st74" d="M16.7 58.3H2.4v.3h14.3z"/><path class="st75" d="M16.7 58H2.4v.3h14.3z"/><path class="st76" d="M16.7 57.8H2.4v.2h14.3z"/><path class="st77" d="M16.8 57.5H2.4v.3h14.3z"/><path class="st78" d="M16.8 57.2H2.4v.3h14.4zm-14.4-.3h14.3v.3H2.4z"/><path class="st79" d="M16.8 56.6H2.4v.3h14.4zm0-.3H2.4v.3h14.4z"/><path class="st80" d="M16.8 56H2.4v.3h14.4z"/><path class="st81" d="M16.8 55.7H2.4v.3h14.4z"/><path class="st82" d="M16.8 55.4H2.4v.3h14.4z"/><path class="st83" d="M16.8 55.1H2.4v.3h14.4z"/><path class="st84" d="M16.8 54.8H2.4v.3h14.4z"/><path class="st85" d="M16.8 54.5H2.4v.3h14.4z"/><path class="st86" d="M16.8 54.2H2.4v.3h14.4z"/><path class="st87" d="M16.8 53.9H2.4v.3h14.4z"/><path class="st88" d="M16.8 53.6H2.4v.3h14.4z"/><path class="st89" d="M16.8 53.3H2.4v.3h14.4z"/><path class="st90" d="M2.4 53h14.3v.3H2.4z"/><path class="st91" d="M16.8 52.7H2.4v.3h14.4zm0-.3H2.4v.3h14.4z"/><path class="st92" d="M16.8 52.1H2.4v.3h14.4zm0-.3H2.4v.3h14.4z"/><path class="st93" d="M16.8 51.5H2.4v.3h14.4z"/><path class="st94" d="M16.8 51.2H2.4v.3h14.4z"/><path class="st95" d="M16.8 50.9H2.4v.3h14.4z"/><path class="st96" d="M16.8 50.6H2.4v.3h14.3l.1-.3z"/><path class="st97" d="M16.8 50.3H2.5v.3h14.3v-.3z"/><path class="st98" d="M16.8 50H2.5v.3h14.3V50zm0-.3H2.5v.3h14.3v-.3z"/><path class="st99" d="M16.8 49.4H2.5v.3h14.3v-.3zm0-.3H2.5v.3h14.3v-.3z"/><path class="st100" d="M16.8 48.8H2.6v.3h14.2v-.3z"/><path class="st101" d="M16.8 48.6H2.6v.3h14.2v-.3z"/><path class="st102" d="M16.8 48.3H2.6v.3h14.2v-.3z"/><path class="st103" d="M16.8 48H2.7v.3h14.1V48zm0-.3h-14c0 .1 0 .2-.1.3h14.1v-.3z"/><path class="st104" d="M16.8 47.4h-14c0 .1 0 .2-.1.3h14l.1-.3zm0-.3H2.9c0 .1 0 .2-.1.3h14v-.3z"/><path class="st105" d="M16.8 46.8H2.9c0 .1 0 .2-.1.3h13.9v-.3z"/><path class="st106" d="M16.8 46.5H3c0 .1 0 .2-.1.3h13.8v-.3z"/><path class="st107" d="M16.8 46.2H3.1c0 .1-.1.2-.1.3h13.8v-.3z"/><path class="st108" d="M16.8 45.9H3.2c0 .1-.1.2-.1.3h13.7v-.3z"/><path class="st109" d="M16.8 45.6H3.3c0 .1-.1.2-.1.3h13.6v-.3z"/><path class="st110" d="M16.8 45.3H3.3c0 .1-.1.2-.1.3h13.5v-.3z"/><path class="st111" d="M16.8 45H3.5c0 .1-.1.2-.1.3h13.4V45zm0-.3H3.6c0 .1-.1.2-.1.3h13.3v-.3z"/><path class="st112" d="M16.8 44.4H3.7c0 .1-.1.2-.1.3h13.2v-.3zm0-.3h-13c0 .1-.1.2-.1.3h13.1v-.3z"/><path class="st113" d="M16.8 43.8H3.9c0 .1-.1.2-.1.3h13v-.3z"/><path class="st114" d="M16.8 43.5H4.1c0 .1-.1.2-.1.3h12.9l-.1-.3z"/><path class="st115" d="M16.8 43.2H4.2c0 .1-.1.2-.1.3h12.7v-.3z"/><path class="st116" d="M16.8 42.9H4.3c0 .1-.1.2-.1.3h12.6v-.3zm0-.3H4.5c0 .1-.1.2-.1.3h12.4v-.3z"/><path class="st117" d="M16.8 42.3H4.6c0 .1-.1.2-.2.3h12.3l.1-.3zm0-.3h-12c-.1.1-.1.2-.2.3h12.1V42z"/><path class="st118" d="M16.8 41.7H5c-.1.1-.1.2-.2.3h12v-.3z"/><path class="st119" d="M16.8 41.4H5.1c0 .1-.1.2-.1.3h11.8v-.3z"/><path class="st120" d="M16.8 41.1H5.3c-.1.1-.1.2-.2.3h11.6v-.3z"/><path class="st121" d="M16.8 40.8H5.5c-.1.1-.1.2-.2.3h11.4v-.3z"/><path class="st122" d="M16.8 40.5h-11c-.1.1-.1.2-.2.3h11.2v-.3z"/><path class="st123" d="M16.8 40.2H5.9c-.1.1-.1.2-.2.3h11v-.3z"/><path class="st124" d="M16.8 39.9H6.1c0 .1-.1.2-.2.3h10.8v-.3zm0-.3H6.4c-.1.1-.2.2-.2.3h10.6v-.3z"/><path class="st125" d="M16.8 39.4H6.6c-.1.1-.1.2-.2.3h10.4v-.3zm0-.3h-10c-.1.1-.1.2-.2.3h10.2v-.3z"/><path class="st126" d="M16.8 38.8H7.1l-.3.3h9.9l.1-.3z"/><path class="st127" d="M16.8 38.5H7.4l-.3.3h9.7v-.3z"/><path class="st128" d="M16.8 38.2H7.6l-.3.3h9.4v-.3z"/><path class="st129" d="M16.8 37.9H7.9l-.3.3h9.1l.1-.3z"/><path class="st130" d="M16.8 37.6H8.2l-.3.3h8.9v-.3zm0-.3H8.5l-.3.3h8.6v-.3z"/><path class="st131" d="M16.8 37h-8l-.3.3h8.3V37zm0-.3H9.1l-.3.3h8v-.3z"/><path class="st132" d="M16.8 36.4H9.5c-.1.1-.2.2-.4.3h7.6v-.3z"/><path class="st133" d="M16.8 36.1h-7c-.1.1-.2.2-.4.3h7.3v-.3z"/><path class="st134" d="M16.8 35.8h-6.6c-.1.1-.2.2-.4.3h6.9v-.3z"/><path class="st135" d="M16.8 35.5h-6.2c-.1.1-.3.2-.4.3h6.6v-.3z"/><path class="st136" d="M16.8 35.2H11c-.1.1-.3.2-.4.3h6.2v-.3z"/><path class="st137" d="M16.8 34.9h-5.4c-.1.1-.3.2-.4.3h5.8v-.3z"/><path class="st138" d="M16.8 34.6h-4.9c-.2.1-.3.2-.5.3h5.4v-.3zm0-.3h-4.5c-.2.1-.3.2-.5.3h4.9v-.3z"/><path class="st139" d="M16.8 34h-4c-.2.1-.3.2-.5.3h4.5V34zm0-.3h-3.5c-.2.1-.4.2-.5.3h4v-.3z"/><path class="st140" d="M16.8 33.4h-3c-.2.1-.4.2-.5.3h3.5v-.3z"/><path class="st141" d="M16.8 33.1h-2.4l-.6.3h3v-.3z"/><path class="st142" d="M16.8 32.8H15l-.6.3h2.4v-.3z"/><path class="st143" d="M16.8 32.5h-1.2l-.6.3h1.8v-.3z"/><path class="st144" d="M16.8 32.2h-.5l-.5.2h-.1 1.2v-.2zm0-.2l-.5.2h.5z"/><path class="st17" d="M106 67.1c2.1 0 4.2-.1 6.2-.1l-6.2.1c0-.1 0 0 0 0zm14.4 0V67h-7.8c2.4 0 5.1.1 7.8.1z"/><path class="st18" d="M106 67h14.2v-.4H106v.4z"/><path class="st18" d="M106 66.3h14.4v.4H106z"/><path class="st19" d="M106 65.9h14.4v.4H106z"/><path class="st20" d="M106 65.6h14.4v.4H106z"/><path class="st21" d="M106 65.2h14.4v.4H106zm0-.4h14.4v.4H106z"/><path class="st22" d="M106 64.4h14.4v.4H106z"/><path class="st23" d="M106 64.1h14.4v.4H106z"/><path class="st23" d="M106 63.7h14.4v.4H106z"/><path class="st24" d="M106 63.3h14.4v.4H106z"/><path class="st24" d="M106 63h14.4v.4H106z"/><path class="st25" d="M106 62.6h14.4v.4H106z"/><path class="st26" d="M106 62.2h14.4v.4H106z"/><path class="st27" d="M106 61.9h14.4v.4H106zm0-.4h14.4v.4H106z"/><path class="st28" d="M106 61.1h14.4v.4H106zm0-.4h14.4v.4H106z"/><path class="st29" d="M106 60.4h14.4v.4H106z"/><path class="st30" d="M106 60h14.4v.4H106zm0-.4h14.4v.4H106z"/><path class="st31" d="M106 59.3h14.4v.4H106z"/><path class="st32" d="M106 58.9h14.4v.4H106z"/><path class="st33" d="M106 58.5h14.4v.4H106zm0-.4h14.4v.4H106z"/><path class="st34" d="M106 57.8h14.4v.4H106zm0-.4h14.4v.4H106z"/><path class="st35" d="M106 57h14.4v.4H106z"/><path class="st35" d="M106 56.7h14.4v.4H106z"/><path class="st36" d="M106 56.3h14.4v.4H106z"/><path class="st37" d="M106 55.9h14.4v.4H106z"/><path class="st37" d="M106 55.6h14.4v.4H106z"/><path class="st38" d="M106 55.2h14.4v.4H106z"/><path class="st39" d="M106 54.8h14.4v.4H106z"/><path class="st40" d="M106 54.4h14.4v.4H106z"/><path class="st40" d="M106 54.1h14.4v.4H106z"/><path class="st41" d="M106 53.7h14.4v.4H106zm0-.4h14.4v.4H106z"/><path class="st42" d="M106 53h14.4v.4H106zm0-.4h14.4v.4H106z"/><path class="st43" d="M106 52.2h14.4v.4H106z"/><path class="st44" d="M106 51.9h14.4v.4H106z"/><path class="st45" d="M106 51.5h14.4v.4H106zm0-.4h14.4v.4H106z"/><path class="st46" d="M106 50.7h14.4v.4H106z"/><path class="st46" d="M106 50.4h14.4v.4H106z"/><path class="st47" d="M106 50h14.4v.4H106z"/><path class="st48" d="M106 49.6h14.4v.4H106z"/><path class="st49" d="M106 49.3h14.4v.4H106zm0-.4h14.4v.4H106z"/><path class="st50" d="M106 48.5h14.4v.4H106z"/><path class="st50" d="M106 48.2h14.4v.4H106z"/><path class="st51" d="M106 47.8h14.4v.4H106z"/><path class="st52" d="M106 47.4h14.4v.4H106z"/><path class="st53" d="M106 47h14.4v.4H106z"/><path class="st54" d="M106 46.7h14.4v.4H106z"/><path class="st55" d="M106 46.3h14.4v.4H106zm0-.4h14.4v.4H106z"/><path class="st56" d="M106 45.6h14.4v.4H106z"/><path class="st57" d="M106 45.2h14.4v.4H106z"/><path class="st58" d="M106 44.8h14.4v.4H106z"/><path class="st59" d="M106 44.5h14.4v.4H106z"/><path class="st60" d="M106 44.1h14.4v.4H106z"/><path class="st61" d="M106 43.7h14.4v.4H106z"/><path class="st62" d="M106 43.3h14.4v.4H106z"/><path class="st62" d="M106 43h14.4v.4H106z"/><path class="st63" d="M106 42.6h14.4v.4H106zm0-.4h14.4v.4H106z"/><path class="st64" d="M106 41.9h14.4v.4H106z"/><path class="st65" d="M106 41.5h14.4v.4H106z"/><path class="st66" d="M106 41.1h14.4v.4H106z"/><path class="st67" d="M106 40.8h14.4v.4H106z"/><path class="st68" d="M106 40.4h14.4v.4H106zm0-.4h14.4v.4H106z"/><path class="st69" d="M106 39.6h14.4v.4H106z"/><path class="st69" d="M106 39.3h14.4v.4H106z"/><path class="st70" d="M106 38.9h14.4v.4H106z"/><path class="st71" d="M106 38.5h14.4v.4H106z"/><path class="st72" d="M106 38.2h14.4v.4H106z"/><path class="st73" d="M106 37.8h14.4v.4H106zm0-.4h14.4v.4H106z"/><path class="st74" d="M106 37.1h14.4v.4H106z"/><path class="st75" d="M106 36.7h14.4v.4H106z"/><path class="st76" d="M106 36.3h14.4v.4H106z"/><path class="st77" d="M106 35.9h14.4v.4H106z"/><path class="st78" d="M106 35.6h14.4v.4H106zm0-.4h14.4v.4H106z"/><path class="st79" d="M106 34.8h14.4v.4H106z"/><path class="st79" d="M106 34.5h14.4v.4H106z"/><path class="st80" d="M106 34.1h14.4v.4H106z"/><path class="st81" d="M106 33.7h14.4v.4H106z"/><path class="st82" d="M106 33.4h14.4v.4H106z"/><path class="st83" d="M106 33h14.4v.4H106z"/><path class="st84" d="M106 32.6h14.4v.4H106z"/><path class="st85" d="M106 32.2h14.4v.4H106z"/><path class="st86" d="M106 31.9h14.4v.4H106z"/><path class="st87" d="M106 31.5h14.4v.4H106z"/><path class="st88" d="M106 31.1h14.4v.4H106z"/><path class="st89" d="M106 30.8h14.4v.4H106z"/><path class="st90" d="M106 30.4h14.4v.4H106z"/><path class="st91" d="M106 30h14.4v.4H106z"/><path class="st91" d="M106 29.7h14.4v.4H106z"/><path class="st92" d="M106 29.3h14.4v.4H106zm0-.4h14.4v.4H106z"/><path class="st93" d="M106 28.5h14.4v.4H106z"/><path class="st94" d="M106 28.2h14.4v.4H106z"/><path class="st95" d="M106 27.8h14.4v.4H106z"/><path class="st96" d="M106 27.4h14.4v.4H106z"/><path class="st97" d="M106 27.1h14.4v.4H106z"/><path class="st98" d="M106 26.7h14.4v.4H106zm0-.4h14.4v.4H106z"/><path class="st99" d="M106 26h14.4v.4H106zm0-.4h14.4v.4H106z"/><path class="st100" d="M106 25.2h14.4v.4H106z"/><path class="st101" d="M106 24.8h14.4v.4H106z"/><path class="st102" d="M106 24.5h14.4v.4H106z"/><path class="st103" d="M106 24.1h14.4v.4H106zm0-.4h14.4v.4H106z"/><path class="st104" d="M106 23.4h14.4v.4H106zm0-.4h14.4v.4H106z"/><path class="st105" d="M106 22.7v.3h14.4v-.4l-14.4.1z"/><path class="st106" d="M106 22.6h14.4v-.4H106v.4z"/><path class="st107" d="M106 22.2h14.3v-.4H106v.4z"/><path class="st108" d="M106 21.9h14.3v-.4H106v.4z"/><path class="st109" d="M106.1 21.5h14.3v-.4h-14.3v.4z"/><path class="st110" d="M106.1 21.1h14.3v-.4h-14.2c-.1.2-.1.3-.1.4z"/><path class="st111" d="M106.1 20.8h14.2v-.4h-14.2v.4zm.1-.4h14.2V20h-14.1c-.1.2-.1.3-.1.4z"/><path class="st112" d="M106.2 20h14.1v-.4h-14.1c.1.2 0 .3 0 .4z"/><path class="st112" d="M106.3 19.7h14.1v-.4h-14c-.1.1-.1.2-.1.4z"/><path class="st113" d="M106.4 19.3h14v-.4h-13.9c-.1.1-.1.3-.1.4z"/><path class="st114" d="M106.4 18.9h13.9v-.4h-13.9c.1.2.1.3 0 .4z"/><path class="st115" d="M106.5 18.5h13.9v-.4h-13.8c0 .2-.1.3-.1.4z"/><path class="st116" d="M106.6 18.2h13.8v-.4h-13.6c-.1.1-.2.3-.2.4zm.1-.4h13.6v-.4h-13.5c0 .2 0 .3-.1.4z"/><path class="st117" d="M106.8 17.4h13.5V17h-13.4c0 .2 0 .3-.1.4z"/><path class="st117" d="M106.9 17.1h13.4v-.4H107c0 .1 0 .2-.1.4z"/><path class="st118" d="M107.1 16.7h13.3v-.4h-13.1c-.1.2-.2.3-.2.4z"/><path class="st119" d="M107.2 16.3h13.1V16h-13c0 .1 0 .2-.1.3z"/><path class="st120" d="M107.4 16h13v-.4h-12.9c0 .1-.1.2-.1.4z"/><path class="st121" d="M107.5 15.6h12.9v-.4h-12.7c-.1.1-.1.3-.2.4z"/><path class="st122" d="M107.7 15.2h12.7v-.4h-12.5c-.1.2-.2.3-.2.4z"/><path class="st123" d="M107.9 14.8h12.5v-.4H108c0 .2-.1.3-.1.4z"/><path class="st124" d="M108 14.5h12.3v-.4h-12.1c0 .1-.1.3-.2.4zm.2-.4h12.1v-.4h-11.9c0 .2-.1.3-.2.4z"/><path class="st125" d="M108.4 13.7h11.9v-.4h-11.7c0 .2-.1.3-.2.4z"/><path class="st125" d="M108.7 13.4h11.7V13h-11.5c-.1.1-.2.2-.2.4z"/><path class="st126" d="M108.9 13h11.5v-.4h-11.2c-.2.1-.2.3-.3.4z"/><path class="st127" d="M109.1 12.6h11.2v-.4h-11c0 .2-.1.3-.2.4z"/><path class="st128" d="M109.4 12.3h11v-.4h-10.7c-.2.1-.2.2-.3.4z"/><path class="st129" d="M109.6 11.9h10.7v-.4h-10.4c-.1.1-.2.3-.3.4z"/><path class="st130" d="M109.9 11.5h10.4v-.4h-10.1c-.1.2-.2.3-.3.4zm.3-.4h10.1v-.4h-9.9c0 .2-.1.3-.2.4z"/><path class="st131" d="M110.5 10.8h9.9v-.4h-9.5c-.2.1-.3.2-.4.4zm.3-.4h9.5V10h-9.2c0 .2-.2.3-.3.4z"/><path class="st132" d="M111.2 10h9.2v-.3h-8.9l-.3.3z"/><path class="st133" d="M111.5 9.7h8.9v-.4h-8.5c-.1.1-.3.2-.4.4z"/><path class="st134" d="M111.9 9.3h8.5v-.4h-8.1c-.2.1-.3.3-.4.4z"/><path class="st135" d="M112.3 8.9h8.1v-.3h-7.7c-.2.1-.3.2-.4.3z"/><path class="st136" d="M112.7 8.6h7.7v-.4h-7.3c-.1.1-.3.2-.4.4z"/><path class="st137" d="M113.1 8.2h7.3v-.4h-6.8c-.2.1-.4.3-.5.4z"/><path class="st138" d="M113.5 7.8h6.8v-.4H114c-.2.2-.3.3-.5.4z"/><path class="st138" d="M114 7.4h6.4v-.3h-5.9c-.2.1-.3.2-.5.3z"/><path class="st139" d="M114.5 7.1h5.9v-.4H115c-.2.1-.3.3-.5.4z"/><path class="st139" d="M115 6.7h5.4v-.4h-4.8c-.2.2-.4.3-.6.4z"/><path class="st140" d="M115.6 6.3h4.8V6h-4.2l-.6.3z"/><path class="st141" d="M116.2 6h4.2v-.4h-3.6c-.2.1-.4.2-.6.4z"/><path class="st142" d="M116.8 5.6h3.6v-.4h-2.9c-.3.1-.5.3-.7.4z"/><path class="st143" d="M117.5 5.2h2.9v-.3h-2.2c-.3.1-.5.2-.7.3z"/><path class="st144" d="M118.2 4.9h2.2v-.4H119c-.3.1-.6.2-.8.4zm1.1-.6c-.1.1-.2.1-.3.2h1.4v-.4h-.6l-.5.2z"/><path fill="#28a7df" d="M120.4 4.1v-.3l-.7.3z"/><linearGradient id="SVGID_1_" gradientUnits="userSpaceOnUse" x1="62.25" y1="2.39" x2="62.25" y2="60.609" gradientTransform="matrix(1 0 0 -1 0 151.58)"><stop offset=".527" stop-color="#00b4be"/><stop offset=".578" stop-color="#25b6c0"/><stop offset=".653" stop-color="#4ebcc6"/><stop offset=".743" stop-color="#78c7cf"/><stop offset=".845" stop-color="#a8d8de"/><stop offset=".955" stop-color="#e2f1f2"/><stop offset="1" stop-color="#fff"/></linearGradient><path d="M7 109.8c4.4.1 9.2-1.4 14.3-4.8 7.3-4.9 13.8-9.6 21.4-4.5 11.4 7.6 10.9 14.3 23.5 13.7s11.5-11.2 9.7-17.9c-1.8-6.7 10.8-7.5 8.9.3s-4.2 15.7 5.8 16c4.5.1 12.4 0 28.2-8.1 0 0-11 38-58.1 44.7 0 0-38.6-3.9-55.3-39.2l1.6-.2z" fill="url(#SVGID_1_)"/><linearGradient id="SVGID_00000065779377242876516170000015897578999261896890_" gradientUnits="userSpaceOnUse" x1="80.17" y1="67.4" x2="80.17" y2="87.96" gradientTransform="matrix(1 0 0 -1 0 151.58)"><stop offset=".527" stop-color="#00b4be"/><stop offset=".578" stop-color="#25b6c0"/><stop offset=".653" stop-color="#4ebcc6"/><stop offset=".743" stop-color="#78c7cf"/><stop offset=".845" stop-color="#a8d8de"/><stop offset=".955" stop-color="#e2f1f2"/><stop offset="1" stop-color="#fff"/></linearGradient><path d="M80.2 63.6c-5.6 0-10.2 4.6-10.2 10.3s4.6 10.3 10.2 10.3 10.2-4.6 10.2-10.3c0-5.7-4.6-10.3-10.2-10.3z" fill="url(#SVGID_00000065779377242876516170000015897578999261896890_)"/><linearGradient id="SVGID_00000149378233765042647990000015443454859742234815_" gradientUnits="userSpaceOnUse" x1="37.152" y1="4.467" x2="99.327" y2="66.643" gradientTransform="matrix(1 0 0 -1 0 151.58)"><stop offset="0" stop-color="#00a79d"/><stop offset="1" stop-color="#27aae1"/></linearGradient><path d="M47.6 126.8c-12.2 0-23.8-1.5-34.2-4.2C32 146.4 61 149.3 61 149.3c47.1-6.7 58.1-44.7 58.1-44.7-.8.4-1.5.8-2.3 1.1-14.9 12.8-40.4 21.1-69.2 21.1z" fill="url(#SVGID_00000149378233765042647990000015443454859742234815_)"/><path d="M149.3 54.5v19.1c0 4 1.2 7.4 3.7 10.2s5.4 4.2 8.9 4.2 6.5-1.4 8.9-4.2 3.7-6.2 3.7-10.2V54.5h4.2v19.3c-.1 5.3-1.7 9.8-5 13.5-3.3 3.7-7.2 5.6-11.9 5.6-4.6 0-8.6-1.9-11.9-5.6-3.3-3.7-4.9-8.3-5-13.6V54.5h4.4zm63.5 38.3V73.7c0-4-1.3-7.4-3.7-10.2s-5.4-4.2-9-4.2c-3.5 0-6.4 1.4-8.9 4.2-2.4 2.8-3.7 6.1-3.8 10.1v19.3h-4.2V73.7c0-5.3 1.6-9.8 4.9-13.6 3.3-3.8 7.3-5.6 11.9-5.6 4.6 0 8.6 1.9 11.9 5.6 3.3 3.7 5 8.2 5 13.5v19.3h-4.1zm8.7-38.3h4.2v38.4h-4.2zm34 0v38.3h-8.4c-4.6 0-8.6-1.9-11.9-5.6-3.3-3.7-5-8.2-5-13.5V54.4h4.2v19.1c0 4 1.2 7.4 3.7 10.2 2.5 2.8 5.5 4.2 9 4.2h4.2V54.4l4.2.1zm38 4.6h-16.6c-3.5 0-6.5 1.4-9 4.2s-3.7 6.2-3.7 10.2c0 3.9 1.2 7.4 3.7 10.2 2.5 2.8 5.5 4.2 9 4.2h16.6v4.8h-16.8c-4.6-.1-8.6-2-11.8-5.7s-4.9-8.2-4.9-13.5c0-5.3 1.6-9.8 4.9-13.6s7.2-5.7 11.8-5.7h16.8v4.9zm-33.1 14.5c0-.7.2-1.2.6-1.7.4-.5.9-.7 1.5-.7h25V76h-25c-.6 0-1.1-.2-1.5-.7-.4-.5-.6-1.1-.6-1.7m47.1 6.4c1 2.4 2.6 4.3 4.6 5.8s4.3 2.2 6.7 2.2v4.8c-3.6 0-6.9-1.2-9.8-3.6-2.9-2.4-4.9-5.4-6.1-9.2h-.7v12.8H298V54.4h9.6c3.1 0 5.7 1.2 7.9 3.8 2.2 2.5 3.3 5.5 3.3 9s-1.1 6.6-3.3 9.1c-2.2 2.5-4.9 3.7-8 3.7m-5.3-4.8h5.4v-.1c1.9 0 3.6-.8 4.9-2.3s2.1-3.4 2.1-5.6c0-2.2-.7-4.1-2-5.6-1.4-1.6-3-2.3-5-2.3v-.1h-5.4v16zm54.7-16h-16.7c-3.1 0-5.9 1.1-8.2 3.4-2.4 2.3-3.8 5.1-4.3 8.5h29.2v2.4c0 5.3-1.6 9.9-4.9 13.6s-7.2 5.6-11.9 5.7h-16.9V88H340c3.1 0 5.8-1.1 8.2-3.4 2.4-2.3 3.8-5.2 4.3-8.6h-29.2v-2.3c0-5.3 1.6-9.8 4.9-13.6 3.3-3.8 7.2-5.6 11.9-5.7h16.8v4.8zm21.4-4.9c4.6 0 8.6 1.9 11.9 5.6 3.3 3.8 5 8.3 5 13.6v19.3H391v-9.7h-25.3v9.7h-4.2V73.5c0-5.3 1.6-9.8 5-13.6 3.1-3.7 7.1-5.6 11.8-5.6m12.6 24v-4.7c0-3.9-1.2-7.3-3.7-10.2s-5.5-4.2-8.9-4.2c-3.5 0-6.5 1.4-9 4.2s-3.7 6.2-3.7 10.2v4.7h25.3zm29.4 9.7v4.8h-9.4c-3.1 0-5.7-1.2-7.9-3.7s-3.3-5.5-3.3-9V54.4h4.3V80c0 2.2.7 4.1 2 5.6 1.4 1.5 3 2.3 4.9 2.3l9.4.1zm4.5-33.5h4.2v38.4h-4.2zm42.3 0v1.7c0 5.3-1.6 9.9-4.9 13.6-3.3 3.8-7.3 5.6-11.9 5.6-3.2 0-6 1.2-8.3 3.6-2.4 2.4-3.8 5.4-4.2 8.9h29.4v4.8h-33.7v-2.9c0-5.3 1.6-9.9 4.9-13.6 3.3-3.8 7.3-5.6 11.9-5.6 3 0 5.6-1.1 7.9-3.2s3.8-4.9 4.4-8.1h-29.2v-4.8h33.7zm21.4-.2c4.6 0 8.6 1.9 11.9 5.6 3.3 3.8 5 8.3 5 13.6v19.3h-4.2v-9.7h-25.3v9.7h-4.2V73.5c0-5.3 1.6-9.8 5-13.6 3.2-3.7 7.2-5.6 11.8-5.6m12.7 24v-4.7c0-3.9-1.2-7.3-3.7-10.2s-5.5-4.2-8.9-4.2c-3.5 0-6.5 1.4-9 4.2s-3.7 6.2-3.7 10.2v4.7h25.3z"/><path id="SVGID_00000001653187176357155730000007384388893663293351_" class="st0" d="M301.8 101.1c-.5.1-.9.3-1.1.6l-1.4 1.7c-.3.3-.3.6-.1 1 .2.3.5.6 1 .7.3.1.5.1.9.1.7 0 1.3-.2 1.7-.7l1.3-1.7c.3-.3.3-.6.1-.9-.2-.3-.5-.6-1-.7-.2-.1-.5-.1-.8-.1-.2-.1-.4 0-.6 0"/><defs><path id="SVGID_00000165945139639502738360000006531431458339334068_" d="M301.8 101.1c-.5.1-.9.3-1.1.6l-1.4 1.7c-.3.3-.3.6-.1 1 .2.3.5.6 1 .7.3.1.5.1.9.1.7 0 1.3-.2 1.7-.7l1.3-1.7c.3-.3.3-.6.1-.9-.2-.3-.5-.6-1-.7-.2-.1-.5-.1-.8-.1-.2-.1-.4 0-.6 0"/></defs><clipPath id="SVGID_00000008846759963829912350000006163666865247083963_"><use xlink:href="#SVGID_00000165945139639502738360000006531431458339334068_" overflow="visible"/></clipPath><path clip-path="url(#SVGID_00000008846759963829912350000006163666865247083963_)" fill="#21409a" d="M299 101h5.4v4.1H299z"/><path id="SVGID_00000068671785230718852060000006816377110036397489_" class="st0" d="M401.9 138.4c-.3-.5.3-1.6 1.6-3.3 1.4-1.7 4.2-3.9 8.4-6.5-.1 1.9-.6 3.5-1.4 4.9-1.4 2-3 3.4-4.8 4.1-1.5.6-2.7.9-3.5.9-.1-.1-.2-.1-.3-.1m-44.6-12.1c-.1-.5.2-1.4.7-2.5 1.2-2.5 3.2-4.9 5.8-7.1 2.6-2.3 5.4-3.6 8.3-4.1 2.3-.3 4.3.3 6.2 1.7.1.1.3.2.4.2-3.3 2.7-6.8 5.3-10.6 7.8-1.6 1-3 1.9-4.2 2.5-1.2.6-2.1 1.1-3 1.5-.8.3-1.5.6-2 .7-.5.1-1 .2-1.5.2 0-.1 0-.4-.1-.9m-144.6-20.1c-1.8.8-1.4 2.7-1.4 2.7.3 2.4.8 4.4 1.4 5.8.6 1.4 1.3 2.6 2.2 3.5.6.7 1.3 1.2 2.1 1.4s1.4.4 2.1.4c2.2.2 5.1-.5 8.7-2.3 2-.9 4.3-2.3 7-3.9-1.1 1.8-2.4 3.6-3.7 5.7-2.3 3.5-4 6.2-5.2 8.3-.7 1.2-1.2 2.2-1.6 2.9-.3.5-.5 1-.5 1.4s.3.9.9 1.2c.3.1.7.2 1.1.2.6 0 1.2-.2 1.7-.6 1.5-1.2 4.1-3.7 7.7-7.5 2.1-2.1 4.2-4.3 6.3-6.4 2.1-2.1 4-3.8 5.6-5.2 1.8-1.4 3.1-2.3 4-2.6-1.9 3-3.5 5.5-4.5 7.6-1.1 2-1.9 3.6-2.3 4.9-.5 1.2-.7 2.1-.7 2.8 0 .6.1 1.1.3 1.4s.4.4.6.5c.3.2.7.3 1.2.4s1.2 0 2.1-.2c2.2-.8 5.2-3.3 9.1-7.5 1-1 2.1-2 3.2-3.1s2.1-2 3-2.6c.3 2.4.8 4.4 1.4 5.8s1.3 2.6 2.2 3.5c.6.7 1.3 1.2 2.1 1.4s1.4.4 2.1.4c2.2.2 5.1-.5 8.7-2.3 2.1-1 4.7-2.5 7.7-4.4-.4.7-.8 1.4-1 2-.3.5-.5 1.1-.7 1.9-.2.8-.3 1.6-.1 2.5.2.9.8 1.6 1.8 2.1.8.4 1.8.6 3 .6 2.7-.1 5.9-.9 9.6-2.5 3.7-1.6 7.3-3.4 10.8-5.4.8-.5 1.5-.9 2.2-1.3l-8.2 12.1c-.2.3-.2.6 0 .9.2.3.5.5.9.7.3.1.6.1.9.1.6 0 1.2-.2 1.6-.6l2.1-2.1c1.3-1.4 2.9-3 4.8-4.9 1.9-1.9 3.9-3.8 6-5.6s3.9-3.2 5.5-4.2c2.2-1.3 3.9-2.1 5-2.6 1.1-.4 1.8-.6 2.1-.6.1 0 .1.1.1.2 0 .2 0 .6-.1.9v.1c-.1 1.6 0 3.4.3 5.5s1.5 3.7 3.5 4.9c.6.3 1.4.6 2.5.8s2.4.2 3.9 0c3.4-.6 6.6-1.7 9.8-3.1.7-.3 1.3-.6 2-.9-1.1 1.7-1.7 3.3-1.9 4.8 0 1.1.3 1.9.9 2.5.6.5 1.1.8 1.6 1s1.1.2 1.7.2c3 0 7.4-1.8 13.3-5.6 3.6-2.4 7-4.9 10.3-7.6-1.1 3.1-1.3 5.4-.6 6.9.7 1.5 1.8 2.5 3.3 3 1.1.5 2.4.7 3.9.7 6.6-.2 14.2-3.5 22.9-9.7.1.6.3 1.3.5 2.1.4 1.8.6 3.7.8 5.7-.6.3-1.1.7-1.6 1-5 2.9-8.4 5.5-10.2 7.7-1.8 2.2-2.5 3.8-2.1 5 .3.9 1.1 1.5 2.2 1.8.6.1 1.2.2 1.9.2 1.9 0 4-.5 6.2-1.5 2.3-1 4.2-2.7 5.8-5 1.3-2.3 1.9-5 1.7-8 5.6-3 10.7-5.5 15.2-7.5s6.9-3 7.2-3.1c.5-.2.7-.5.9-.8s.1-.6-.2-1c-.3-.3-.7-.5-1.3-.5-.5-.1-1 0-1.5.1-.3.1-2.4 1-6.5 2.8-4.1 1.8-8.8 4-14.1 6.8-.5-3.4-1-6.1-1.6-8.1-.2-.8-.1-1.5.4-2.1.5-.6 1-1.1 1.8-1.5.7-.4 1.4-.7 2-.9.6-.2 1-.3 1.1-.4.5-.1.9-.3 1.1-.6.2-.3.2-.6 0-1-.2-.3-.5-.5-1-.6s-1-.1-1.5 0c-1.8.4-3.6 1.3-5.5 2.6-1.4 1-2.2 2.2-2.2 3.6-5.2 4-10 6.9-14.5 8.6-4.5 1.8-7.7 2.3-9.6 1.6-1.4-.5-2-1.8-1.8-4.1.2-2.3 1.7-5.7 4.6-10.2.2-.3.2-.6.1-.9-.1-.3-.4-.5-.9-.7-.5-.2-.9-.2-1.4-.2-.5.1-.9.2-1.1.5-.1 0-.5.4-1.3 1.1-.8.7-1.8 1.6-3.1 2.7-2.1-1.4-4.1-2.2-6-2.4-1.9-.2-3.6-.1-5.1.3-2.8.7-5.4 1.9-7.7 3.6-.1.1-.2.1-.3.1-.1 0-.7.4-1.8 1.2-1.2.8-2.7 1.7-4.6 2.7-1.9 1-4 2-6.2 2.9s-4.5 1.5-6.6 1.9c-.7.1-1.3.2-1.7.1-.4 0-.7-.1-1-.2-.2-.1-.4-.1-.4-.2-1.3-.8-2-2.1-2.2-3.9-.2-1.8-.2-3.3-.1-4.5.1-.4.1-.8.1-1.1 0-.9-.3-1.5-.8-1.9-.5-.4-1-.6-1.5-.7-.5-.2-1.2-.2-2.1-.2s-2.1.4-3.6.9c-1.5.6-3.4 1.5-5.7 2.9-1.9 1.2-4.1 2.8-6.4 4.9l7-10.3c.3-.3.3-.6.1-1-.2-.3-.5-.5-1.1-.6-.5-.1-1-.1-1.5 0s-.8.3-1 .6l-4.1 6c-.1.1-.3.1-.4.2-6.7 4.3-12.7 7.7-18 10-1 .5-2 .8-2.8 1.1s-1.5.5-2.1.7c-.6.2-1.1.3-1.6.4s-.8.1-1.2.2-.6 0-.7 0-.3 0-.5-.1c-.1-.1-.1-.2-.2-.3s-.1-.2-.1-.4v-.8c0-.3.1-.7.3-1.1.2-.4.4-1 .7-1.5.3-.6.7-1.3 1.1-2 .5-.7 1-1.6 1.7-2.6.7-.9 1.5-2 2.4-3.2s2-2.4 3.2-3.8c.3-.3.3-.6.1-1-.2-.3-.5-.6-.9-.8-.5-.2-.9-.2-1.5-.1-.5.1-.9.3-1.2.6-1.3 1.4-2.4 2.8-3.4 4.1-.2.1-.4.1-.5.2-1.4.9-3.4 2.3-6 3.9-2.5 1.7-5.1 3.2-7.8 4.5-2.6 1.3-4.7 2-6.1 2-.2 0-.4-.1-.6-.2-.2-.1-.4-.2-.7-.5-.7-.8-1.3-1.8-1.9-3-.5-1.2-1-3-1.2-5.2 0-.2 0-.5-.1-.9s-.3-.7-.7-1.1c-.4-.4-.9-.6-1.7-.8-1.4-.2-2.9.3-4.5 1.5s-3.7 3.2-6.2 5.8c-1 1-2 2-3.1 3s-2.1 1.9-3 2.6c.7-2.4 3.1-6.8 7.2-13.2.9-1.6.5-2.7-1.1-3.4-.8-.4-2-.4-3.6 0s-3.5 1.6-5.9 3.5c-3.2 2.8-6.9 6.3-11.1 10.6 2.8-4.4 5.9-9.1 9.3-14.1.3-.2.4-.5.4-.8 0-.3-.2-.6-.6-.9s-.8-.4-1.4-.3c-.2 0-.5.1-.7.1h-.2c-.4.1-.6.3-.9.5-1.4.9-3.2 2.1-5.6 3.7-2.6 1.7-5.1 3.1-7.8 4.5-2.6 1.3-4.7 2-6.1 2-.2 0-.4-.1-.6-.2-.2-.1-.4-.2-.7-.5-.7-.8-1.3-1.8-1.9-3-.6-1.2-.9-3-1.2-5.2 0-.2-.1-.5-.1-.9-.1-.4-.3-.7-.7-1.1-.3-.3-.7-.6-1.2-.6-.5.3-.6.3-.8.3"/><defs><path id="SVGID_00000139269885228862139280000009624140297885239694_" d="M401.9 138.4c-.3-.5.3-1.6 1.6-3.3 1.4-1.7 4.2-3.9 8.4-6.5-.1 1.9-.6 3.5-1.4 4.9-1.4 2-3 3.4-4.8 4.1-1.5.6-2.7.9-3.5.9-.1-.1-.2-.1-.3-.1m-44.6-12.1c-.1-.5.2-1.4.7-2.5 1.2-2.5 3.2-4.9 5.8-7.1 2.6-2.3 5.4-3.6 8.3-4.1 2.3-.3 4.3.3 6.2 1.7.1.1.3.2.4.2-3.3 2.7-6.8 5.3-10.6 7.8-1.6 1-3 1.9-4.2 2.5-1.2.6-2.1 1.1-3 1.5-.8.3-1.5.6-2 .7-.5.1-1 .2-1.5.2 0-.1 0-.4-.1-.9m-144.6-20.1c-1.8.8-1.4 2.7-1.4 2.7.3 2.4.8 4.4 1.4 5.8.6 1.4 1.3 2.6 2.2 3.5.6.7 1.3 1.2 2.1 1.4s1.4.4 2.1.4c2.2.2 5.1-.5 8.7-2.3 2-.9 4.3-2.3 7-3.9-1.1 1.8-2.4 3.6-3.7 5.7-2.3 3.5-4 6.2-5.2 8.3-.7 1.2-1.2 2.2-1.6 2.9-.3.5-.5 1-.5 1.4s.3.9.9 1.2c.3.1.7.2 1.1.2.6 0 1.2-.2 1.7-.6 1.5-1.2 4.1-3.7 7.7-7.5 2.1-2.1 4.2-4.3 6.3-6.4 2.1-2.1 4-3.8 5.6-5.2 1.8-1.4 3.1-2.3 4-2.6-1.9 3-3.5 5.5-4.5 7.6-1.1 2-1.9 3.6-2.3 4.9-.5 1.2-.7 2.1-.7 2.8 0 .6.1 1.1.3 1.4s.4.4.6.5c.3.2.7.3 1.2.4s1.2 0 2.1-.2c2.2-.8 5.2-3.3 9.1-7.5 1-1 2.1-2 3.2-3.1s2.1-2 3-2.6c.3 2.4.8 4.4 1.4 5.8s1.3 2.6 2.2 3.5c.6.7 1.3 1.2 2.1 1.4s1.4.4 2.1.4c2.2.2 5.1-.5 8.7-2.3 2.1-1 4.7-2.5 7.7-4.4-.4.7-.8 1.4-1 2-.3.5-.5 1.1-.7 1.9-.2.8-.3 1.6-.1 2.5.2.9.8 1.6 1.8 2.1.8.4 1.8.6 3 .6 2.7-.1 5.9-.9 9.6-2.5 3.7-1.6 7.3-3.4 10.8-5.4.8-.5 1.5-.9 2.2-1.3l-8.2 12.1c-.2.3-.2.6 0 .9.2.3.5.5.9.7.3.1.6.1.9.1.6 0 1.2-.2 1.6-.6l2.1-2.1c1.3-1.4 2.9-3 4.8-4.9 1.9-1.9 3.9-3.8 6-5.6s3.9-3.2 5.5-4.2c2.2-1.3 3.9-2.1 5-2.6 1.1-.4 1.8-.6 2.1-.6.1 0 .1.1.1.2 0 .2 0 .6-.1.9v.1c-.1 1.6 0 3.4.3 5.5s1.5 3.7 3.5 4.9c.6.3 1.4.6 2.5.8s2.4.2 3.9 0c3.4-.6 6.6-1.7 9.8-3.1.7-.3 1.3-.6 2-.9-1.1 1.7-1.7 3.3-1.9 4.8 0 1.1.3 1.9.9 2.5.6.5 1.1.8 1.6 1s1.1.2 1.7.2c3 0 7.4-1.8 13.3-5.6 3.6-2.4 7-4.9 10.3-7.6-1.1 3.1-1.3 5.4-.6 6.9.7 1.5 1.8 2.5 3.3 3 1.1.5 2.4.7 3.9.7 6.6-.2 14.2-3.5 22.9-9.7.1.6.3 1.3.5 2.1.4 1.8.6 3.7.8 5.7-.6.3-1.1.7-1.6 1-5 2.9-8.4 5.5-10.2 7.7-1.8 2.2-2.5 3.8-2.1 5 .3.9 1.1 1.5 2.2 1.8.6.1 1.2.2 1.9.2 1.9 0 4-.5 6.2-1.5 2.3-1 4.2-2.7 5.8-5 1.3-2.3 1.9-5 1.7-8 5.6-3 10.7-5.5 15.2-7.5s6.9-3 7.2-3.1c.5-.2.7-.5.9-.8s.1-.6-.2-1c-.3-.3-.7-.5-1.3-.5-.5-.1-1 0-1.5.1-.3.1-2.4 1-6.5 2.8-4.1 1.8-8.8 4-14.1 6.8-.5-3.4-1-6.1-1.6-8.1-.2-.8-.1-1.5.4-2.1.5-.6 1-1.1 1.8-1.5.7-.4 1.4-.7 2-.9.6-.2 1-.3 1.1-.4.5-.1.9-.3 1.1-.6.2-.3.2-.6 0-1-.2-.3-.5-.5-1-.6s-1-.1-1.5 0c-1.8.4-3.6 1.3-5.5 2.6-1.4 1-2.2 2.2-2.2 3.6-5.2 4-10 6.9-14.5 8.6-4.5 1.8-7.7 2.3-9.6 1.6-1.4-.5-2-1.8-1.8-4.1.2-2.3 1.7-5.7 4.6-10.2.2-.3.2-.6.1-.9-.1-.3-.4-.5-.9-.7-.5-.2-.9-.2-1.4-.2-.5.1-.9.2-1.1.5-.1 0-.5.4-1.3 1.1-.8.7-1.8 1.6-3.1 2.7-2.1-1.4-4.1-2.2-6-2.4-1.9-.2-3.6-.1-5.1.3-2.8.7-5.4 1.9-7.7 3.6-.1.1-.2.1-.3.1-.1 0-.7.4-1.8 1.2-1.2.8-2.7 1.7-4.6 2.7-1.9 1-4 2-6.2 2.9s-4.5 1.5-6.6 1.9c-.7.1-1.3.2-1.7.1-.4 0-.7-.1-1-.2-.2-.1-.4-.1-.4-.2-1.3-.8-2-2.1-2.2-3.9-.2-1.8-.2-3.3-.1-4.5.1-.4.1-.8.1-1.1 0-.9-.3-1.5-.8-1.9-.5-.4-1-.6-1.5-.7-.5-.2-1.2-.2-2.1-.2s-2.1.4-3.6.9c-1.5.6-3.4 1.5-5.7 2.9-1.9 1.2-4.1 2.8-6.4 4.9l7-10.3c.3-.3.3-.6.1-1-.2-.3-.5-.5-1.1-.6-.5-.1-1-.1-1.5 0s-.8.3-1 .6l-4.1 6c-.1.1-.3.1-.4.2-6.7 4.3-12.7 7.7-18 10-1 .5-2 .8-2.8 1.1s-1.5.5-2.1.7c-.6.2-1.1.3-1.6.4s-.8.1-1.2.2-.6 0-.7 0-.3 0-.5-.1c-.1-.1-.1-.2-.2-.3s-.1-.2-.1-.4v-.8c0-.3.1-.7.3-1.1.2-.4.4-1 .7-1.5.3-.6.7-1.3 1.1-2 .5-.7 1-1.6 1.7-2.6.7-.9 1.5-2 2.4-3.2s2-2.4 3.2-3.8c.3-.3.3-.6.1-1-.2-.3-.5-.6-.9-.8-.5-.2-.9-.2-1.5-.1-.5.1-.9.3-1.2.6-1.3 1.4-2.4 2.8-3.4 4.1-.2.1-.4.1-.5.2-1.4.9-3.4 2.3-6 3.9-2.5 1.7-5.1 3.2-7.8 4.5-2.6 1.3-4.7 2-6.1 2-.2 0-.4-.1-.6-.2-.2-.1-.4-.2-.7-.5-.7-.8-1.3-1.8-1.9-3-.5-1.2-1-3-1.2-5.2 0-.2 0-.5-.1-.9s-.3-.7-.7-1.1c-.4-.4-.9-.6-1.7-.8-1.4-.2-2.9.3-4.5 1.5s-3.7 3.2-6.2 5.8c-1 1-2 2-3.1 3s-2.1 1.9-3 2.6c.7-2.4 3.1-6.8 7.2-13.2.9-1.6.5-2.7-1.1-3.4-.8-.4-2-.4-3.6 0s-3.5 1.6-5.9 3.5c-3.2 2.8-6.9 6.3-11.1 10.6 2.8-4.4 5.9-9.1 9.3-14.1.3-.2.4-.5.4-.8 0-.3-.2-.6-.6-.9s-.8-.4-1.4-.3c-.2 0-.5.1-.7.1h-.2c-.4.1-.6.3-.9.5-1.4.9-3.2 2.1-5.6 3.7-2.6 1.7-5.1 3.1-7.8 4.5-2.6 1.3-4.7 2-6.1 2-.2 0-.4-.1-.6-.2-.2-.1-.4-.2-.7-.5-.7-.8-1.3-1.8-1.9-3-.6-1.2-.9-3-1.2-5.2 0-.2-.1-.5-.1-.9-.1-.4-.3-.7-.7-1.1-.3-.3-.7-.6-1.2-.6-.5.3-.6.3-.8.3"/></defs><clipPath id="SVGID_00000025432808529431053430000006825682558636510883_"><use xlink:href="#SVGID_00000139269885228862139280000009624140297885239694_" overflow="visible"/></clipPath><path clip-path="url(#SVGID_00000025432808529431053430000006825682558636510883_)" fill="#21409a" d="M210.9 106.2h228.5v34.7H210.9z"/></svg>