<svg data-name="Camada 2" xmlns="http://www.w3.org/2000/svg" viewBox="0 0 116.76 116.76"><g data-name="Layer 1"><circle cx="58.38" cy="58.38" r="58.38" fill="#01743c"/><path d="M68.84 71.46l-.69 1.98-6.99-.12 4.26-12.16 1 .02 6 .1-3.57 10.18zm-11.3-9.3l3.71-10.74 1.21-3.51 8.54.08-4.03 11.51-2.75-.05-5.42 15.48 10.49.18-.52 1.49-18.66-.13.75-2.15.45-1.27 2.45.02 3.78-10.92zm24.24 10.39l-11.49-.19 4.45-12.71-6-.1 4.23-12.09.31-.88 3.51-10.02h.17l21.73.37-12.5 35.7-4.41-.07zM40.1 46.05l4.37-12.62 4 .04 3.02-8.73 29.01.38-2.98 8.62 8.41.08-.42 1.22-9.41-.16h-.48l-3.2 9.13-.71 2.03-.11.32-8.55-.08-21.93-.2H40.1zM26.78 71.16l-.8 2.27-6.99-.12.78-2.22-8.66-.08 4.37-12.62 23.06.21 3.76-10.88 18.41.17-4.35 12.56-3.78 10.93h-.68l-9.18-.09-15.94-.15zm54.45 14.17l-13.19-.12-3.36 9.7-20.12-.37 3.3-9.52-8.09-.07 4.14-11.96 5.65.05-.1.28-1.68 4.81 22.19.16 1.49-4.25 13.61.23-3.83 11.06z" fill="#fff"/></g></svg>