<svg data-name="Camada 2" xmlns="http://www.w3.org/2000/svg" viewBox="0 0 116.76 116.76"><g data-name="Layer 1"><circle cx="58.38" cy="58.38" r="58.38" fill="#01743c"/><path d="M81.27 48.1l2.72-4.71-1.2-.69h-.02L63.23 31.4h-.02l-1.2-.71-9.1 15.76 1.2.69h.02l19.54 11.29h.02l1.2.71 2.9-5.03 36.1 22.34c1.01-3.11 1.77-6.32 2.25-9.63L81.27 48.1zM46.8 55.61l23.22 13.41c.84.48 1.92.19 2.4-.64l1.96-3.4c.98-1.69.39-3.88-1.3-4.85L52.96 48.52a3.558 3.558 0 0 0-4.85 1.3l-1.96 3.4c-.48.84-.19 1.92.64 2.4zm17.01-25.89l20.12 11.61c1.69.98 3.88.39 4.85-1.3l1.96-3.4c.48-.84.19-1.92-.64-2.4L66.88 20.82c-.84-.48-1.92-.19-2.4.64l-1.96 3.4a3.558 3.558 0 0 0 1.3 4.85zm9.68 45.75H37.95c-3.34 0-6.08 2.73-6.08 6.08v.6H29.2c-2.74 0-4.99 2.25-4.99 4.99v4.99h63.01v-4.99c0-2.74-2.25-4.99-4.99-4.99h-2.67v-.6c0-3.34-2.73-6.08-6.08-6.08z" fill="#fff"/></g></svg>