<svg id="Camada_2" data-name="Camada 2" xmlns="http://www.w3.org/2000/svg" viewBox="0 0 116.76 116.76"><defs><style>.cls-1{fill:#fff}</style></defs><g id="Layer_1" data-name="Layer 1"><circle cx="58.38" cy="58.38" r="58.38" fill="#1f4497"/><path class="cls-1" d="M37.31 65.47c0-.59.48-1.08 1.08-1.08h20.39c.59 0 1.08.48 1.08 1.08v.65c0 .59-.48 1.08-1.08 1.08H38.39c-.59 0-1.08-.48-1.08-1.08v-.65zm0-8.34c0-.59.48-1.08 1.08-1.08h17.88c.59 0 1.08.48 1.08 1.08v.65c0 .59-.48 1.08-1.08 1.08H38.39c-.59 0-1.08-.48-1.08-1.08v-.65zm0-8.34c0-.59.48-1.08 1.08-1.08h25.62c.59 0 1.08.48 1.08 1.08v.65c0 .59-.48 1.08-1.08 1.08H38.39c-.59 0-1.08-.48-1.08-1.08v-.65zm0-8.34c0-.59.48-1.07 1.08-1.07h18.95c.59 0 1.08.48 1.08 1.07v.65c0 .59-.48 1.08-1.08 1.08H38.39c-.59 0-1.08-.48-1.08-1.08v-.65zm36.44 41.67v.49c0 2.12-1.73 3.85-3.85 3.85H53.41c-2.12 0-3.85-1.73-3.85-3.85v-.49c0-2.12 1.73-3.85 3.85-3.85H69.9c2.12 0 3.85 1.73 3.85 3.85zM37.02 92.81h35.84c2.96 0 5.38-2.42 5.38-5.38V35.87c0-2.96-2.42-5.38-5.38-5.38H37.02c-2.96 0-5.38 2.42-5.38 5.38v51.57c0 2.96 2.42 5.38 5.38 5.38z"/><path class="cls-1" d="M39.95 27.88h35.04c3.4 0 6.19 2.78 6.19 6.19v50.75c0 .64.67 1.04 1.22.73a5.397 5.397 0 0 0 2.72-4.67V30.13c0-3.4-2.78-6.19-6.19-6.19H43.91c-1.99 0-3.74 1.1-4.67 2.72-.31.55.08 1.22.72 1.22z"/></g></svg>