<svg data-name="Camada 2" xmlns="http://www.w3.org/2000/svg" viewBox="0 0 66.87 66.87"><g data-name="Layer 1"><circle cx="33.44" cy="33.44" r="33.44" fill="#fff"/><path d="M50.97 33.51c0-3.32.03-6.63 0-9.95-.06-5.11-2.52-7.62-7.61-7.66-6.63-.05-13.26-.05-19.9 0-4.95.04-7.5 2.59-7.54 7.51-.05 6.63-.04 13.26 0 19.9.03 5.08 2.54 7.62 7.62 7.66 6.63.05 13.26.05 19.9 0 4.96-.04 7.45-2.55 7.53-7.51.05-3.32 0-6.63 0-9.95zm-6.7-13.68q2.62 0 2.62 3.43 0 2.61-3.43 2.61-2.48 0-2.48-3.08t3.29-2.96zm-10.9 7.4c3.46-.03 6.29 2.84 6.26 6.36-.03 3.22-2.84 5.99-6.12 6.03-3.28.04-6.15-2.66-6.24-5.89-.1-3.53 2.65-6.47 6.1-6.5zm14.41 16.32c-.05 2.89-1.3 4.2-4.18 4.22-6.78.06-13.56.06-20.33 0-2.83-.02-4.14-1.36-4.19-4.25-.07-4.05.02-8.1-.04-12.16-.02-1.12.26-1.51 1.47-1.52 1.43-.01 2.14-.01 3.87.02-1.34 5.02-.2 9.11 4.18 11.81 3.44 2.13 7.11 1.96 10.39-.39 3.85-2.76 4.89-6.89 3.62-11.41h3.98s1.27-.2 1.26 2.46c0 3.02.04 8.18-.01 11.2z" fill="#0061af"/></g></svg>