<svg data-name="Camada 2" xmlns="http://www.w3.org/2000/svg" viewBox="0 0 66.87 66.87"><g data-name="Layer 1"><circle cx="33.44" cy="33.44" r="33.44" fill="#fff"/><path d="M48.68 33.89v11.16h-6.53v-10.4c0-1.31-.24-2.38-.73-3.22-.49-.83-1.31-1.25-2.47-1.25-.93 0-1.66.25-2.2.74-.54.5-.93 1.04-1.19 1.63-.1.21-.16.46-.16.75v11.74h-6.47V25.52h6.47v2.79c-.06 0-.1.03-.1.09h.1v-.09c.44-.68 1.09-1.39 1.93-2.12.84-.74 2.15-1.11 3.93-1.11 2.15 0 3.93.71 5.33 2.12 1.39 1.42 2.09 3.64 2.09 6.69zM25.76 19.5c0 .93-.35 1.71-1.05 2.35-.7.63-1.59.95-2.66.95-1.14 0-2.03-.32-2.68-.95-.65-.64-.97-1.42-.97-2.35 0-.99.34-1.8 1.03-2.41.69-.61 1.59-.92 2.71-.92 1.01 0 1.85.31 2.5.92.65.61 1.02 1.42 1.11 2.41zm-7 6.02h6.53v19.53h-6.53z" fill="#0061af"/></g></svg>