<svg data-name="Camada 2" xmlns="http://www.w3.org/2000/svg" viewBox="0 0 66.87 66.87"><g data-name="Layer 1"><circle cx="33.44" cy="33.44" r="33.44" fill="#fff"/><path d="M50.22 48.01c-.89-1.18-1.78-2.37-2.66-3.55-3.17-4.23-6.45-8.59-9.73-12.98l11.93-12.71H46l-.09.1-5 5.33c-1.58 1.69-3.17 3.38-4.75 5.06-2.59-3.45-5.18-6.91-7.77-10.37l-.09-.12h-9.69l.35.48c1.27 1.72 2.54 3.45 3.81 5.17l3.75 5.1c1.38 1.87 2.78 3.77 4.14 5.61-.64.69-1.29 1.37-1.93 2.05-.73.77-1.45 1.54-2.17 2.32l-2.29 2.44c-.78.83-1.55 1.66-2.33 2.49-1.11 1.18-2.22 2.37-3.33 3.55l-.48.51h3.75l.09-.1c1.11-1.18 2.22-2.37 3.33-3.55l3.61-3.85c1.13-1.21 2.27-2.41 3.4-3.62 1.27 1.73 2.54 3.45 3.81 5.18l1.67 2.26c.44.6.88 1.19 1.32 1.79.43.59.86 1.17 1.3 1.76l.09.12h10.1l-.36-.48zM33.79 34.9l-1.09-1.47-8.82-11.98h3.07l3.13 4.17 2.18 2.9c.68.91 1.36 1.82 2.04 2.72s.19.25.19.25c.37.5.74.99 1.11 1.49s.15.2.15.2v.01l.21.28c2.55 3.4 5.1 6.81 7.66 10.21l1.61 2.15h-3.41L34.15 35.4l-.14-.19-.22-.3z" fill="#0061af"/></g></svg>