<svg id="Camada_2" data-name="Camada 2" xmlns="http://www.w3.org/2000/svg" viewBox="0 0 66.86 66.86"><defs><style>.cls-2{fill:#0061af}</style></defs><g id="Layer_1" data-name="Layer 1"><circle cx="33.43" cy="33.43" r="33.43" fill="#fff"/><path class="cls-2" d="M49.76 17c-3.79-3.86-8.68-6.06-14.66-6.6h-2.76c-6.28.63-11.26 2.93-14.93 6.92-4.24 4.61-6.4 9.84-6.49 15.68 0 3.56.89 7.13 2.67 10.69.18.48.27.93.27 1.35 0 .51-.07.99-.22 1.44-2.46 7.16-3.69 10.76-3.69 10.83l.18-.27c.03.12.07.18.13.18 1.57-.57 3.64-1.26 6.22-2.07 3.35-1.08 5.42-1.75 6.22-2.02 3.76 1.94 7.41 2.92 10.93 2.92h.71c4.18-.18 7.91-1.29 11.2-3.32 6.52-4.07 10.16-10.11 10.93-18.1V31.8c-.56-5.9-2.8-10.83-6.71-14.78zm2.4 21.6c-1.72 5.6-5.35 9.64-10.89 12.13-2.43 1.11-5.01 1.66-7.73 1.66-.68 0-1.36-.05-2.04-.14-2.61-.3-5.39-1.33-8.36-3.1l-7.29 2.34c.09-.3.65-2.04 1.69-5.21l.71-1.8s-.46-.67-1.29-2.02c-1.24-2.34-2-4.81-2.27-7.41-.09-.72-.13-1.45-.13-2.2 0-6.29 2.68-11.41 8.05-15.36 2.9-2.1 6.09-3.25 9.55-3.46.53-.03 1.05-.04 1.56-.04 5.89 0 10.72 2.29 14.49 6.87 3.14 3.65 4.71 7.65 4.71 11.99 0 1.83-.25 3.74-.75 5.75z"/><path class="cls-2" d="M45 39.83c0 1.91-.87 3.32-2.6 4.22-1.11.56-2.15.84-3.11.84h-.56c-1.73-.28-3.76-.98-6.08-2.11-3.03-1.44-5.85-3.99-8.45-7.64-1.86-2.69-2.78-4.92-2.78-6.71 0-3.13 1.01-4.97 3.02-5.54.43-.06.85-.09 1.25-.09s.76.06 1.07.19c.25.13.74 1.02 1.49 2.67.77 1.91 1.16 2.92 1.16 3.05 0 .47-.29 1.02-.88 1.64l-1.07 1.41c0 .38.53 1.27 1.58 2.67 1.33 1.72 2.77 3 4.32 3.85 1.39.78 2.32 1.17 2.78 1.17h.09c.25-.03.76-.55 1.53-1.55.77-.97 1.28-1.45 1.53-1.45.34 0 1.36.42 3.06 1.27 1.39.69 2.26 1.19 2.6 1.5.03.22.05.42.05.61z"/></g></svg>