<svg data-name="Camada 2" xmlns="http://www.w3.org/2000/svg" viewBox="0 0 66.87 66.87"><g data-name="Layer 1"><circle cx="33.44" cy="33.44" r="33.44" fill="#fff"/><path d="M51.21 26.5c-.26-3.69-1.86-5.43-5.65-5.66-8.11-.49-16.23-.48-24.34 0-3.53.21-5.21 1.92-5.5 5.34a87.69 87.69 0 0 0 0 14.94c.28 3.26 1.82 4.91 5.18 5.07 4.23.2 20.62.29 24.56.11 3.93-.18 5.48-1.92 5.75-5.75.33-4.68.32-9.37-.01-14.05zM28.83 40.69V27.17c4.2 2.3 8.1 4.44 12.44 6.81-4.3 2.32-8.22 4.43-12.44 6.7z" fill="#0061af"/></g></svg>